<?xml version="1.0" standalone="no"?>
<!DOCTYPE svg PUBLIC "-//W3C//DTD SVG 1.1//EN" "http://www.w3.org/Graphics/SVG/1.1/DTD/svg11.dtd" >
<svg xmlns="http://www.w3.org/2000/svg">
<metadata>Generated by IcoMoon</metadata>
<defs>
<font id="bevi" horiz-adv-x="1024">
<font-face units-per-em="1024" ascent="960" descent="-64" />
<missing-glyph horiz-adv-x="1024" />
<glyph unicode="&#x20;" horiz-adv-x="512" d="" />
<glyph unicode="&#xe900;" glyph-name="account-box-solid" d="M514.134 363.734c41.171 0 76.16 14.291 104.531 42.666 28.374 28.374 42.669 63.36 42.669 104.534 0 41.171-14.294 76.16-42.669 104.531-28.371 28.374-63.36 42.668-104.531 42.668-41.174 0-76.16-14.293-104.534-42.668-28.374-28.371-42.666-63.36-42.666-104.531 0-41.174 14.291-76.16 42.666-104.534s63.36-42.666 104.534-42.666zM192 64c-17.067 0-32 6.4-44.8 19.2s-19.2 27.734-19.2 44.8v640c0 17.067 6.4 32 19.2 44.8s27.733 19.2 44.8 19.2h640c17.066 0 32-6.4 44.8-19.2s19.2-27.733 19.2-44.8v-640c0-17.066-6.4-32-19.2-44.8s-27.734-19.2-44.8-19.2h-640zM192 128h640v39.466c-42.666 39.894-91.094 72.109-145.066 96.64-53.974 24.534-112.429 36.909-174.934 36.909s-120.96-12.374-174.934-36.909c-53.972-24.531-102.399-56.746-145.066-96.64v-39.466z" />
<glyph unicode="&#xe901;" glyph-name="agriculture-solid" d="M154.666 549.331c-7.893 0-14.507 3.2-20.267 9.6s-8.533 13.866-8.533 22.4c0 8.531 2.773 16 8.533 22.4s12.373 9.6 20.267 9.6h158.933c20.692 0 36.692-6.4 48.001-19.2 11.306-12.8 18.771-27.734 22.4-44.8h-229.334zM245.333 145.062c38.4 0 71.040 13.44 98.133 40.534s40.534 59.734 40.534 98.134-13.44 71.040-40.534 98.131c-27.093 27.094-59.733 40.534-98.133 40.534s-71.040-13.44-98.133-40.534c-27.093-27.091-40.533-59.731-40.533-98.131s13.44-71.040 40.533-98.134c27.093-27.094 59.733-40.534 98.133-40.534zM837.331 145.062c21.974 0 40.96 7.894 56.534 23.469 15.574 15.571 23.466 34.56 23.466 56.531 0 21.974-7.891 40.96-23.466 56.534s-34.56 23.466-56.534 23.466c-21.971 0-40.96-7.891-56.531-23.466-15.574-15.574-23.469-34.56-23.469-56.534 0-21.971 7.894-40.96 23.469-56.531 15.571-15.574 34.56-23.469 56.531-23.469zM245.333 209.062c-20.693 0-38.187 7.254-52.907 21.974-14.507 14.506-21.76 32.214-21.76 52.694s7.253 38.186 21.76 52.906c14.507 14.506 32.213 21.76 52.907 21.76s38.187-7.254 52.907-21.76c14.507-14.506 21.76-32.214 21.76-52.906 0-20.694-7.253-38.189-21.76-52.694s-32.213-21.974-52.907-21.974zM837.331 81.062c-39.891 0-73.811 13.44-101.971 40.534s-42.029 60.374-42.029 100.266c0 39.894 14.509 74.24 43.734 103.469 29.226 29.226 63.574 43.731 103.466 43.731 39.894 0 73.174-14.080 100.269-42.24 27.091-28.16 40.531-62.080 40.531-101.971 0-39.894-14.080-73.814-42.026-101.974-28.16-28.16-62.080-42.026-101.974-42.026v0.211zM243.199 81.062c-56.107 0-103.68 19.629-142.507 59.309-38.827 39.466-58.027 87.251-58.027 143.36 0 56.106 19.627 104.106 59.307 143.571 39.467 39.469 87.253 59.094 143.36 59.094s104.107-19.84 143.573-59.094c39.466-39.466 59.094-87.251 59.094-143.571s-19.84-104.109-59.094-143.36c-39.466-39.469-88.106-59.309-145.706-59.309zM477.866 251.731c0.64 5.76 1.28 11.091 1.706 16 0.429 4.906 0.429 10.24 0.429 16 0 28.371-4.694 55.891-13.869 82.131-9.171 26.24-24.106 50.774-44.8 73.6h27.734c29.866 0 55.040 10.454 75.094 31.574 20.266 20.906 30.506 46.294 30.506 76.16v110.933l-52.266 51.2-65.069-65.067-20.266 19.2 151.466 151.467 19.2-19.2-66.131-66.133 52.266-52.267h290.134c18.56 0 33.706-5.973 45.866-18.133s18.134-27.305 18.134-45.865v-237.869c-13.44 7.894-27.52 14.080-42.029 18.774-14.506 4.694-29.651 7.040-45.226 7.040-41.174 0-78.294-13.654-111.36-40.96s-55.040-63.574-65.706-108.374h-185.6l-0.214-0.211z" />
<glyph unicode="&#xe902;" glyph-name="alternate-email-solid" d="M512 373.334c41.238 0 74.669 33.427 74.669 74.666s-33.43 74.666-74.669 74.666c-41.235 0-74.666-33.427-74.666-74.666s33.43-74.666 74.666-74.666zM512 874.667c-235.733 0-426.666-190.933-426.666-426.667s190.933-426.666 426.666-426.666c235.734 0 426.669 190.931 426.669 426.666s-190.934 426.667-426.669 426.667zM693.334 341.334c-26.454 0-50.134 10.026-68.906 25.811-25.174-34.986-66.134-57.811-112.429-57.811-76.371 0-138.666 62.291-138.666 138.666s62.294 138.666 138.666 138.666c76.374 0 138.669-62.291 138.669-138.666 0-23.466 19.2-42.666 42.666-42.666s42.666 19.2 42.666 42.666c0 123.52-100.48 224-224 224s-223.999-100.48-223.999-224c0-123.52 100.479-224 223.999-224h138.24c17.709 0 32-14.294 32-32s-14.291-32-32-32h-138.24c-158.72 0-287.999 129.28-287.999 288s129.279 288 287.999 288c158.72 0 288-129.28 288-288 0-58.88-47.786-106.666-106.666-106.666z" />
<glyph unicode="&#xe903;" glyph-name="arrow-back-solid" d="M476.8 129.066l-296.534 296.534c-3.627 3.626-5.973 7.040-7.467 10.666-1.493 3.629-2.133 7.469-2.133 11.734s0.64 8.106 2.133 11.734c1.493 3.626 3.84 7.040 7.467 10.666l297.6 297.6c5.76 5.76 12.8 8.533 21.334 8.533 8.531 0 16-3.2 22.4-9.6s9.6-13.867 9.6-22.4c0-8.533-3.2-16-9.6-22.4l-242.134-242.133h529.065c9.174 0 16.854-2.986 23.040-8.96 5.974-5.974 8.96-13.654 8.96-23.040s-2.986-16.854-8.96-23.040c-5.971-5.974-13.651-8.96-23.040-8.96h-529.065l243.2-243.2c5.76-5.76 8.534-12.8 8.534-21.334 0-8.531-3.2-16-9.6-22.4s-13.869-9.6-22.4-9.6c-8.534 0-16 3.2-22.4 9.6z" />
<glyph unicode="&#xe904;" glyph-name="arrow-circle-right-solid" d="M534.4 314.666l110.931 110.934c12.374 12.374 12.374 32.426 0 44.8l-110.931 110.934c-12.374 12.371-32.429 12.371-44.8 0-12.374-12.374-12.374-32.429 0-44.8l56.531-56.534h-162.56c-17.491 0-31.571-14.080-31.571-31.574v-0.64c0-17.491 14.080-31.571 31.571-31.571h162.56l-56.531-56.534c-12.374-12.374-12.374-32.426 0-44.8 12.371-12.374 32.426-12.374 44.8 0v-0.214zM512 21.334c-58.24 0-113.494 11.091-165.334 33.706-51.84 22.4-97.28 52.906-136.107 91.734-38.827 38.826-69.333 84.051-91.733 136.106-22.4 51.84-33.493 107.094-33.493 165.334s11.307 114.56 33.493 166.4c22.4 51.839 52.907 97.066 91.733 135.466s84.053 68.693 136.107 91.307c51.84 22.4 107.094 33.707 165.334 33.707s114.56-11.307 166.4-33.493c51.84-22.4 97.066-52.907 135.466-91.307s68.906-83.627 91.306-135.468c22.4-51.84 33.709-107.306 33.709-166.4 0-59.091-11.094-113.491-33.709-165.331-22.4-51.84-52.906-97.28-91.306-136.109-38.4-38.826-83.626-69.331-135.466-91.731s-107.309-33.709-166.4-33.709v-0.211z" />
<glyph unicode="&#xe905;" glyph-name="arrow-forward-solid" d="M496 129.92c-5.76 5.76-8.534 13.226-8.534 22.4s2.774 16.64 8.534 22.4l241.066 241.066h-527.999c-9.173 0-16.853 2.989-22.827 8.96-5.973 5.974-9.173 13.654-9.173 23.040 0 9.389 2.987 16.854 9.173 23.040 5.973 5.974 13.653 8.96 22.827 8.96h527.999l-241.066 241.068c-5.76 5.76-8.534 13.227-8.534 22.827s2.774 17.28 8.534 22.827c5.76 5.547 13.226 8.533 22.4 8.533s16.64-2.773 22.4-8.533l296.534-296.532c3.626-3.629 5.971-7.040 7.466-10.669 1.494-3.626 2.134-7.466 2.134-11.731 0-3.629-0.64-7.254-2.134-11.094s-3.84-7.68-7.466-11.094l-296.534-296.531c-5.76-5.76-13.226-8.32-22.4-8.109-9.174 0.429-16.64 3.414-22.4 8.96v0.214z" />
<glyph unicode="&#xe906;" glyph-name="arrow-north-east-solid" d="M193.067 129.066c-6.4 6.4-9.6 13.869-9.6 22.4 0 8.534 3.2 16 9.6 22.4l508.799 508.801h-281.6c-9.171 0-16.851 2.987-23.040 9.173-5.971 5.973-8.96 13.653-8.96 22.827s2.989 16.853 8.96 22.827c5.974 5.973 13.654 9.173 23.040 9.173h358.4c9.174 0 16.854-2.987 23.040-9.173 5.974-5.973 8.96-13.653 8.96-22.827v-358.401c0-9.171-2.986-16.851-8.96-23.040-5.971-5.971-13.651-8.96-23.040-8.96-9.171 0-16.851 2.989-23.040 8.96-6.186 5.974-8.96 13.654-8.96 23.040v281.6l-508.799-508.8c-6.4-6.4-13.867-9.6-22.4-9.6s-16 3.2-22.4 9.6z" />
<glyph unicode="&#xe907;" glyph-name="arrow-north-solid" d="M512 21.334c-9.174 0-16.854 2.986-23.040 8.96-5.974 5.971-8.96 13.651-8.96 23.040v699.732l-199.467-199.467c-6.4-6.4-13.867-9.6-22.4-9.6s-16 3.2-22.4 9.6c-6.4 6.4-9.6 13.866-9.6 22.4s3.2 16 9.6 22.4l253.867 253.867c3.626 3.627 7.040 5.973 10.666 6.827 3.626 1.067 7.466 1.493 11.734 1.493 4.266 0 8.106-0.64 11.731-1.493 3.629-1.067 7.040-3.413 10.669-6.827l253.866-253.867c6.4-6.4 9.6-13.866 9.6-22.4s-3.2-16-9.6-22.4c-6.4-5.76-13.866-8.746-22.4-8.96-8.531-0.426-16 2.56-22.4 8.96l-199.466 199.467v-699.732c0-9.174-2.989-16.854-8.96-23.040-5.974-5.974-13.654-8.96-23.040-8.96z" />
<glyph unicode="&#xe908;" glyph-name="arrow-north-weast-solid" d="M786.134 129.066l-508.8 508.8v-281.6c0-9.171-2.987-16.851-9.173-23.040-5.973-5.971-13.653-8.96-22.827-8.96s-16.853 2.989-22.827 8.96c-5.973 5.974-9.173 13.654-9.173 23.040v358.401c0 9.173 2.987 16.853 9.173 22.827 5.973 5.973 13.653 9.173 22.827 9.173h358.4c9.174 0 16.854-2.987 23.040-9.173 5.974-5.973 8.96-13.653 8.96-22.827s-2.986-16.853-8.96-22.827c-5.974-5.973-13.654-9.173-23.040-9.173h-281.6l508.8-508.801c6.4-6.4 9.6-13.866 9.6-22.4 0-8.531-3.2-16-9.6-22.4s-13.866-9.6-22.4-9.6c-8.534 0-16 3.2-22.4 9.6z" />
<glyph unicode="&#xe909;" glyph-name="arrow-selector-tool-solid" d="M632.746 54.186c-13.44-6.4-27.094-7.040-40.534-2.134-13.44 4.909-23.466 14.294-29.866 27.734l-135.466 290.134-125.868-176c-9.173-12.8-21.12-16.64-35.84-11.734-14.507 4.906-21.973 15.36-21.973 30.934v601.599c0 13.44 5.973 23.040 18.133 28.8s23.467 4.693 34.133-3.2l472.534-371.199c12.16-10.029 15.36-21.974 10.026-36.269-5.334-14.291-15.574-21.331-30.294-21.331h-221.866l132.266-286.934c6.4-13.44 7.040-27.094 2.134-40.534s-14.294-23.466-27.734-29.866h0.214z" />
<glyph unicode="&#xe90a;" glyph-name="arrow-south-solid" d="M512 34.134c-4.269 0-8.109 0.64-11.734 2.131-3.626 1.494-7.040 3.84-10.666 7.469l-253.867 253.866c-6.4 6.4-9.6 13.866-9.6 22.4s3.2 16 9.6 22.4c6.4 6.4 13.867 9.6 22.4 9.6s16-3.2 22.4-9.6l199.467-199.466v699.732c0 9.173 2.986 16.853 8.96 22.827s13.651 9.173 22.826 9.173c9.174 0 16.854-2.987 23.040-9.173 5.974-5.973 8.96-13.653 8.96-22.827v-699.732l199.466 199.466c5.76 5.76 13.014 8.746 21.974 8.96s16.426-2.56 23.040-8.96c6.4-6.4 9.6-13.866 9.6-22.4s-3.2-16-9.6-22.4l-253.866-253.866c-3.629-3.629-7.040-5.974-10.669-7.469-3.626-1.491-7.466-2.131-11.731-2.131z" />
<glyph unicode="&#xe90b;" glyph-name="article-solid" d="M327.466 233.6h229.334c9.174 0 16.854 2.986 23.040 8.96s8.96 13.654 8.96 23.040c0 9.386-2.986 16.854-8.96 23.040s-13.654 9.174-23.040 8.96h-229.334c-9.172 0-16.852-2.986-22.826-8.96s-8.96-13.654-9.173-23.040c0-9.174 2.987-16.854 9.173-23.040 5.973-5.974 13.653-8.96 22.826-8.96zM327.466 416h369.069c9.171 0 16.851 2.986 23.040 8.96 5.971 5.974 8.96 13.654 8.96 23.040s-2.989 16.854-8.96 23.040c-5.974 5.974-13.654 8.96-23.040 8.96h-369.069c-9.172 0-16.852-2.986-22.826-8.96s-9.173-13.654-9.173-23.040c0-9.386 2.987-16.854 9.173-23.040 5.973-5.974 13.653-8.96 22.826-8.96zM327.466 598.4h369.069c9.171 0 16.851 2.986 23.040 8.96 6.186 5.974 8.96 13.654 8.96 22.826 0 9.174-2.989 16.854-8.96 22.828-5.974 5.973-13.654 9.173-23.040 9.173h-369.069c-9.172 0-16.852-2.987-22.826-9.173-5.973-5.973-9.173-13.653-9.173-22.828 0-9.171 2.987-16.851 9.173-22.826 5.973-5.974 13.653-8.96 22.826-8.96zM192 64c-17.067 0-32 6.4-44.8 19.2s-19.2 27.734-19.2 44.8v640c0 17.067 6.4 32 19.2 44.8s27.733 19.2 44.8 19.2h640c17.066 0 32-6.4 44.8-19.2s19.2-27.733 19.2-44.8v-640c0-17.066-6.4-32-19.2-44.8s-27.734-19.2-44.8-19.2h-640z" />
<glyph unicode="&#xe90c;" glyph-name="assignment-solid" d="M330.666 234.666h227.2c9.174 0 16.854 2.989 23.040 8.96 5.974 5.974 8.96 13.654 8.96 23.040 0 9.389-2.986 16.854-8.96 23.040-5.971 5.974-13.651 8.96-23.040 8.96h-227.2c-9.171 0-16.852-2.986-22.826-8.96-5.973-5.971-9.173-13.651-9.173-23.040 0-9.386 2.987-16.851 9.173-23.040 5.973-5.971 13.654-8.96 22.826-8.96zM330.666 416h362.669c9.171 0 16.851 2.986 23.040 8.96 5.971 5.974 8.96 13.654 8.96 23.040s-2.989 16.854-8.96 23.040c-5.974 5.974-13.654 8.96-23.040 8.96h-362.669c-9.171 0-16.852-2.986-22.826-8.96s-9.173-13.654-9.173-23.040c0-9.386 2.987-16.854 9.173-23.040 5.973-5.974 13.654-8.96 22.826-8.96zM330.666 597.334h362.669c9.171 0 16.851 2.986 23.040 8.96 5.971 5.971 8.96 13.651 8.96 23.040 0 9.386-2.989 16.852-8.96 22.825-5.974 5.973-13.654 9.173-23.040 9.173h-362.669c-9.171 0-16.852-2.987-22.826-9.173-5.973-5.973-9.173-13.654-9.173-22.825 0-9.174 2.987-16.854 9.173-23.040 5.973-5.974 13.654-8.96 22.826-8.96zM192 64c-17.707 0-32.853 6.186-45.227 18.774-12.373 12.586-18.773 27.52-18.773 45.226v640c0 17.707 6.187 32.853 18.773 45.227s27.52 18.773 45.227 18.773h218.666c3.629 24.96 14.934 45.227 34.134 61.44 19.2 16 41.6 23.893 67.2 23.893s48-8.107 67.2-23.893c19.2-16 30.506-36.48 34.134-61.44h218.666c17.706 0 32.854-6.187 45.226-18.773 12.374-12.587 18.774-27.52 18.774-45.227v-640c0-17.706-6.186-32.854-18.774-45.226-12.586-12.374-27.52-18.774-45.226-18.774h-640zM512 786.133c10.026 0 18.774 3.627 26.24 11.307 7.466 7.467 11.094 16.213 11.094 26.027s-3.84 18.773-11.094 26.027c-7.466 7.467-16.214 11.093-26.24 11.093s-18.774-3.84-26.24-11.307c-7.466-7.467-11.094-16.213-11.094-26.027s3.84-18.773 11.094-26.027c7.466-7.467 16.214-11.093 26.24-11.093z" />
<glyph unicode="&#xe90d;" glyph-name="autorenew-solid" d="M189.866 332.797c-7.040 18.56-12.16 37.334-14.933 56.534s-4.267 38.4-4.267 57.6c0 93.226 33.493 173.44 100.907 240.426 67.198 67.2 147.413 100.907 240.427 100.907h45.866l-65.066 65.067c-5.76 5.76-8.32 12.587-8.109 20.693 0.429 8.107 3.414 15.147 8.96 20.693 5.76 5.76 12.589 8.533 20.909 8.533 8.106 0 15.146-2.773 20.906-8.533l115.2-116.267c3.626-3.627 5.974-7.040 7.466-10.667 1.494-3.627 2.134-7.467 2.134-11.733s-0.64-8.107-2.134-11.733c-1.491-3.627-3.84-7.040-7.466-10.667l-115.2-115.199c-5.76-5.76-12.8-8.534-21.334-8.534-8.531 0-15.571 2.774-21.331 8.534s-8.534 12.8-8.534 21.331c0 8.534 2.774 15.574 8.534 21.334l62.931 62.933h-43.731c-76.16 0-141.229-27.093-195.841-81.493-54.613-54.4-81.493-119.68-81.493-195.626 0-17.069 1.493-33.494 4.267-49.069 2.773-15.571 6.4-30.506 10.667-44.8 1.493-4.906 1.493-10.24 0-16s-3.84-10.24-7.467-13.866c-9.173-9.174-19.2-13.014-29.867-11.094-10.667 1.709-18.133 8.749-22.4 20.694zM487.466 1.062l-116.266 115.2c-3.629 3.629-5.974 7.040-7.469 10.669-1.491 3.626-2.131 7.466-2.131 11.731 0 4.269 0.64 8.109 2.131 11.734 1.494 3.626 3.84 7.040 7.469 10.666l116.266 116.269c5.76 5.76 12.586 8.531 20.906 8.531s15.149-2.771 20.909-8.531c5.76-5.76 8.531-12.589 8.531-20.694s-2.771-15.146-8.531-20.694l-65.069-65.066h48c76.16 0 141.229 27.306 195.629 81.706s81.706 119.68 81.706 195.629c0 17.066-1.28 33.706-3.626 49.706-2.56 16-6.189 31.146-11.309 45.226-1.491 4.909-1.491 10.24-0.64 15.574 1.069 5.334 3.414 9.814 7.040 13.226 9.174 9.174 19.2 13.014 29.869 11.094 10.666-1.706 18.131-8.746 22.4-20.906 7.040-18.56 12.371-37.334 15.36-56.534 3.2-19.2 4.691-38.4 4.691-57.6 0-93.226-33.491-173.44-100.691-240.426-67.2-67.2-147.414-100.694-240.429-100.694h-48l65.069-65.066c5.76-5.76 8.531-12.374 8.531-20.269 0-7.891-2.771-14.506-8.531-20.266s-12.589-8.534-20.909-8.534c-8.106 0-15.146 2.774-20.691 8.534l-0.214-0.214z" />
<glyph unicode="&#xe90e;" glyph-name="bank-solid" d="M117.334 618.666h789.335c17.706 0 32 14.294 32 32.001v10.027c0 26.24-16 49.707-40.32 59.52l-362.669 145.067c-15.36 6.187-32.211 6.187-47.571 0l-362.455-145.28c-24.32-9.813-40.32-33.28-40.32-59.52v-10.027c0-17.708 14.293-31.999 32-31.999v0.211zM906.669 128h-789.335c-17.707 0-32-14.294-32-32s14.293-32 32-32h789.335c17.706 0 32 14.294 32 32s-14.294 32-32 32zM320 618.666h-170.666c0-27.731 17.92-51.2 42.667-60.16v-370.56c-24.747-8.746-42.667-32.211-42.667-60.16h170.666c0 27.734-17.919 51.2-42.666 60.16v370.56c24.747 8.749 42.666 32.214 42.666 60.16zM597.334 618.666h-170.666c0-27.731 17.92-51.2 42.666-60.16v-370.56c-24.746-8.746-42.666-32.211-42.666-60.16h170.666c0 27.734-17.92 51.2-42.666 60.16v370.56c24.746 8.749 42.666 32.214 42.666 60.16zM874.666 618.666h-170.666c0-27.731 17.92-51.2 42.666-60.16v-370.56c-24.746-8.746-42.666-32.211-42.666-60.16h170.666c0 27.734-17.92 51.2-42.666 60.16v370.56c24.746 8.749 42.666 32.214 42.666 60.16z" />
<glyph unicode="&#xe90f;" glyph-name="bevipentagono-solid" d="M361.882 377.818c0-6.611 1.706-20.906 5.334-32.426 10.88-34.774 49.066-62.294 84.691-65.28h1.069c-17.069 11.306-28.589 26.24-34.56 42.666-15.574 42.454 13.011 97.28 59.52 116.48 37.76 15.574 81.92 5.12 109.866-21.76 32.214-30.931 31.146-71.891 30.72-78.291-0.214-5.76-2.346-39.254-28.374-66.349-40.32-42.026-103.251-32.64-122.88-29.651-5.12 0.851-29.651 4.691-58.24 19.2-17.28 8.96-33.28 20.266-47.36 33.706 2.134-4.906 42.454-91.946 133.974-103.040 10.88-1.28 71.254-7.466 121.814 35.2 40.746 34.346 49.706 78.934 51.626 90.454 4.694 27.731 1.494 56.32-8.96 82.56-7.68 19.2-19.2 36.48-33.92 51.2-42.666 42.026-96.64 44.371-104.746 44.586-38.829 1.066-78.080-11.946-107.309-38.614 0 50.349-0.211 100.909-0.426 151.254-4.48 23.68-34.774 38.827-52.906 34.774 0-223.359 0.64-140.374 0-232.748l0.426-33.92h0.64zM511.856 794.242c3.2 0 7.891-0.64 12.586-4.053l341.76-248.32c7.466-5.546 10.666-14.934 7.68-23.894l-130.56-401.706c-2.774-8.746-11.094-14.72-20.266-14.72h-422.402c-9.173 0-17.493 5.974-20.267 14.72l-130.56 401.92c-2.773 8.746 0.213 18.346 7.68 23.894l341.759 248.106c4.694 3.413 9.389 4.053 12.589 4.053zM511.856 858.242c-17.709 0-35.2-5.333-50.134-16.213l-341.761-248.32c-29.867-21.76-42.453-60.16-30.933-95.36l130.56-401.706c11.52-35.2 44.16-58.88 81.067-58.88h422.402c36.906 0 69.76 23.891 81.066 58.88l130.56 401.706c11.52 35.2-1.066 73.6-30.934 95.36l-341.76 248.32c-14.931 10.88-32.64 16.213-50.131 16.213z" />
<glyph unicode="&#xe910;" glyph-name="beviprotege-solid" d="M841.6 739.842c-7.894 11.093-17.709 18.987-29.869 23.893l-277.331 103.467c-7.894 2.773-15.36 4.267-22.4 4.267s-14.509-1.493-22.4-4.267l-277.334-103.467c-12.16-4.907-21.973-13.013-29.867-23.893-7.893-11.093-11.733-23.253-11.733-36.693v-209.066c0-106.029 30.507-203.094 91.733-291.84 61.226-88.534 139.306-146.989 234.666-175.36 2.134-0.64 4.48-1.28 7.040-1.709 2.56-0.426 5.12-0.64 8.106-0.64l14.934 2.134c95.36 28.374 173.44 86.826 234.666 175.36 61.229 88.534 91.734 185.814 91.734 291.84v209.067c0 13.44-3.84 25.813-11.734 36.693l-0.211 0.213zM652.16 462.083c-8.32-15.36-19.414-31.36-33.28-48-13.869-16.429-30.080-33.494-48.64-50.774s-37.974-35.2-58.24-53.334c-20.48 18.349-39.894 36.054-58.24 53.334-18.56 17.28-34.56 34.346-48.64 50.774-13.869 16.426-24.96 32.426-33.28 48-8.32 15.571-12.374 30.291-12.374 44.586 0 22.614 7.68 41.386 22.826 56.746 15.149 15.36 34.134 22.829 56.749 22.829 13.011 0 26.026-3.629 38.826-10.669 12.8-7.251 24.32-16.851 34.134-29.011 10.026 12.16 21.331 21.76 34.131 29.011 12.8 7.254 25.814 10.669 38.829 10.669 22.611 0 41.386-7.68 56.746-22.829 15.36-15.146 22.826-34.131 22.826-56.746 0-14.294-4.051-29.226-12.371-44.586z" />
<glyph unicode="&#xe911;" glyph-name="blocks-solid" d="M128 522.666v266.668c0 23.467 19.2 42.667 42.667 42.667h266.668c23.466 0 42.666-19.2 42.666-42.667v-266.668c0-23.466-19.2-42.666-42.666-42.666h-266.668c-23.467 0-42.667 19.2-42.667 42.666zM128 106.666v266.669c0 23.466 19.2 42.666 42.667 42.666h266.668c23.466 0 42.666-19.2 42.666-42.666v-266.669c0-23.466-19.2-42.666-42.666-42.666h-266.668c-23.467 0-42.667 19.2-42.667 42.666zM544 522.666v266.668c0 23.467 19.2 42.667 42.666 42.667h266.669c23.466 0 42.666-19.2 42.666-42.667v-266.668c0-23.466-19.2-42.666-42.666-42.666h-266.669c-23.466 0-42.666 19.2-42.666 42.666zM544 106.666v266.669c0 23.466 19.2 42.666 42.666 42.666h266.669c23.466 0 42.666-19.2 42.666-42.666v-266.669c0-23.466-19.2-42.666-42.666-42.666h-266.669c-23.466 0-42.666 19.2-42.666 42.666zM608 544h224v224h-224v-224z" />
<glyph unicode="&#xe912;" glyph-name="bolt-solid" d="M709.12 522.026h-152.96l42.451 291.2c3.414 23.040-27.52 34.133-39.466 14.080l-262.613-438.615c-8.533-14.291 1.707-32.211 18.347-32.211h152.961l-42.454-291.2c-3.414-23.040 27.306-34.134 39.466-14.080l262.829 438.4c8.531 14.291-1.709 32.211-18.349 32.211l-0.211 0.214z" />
<glyph unicode="&#xe913;" glyph-name="bookmark-solid" d="M258.132 83.2c-10.667-4.906-20.907-4.266-30.507 2.134s-14.507 15.36-14.507 26.666v661.333c0 17.067 6.4 32 19.2 44.8s27.733 19.2 44.8 19.2h469.332c17.069 0 32-6.4 44.8-19.2s19.2-27.733 19.2-44.8v-661.333c0-11.306-4.906-20.266-14.291-26.666-9.6-6.4-19.629-7.040-30.294-2.134l-253.866 108.8-253.868-108.8z" />
<glyph unicode="&#xe914;" glyph-name="book-solid" d="M800 234.666c29.44 0 53.331 23.891 53.331 53.331v533.334c0 29.44-23.891 53.333-53.331 53.333h-501.334c-70.613 0-128-57.387-128-128v-597.333c0-70.614 57.387-128 128-128h501.334c29.44 0 53.331 23.891 53.331 53.334 0 29.44-23.891 53.331-53.331 53.331h-10.669v106.669h10.669zM341.331 618.666h341.334v-42.669h-341.334v42.669zM341.331 533.331h341.334v-42.666h-341.334v42.666zM725.331 127.997h-391.251c-27.947 0-53.334 20.054-56.107 47.789-3.2 32 21.76 58.88 53.118 58.88h394.24v-106.669z" />
<glyph unicode="&#xe915;" glyph-name="campaign-solid" d="M786.666 448.003c0 17.709 14.294 32 32 32h96c17.706 0 32-14.291 32-32 0-17.706-14.294-32-32-32h-96c-17.706 0-32 14.294-32 32zM814.4 125.658l-77.654 57.814c-14.294 10.666-17.066 30.72-6.4 44.8s30.506 17.066 44.8 6.4l77.654-57.814c14.291-10.666 17.066-30.72 6.4-44.8-10.669-14.080-30.509-17.066-44.8-6.4zM733.331 668.804c-10.666 14.080-7.68 34.133 6.4 44.8l74.669 56.32c14.080 10.667 34.346 7.893 44.8-6.4 10.666-14.080 7.68-34.133-6.4-44.8l-74.669-56.32c-14.080-10.667-34.346-7.893-44.8 6.4zM231.999 149.338v170.666h-74.667c-17.707 0-32.853 6.189-45.227 18.774s-18.773 27.52-18.773 45.226v128c0 17.709 6.187 32.854 18.773 45.229 12.587 12.371 27.52 18.771 45.227 18.771h191.999l213.334 128.001v-512.001l-213.334 128h-53.332v-170.666h-64zM605.331 305.072v285.866c19.2-17.066 34.56-37.76 46.294-62.294 11.734-24.531 17.706-51.411 17.706-80.64 0-29.226-5.76-55.891-17.706-80.426-11.734-24.534-27.094-45.226-46.294-62.506z" />
<glyph unicode="&#xe916;" glyph-name="chalkboard-user-solid" d="M853.334 789.336h-512c-47.148 0-85.334-38.187-85.334-85.333v-48c13.653 3.627 27.947 5.547 42.667 5.547 7.253 0 14.293-0.64 21.333-1.493 84.054-10.453 149.334-82.347 149.334-169.173 0-56.96-28.16-107.094-71.040-138.24 10.026-3.2 19.84-7.040 29.226-11.52 31.574-14.934 59.094-36.909 80.214-64h345.386c47.146 0 85.334 38.186 85.334 85.331v341.548c0 47.147-38.189 85.333-85.334 85.333h0.214zM256.001 370.56c13.44-4.694 27.733-7.466 42.667-7.466 7.253 0 14.293 0.851 21.332 1.92 60.589 10.24 106.669 62.72 106.669 126.080s-46.080 115.84-106.669 126.080c-7.039 1.066-14.079 1.92-21.332 1.92-14.933 0-29.227-2.774-42.667-7.469-49.707-17.491-85.333-64.851-85.333-120.531s35.627-103.040 85.333-120.534zM449.494 277.334c-31.36 26.666-72.106 42.666-116.906 42.666h-68.055c-98.987 0-179.2-78.506-179.2-177.494 0-19.84 16-35.84 35.84-35.84h354.986c19.84 0 35.84 16.214 35.84 35.84 0 54.4-24.32 102.4-62.506 134.829z" />
<glyph unicode="&#xe917;" glyph-name="chart-line-up-solid" d="M874.666 789.336h-725.333c-35.413 0-64-28.587-64-64v-404.267l233.387 234.026c12.587 12.589 32.852 12.589 45.227 0l147.2-147.2 189.014 189.014h-101.334c-17.706 0-32 14.294-32 32s14.294 32 32 32h179.414c17.706 0 32-14.293 32-32v-177.706c0-17.709-14.294-32-32-32-17.709 0-32 14.291-32 32v101.331l-212.48-212.48c-12.589-12.586-32.854-12.586-45.229 0l-147.2 147.2-255.999-256.851v-56.534c0-35.414 28.587-64 64-64h725.333c35.414 0 64 28.586 64 64v551.467c0 35.413-28.586 64-64 64z" />
<glyph unicode="&#xe918;" glyph-name="chat-solid" d="M288.001 361.6h270.934c8.534 0 15.786 2.986 21.76 8.96s8.96 13.654 8.96 23.040c0 9.386-2.986 16.854-8.96 23.040s-13.654 9.174-23.040 8.96h-270.934c-8.533 0-15.787-2.986-21.76-8.96s-9.173-13.654-9.173-23.040c0-9.386 2.987-16.854 9.173-23.040 5.973-5.974 13.653-8.96 22.827-8.96h0.213zM288.001 500.266h449.068c8.531 0 15.786 2.989 21.971 8.96 6.189 5.974 8.96 13.654 8.96 23.040 0 9.389-2.986 16.854-8.96 23.040-5.971 5.974-13.651 8.96-23.040 8.96h-449.066c-8.533 0-15.787-2.986-21.76-8.96-5.973-5.971-9.173-13.651-9.173-23.040 0-9.386 2.987-16.851 9.173-23.040 5.973-5.971 13.653-8.96 22.827-8.96zM288.001 638.934h449.068c8.531 0 15.786 2.986 21.971 9.172 5.974 5.973 8.96 13.653 8.96 22.827s-2.986 16.853-8.96 22.827c-5.971 5.973-13.651 9.173-23.040 9.173h-449.066c-8.533 0-15.787-2.987-21.76-9.173-5.973-5.973-9.173-13.653-9.173-22.827s2.987-16.853 9.173-22.827c5.973-5.973 13.653-9.172 22.827-8.961v-0.211zM85.334 98.134v712.532c0 16.427 6.4 31.147 19.2 44.16 12.8 13.227 27.733 19.84 44.8 19.84h725.335c16.426 0 31.146-6.613 44.371-19.84 13.229-13.227 19.629-27.947 19.629-44.16v-554.667c0-16.426-6.614-31.146-19.629-44.374-13.226-13.226-27.946-19.626-44.371-19.626h-618.668l-116.267-116.266c-10.027-10.029-21.547-12.374-34.56-7.040-13.227 5.331-19.84 15.146-19.84 29.44z" />
<glyph unicode="&#xe919;" glyph-name="check-circle-solid" d="M449.069 350.931l-104.534 104.534c-6.4 6.4-14.294 9.6-23.466 9.6-9.175 0-17.068-3.2-23.468-9.6-7.040-7.040-10.667-15.574-10.667-24.96 0-9.6 3.2-17.706 9.6-23.894l130.135-130.131c5.76-5.76 13.226-8.534 22.4-8.534 9.171 0 16.64 2.774 22.4 8.534l256 256c6.4 6.4 9.6 14.291 9.6 23.466s-3.629 17.494-10.669 24.534c-6.4 6.4-14.291 9.6-23.891 9.6s-17.92-3.629-24.96-10.669l-228.48-228.48zM512 21.331c-60.371 0-116.691 10.88-168.531 32.64-51.842 21.76-97.068 51.629-135.468 90.029s-68.48 83.626-90.027 135.466c-21.76 51.84-32.64 108.16-32.64 168.534 0 60.371 10.88 115.626 32.64 167.466s51.84 97.067 90.027 135.467c38.4 38.4 83.627 68.693 135.468 90.667 51.84 21.973 108.16 33.067 168.531 33.067 60.374 0 115.629-11.093 167.469-33.067s97.066-52.267 135.466-90.667c38.4-38.4 68.694-83.627 90.666-135.467 21.974-51.84 33.069-107.734 33.069-167.466 0-59.734-11.094-116.694-33.069-168.534-21.971-51.84-52.266-97.066-90.666-135.466s-83.626-68.48-135.466-90.029c-51.84-21.76-107.734-32.64-167.469-32.64z" />
<glyph unicode="&#xe91a;" glyph-name="chevron-back-solid" d="M667.731 51.2l-374.399 374.4c-3.627 3.626-5.973 7.040-7.467 10.666-1.493 3.629-2.133 7.469-2.133 11.734s0.64 8.106 2.133 11.734c1.493 3.626 3.84 7.040 7.467 10.666l374.399 374.4c7.894 7.893 17.709 11.733 29.869 11.733s21.971-3.84 29.866-11.733c8.534-8.533 12.8-18.773 12.8-30.293s-4.266-21.973-12.8-30.507l-336-336 336-336c8.534-8.534 12.586-18.774 12.374-30.294-0.429-11.731-4.48-21.546-12.374-29.44-8.534-8.531-18.774-12.8-30.294-12.8s-21.546 3.84-29.44 11.734z" />
<glyph unicode="&#xe91b;" glyph-name="chevron-down-solid" d="M511.36 309.974c-4.266 0-8.106 0.64-11.734 2.131-3.626 1.494-7.040 3.84-10.666 7.469l-211.2 211.2c-5.76 5.76-8.32 13.226-8.107 23.040 0.427 9.6 3.413 17.28 9.173 23.040 7.040 7.040 14.72 10.24 22.827 8.96s15.573-4.48 21.762-10.24l187.731-187.734 187.734 187.734c5.76 5.76 13.226 8.96 23.040 9.6 9.6 0.64 17.28-2.56 23.040-9.6 7.040-5.76 10.026-13.229 8.96-22.4-1.066-9.174-4.48-17.069-10.026-23.469l-210.134-210.131c-3.626-3.629-7.040-5.974-10.666-7.469-3.629-1.491-7.469-2.131-11.734-2.131z" />
<glyph unicode="&#xe91c;" glyph-name="chevron-forward-solid" d="M296.32 54.4c-7.893 8.534-11.947 18.56-12.16 29.866-0.427 11.309 3.84 21.334 12.16 29.869l336 336-336 335.999c-7.893 7.893-11.947 17.707-12.16 29.44-0.427 11.733 3.84 21.76 12.16 30.507 7.893 8.533 17.493 13.013 29.44 13.227 11.734 0.427 21.76-3.84 30.506-12.373l374.4-374.399c3.629-3.629 5.974-7.040 7.469-10.669 1.491-3.626 2.131-7.466 2.131-11.731 0-4.269-0.64-8.109-2.131-11.734-1.494-3.626-3.84-7.040-7.469-10.666l-374.4-374.4c-7.891-7.894-17.491-11.734-29.44-11.734-11.946 0-21.972 4.266-30.506 12.8z" />
<glyph unicode="&#xe91d;" glyph-name="chevron-left-solid" d="M594.134 213.76l-211.2 211.2c-3.626 3.626-5.974 7.040-7.466 10.666-1.494 3.629-2.134 7.469-2.134 11.734s0.64 8.106 2.134 11.734c1.491 3.626 3.84 7.040 7.466 10.666l212.266 212.267c6.4 6.4 14.080 9.6 23.040 9.6s16.429-3.2 23.040-9.6c6.4-6.4 9.389-14.293 8.96-23.467-0.426-9.173-3.626-17.067-10.24-23.466l-187.731-187.734 188.8-188.8c6.4-6.4 9.6-13.866 9.6-22.4s-3.2-16-9.6-22.4c-6.4-6.4-14.294-9.6-23.469-9.6-9.171 0-17.066 3.2-23.466 9.6z" />
<glyph unicode="&#xe91e;" glyph-name="chevron-right-solid" d="M429.869 682.24l211.2-211.2c3.626-3.626 5.971-7.040 7.466-10.666 1.494-3.629 2.134-7.469 2.134-11.734s-0.64-8.106-2.134-11.734c-1.494-3.626-3.84-7.040-7.466-10.666l-212.269-212.266c-6.4-6.4-14.080-9.6-23.040-9.6s-16.426 3.2-23.040 9.6c-6.4 6.4-9.386 14.291-8.96 23.466 0.429 9.174 3.629 17.066 10.24 23.466l187.734 187.734-188.8 188.8c-6.4 6.4-9.6 13.867-9.6 22.4s3.2 16 9.6 22.4c6.4 6.4 14.294 9.6 23.466 9.6 9.174 0 17.069-3.2 23.469-9.6z" />
<glyph unicode="&#xe91f;" glyph-name="chevron-up-solid" d="M279.468 327.466c-6.4 6.4-9.813 13.869-10.24 22.4-0.427 8.534 2.56 16 9.173 22.4l211.199 211.2c3.629 3.629 7.040 5.974 10.669 7.469 3.626 1.491 7.466 2.131 11.731 2.131 4.269 0 8.109-0.64 11.734-2.131 3.626-1.494 7.040-3.84 10.666-7.469l211.2-210.131c6.4-5.76 9.6-13.014 9.6-21.76 0-8.749-3.2-16.64-9.6-23.040s-14.080-9.6-23.040-9.6c-8.96 0-16.64 3.2-22.826 9.6l-187.734 186.666-187.731-188.8c-5.761-6.4-13.015-9.386-21.761-8.96-8.96 0.426-16.427 3.84-22.827 10.24l-0.213-0.214z" />
<glyph unicode="&#xe920;" glyph-name="cloud-solid" d="M267.733 107.302c-62.507 0-115.84 21.76-159.36 65.709-43.733 43.731-65.707 96.851-65.707 159.36 0 55.466 17.707 104.106 53.333 146.131 35.627 42.029 80.64 67.2 135.467 75.734 14.293 68.906 47.573 125.44 100.265 169.174 52.694 43.733 113.494 65.707 182.4 65.707 79.574 0 146.774-29.013 201.6-86.827 54.829-58.027 82.134-127.574 82.134-208.428v-25.6c51.2 1.494 94.506-15.146 130.134-49.706 35.626-34.56 53.331-78.080 53.331-130.56 0-49.066-17.706-91.306-53.331-126.934-35.629-35.626-77.869-53.331-126.934-53.331l-533.333-0.429z" />
<glyph unicode="&#xe921;" glyph-name="construction-solid" d="M794.666 85.546l-237.866 236.8 60.8 60.8 237.866-237.866c8.534-8.534 12.8-18.56 12.8-29.869 0-11.306-4.266-21.331-12.8-29.866-8.531-8.534-18.56-12.8-30.291-12.8-11.734 0-21.974 4.266-30.294 12.8h-0.214zM174.933 85.546c-8.533 8.534-12.8 18.774-12.8 30.294s4.267 21.76 12.8 30.291l278.402 278.4-114.134 114.134-2.134-2.134c-6.4-6.4-13.866-9.6-22.399-9.6s-16 3.2-22.4 9.6l-24.533 24.534v-90.666l-8.533-8.534c-4.907-4.906-10.667-7.466-17.067-7.466s-12.16 2.56-17.067 7.466l-96 96c-4.907 4.906-7.467 10.666-7.467 17.066s2.56 12.16 7.467 17.069l8.533 8.531h91.733l-28.8 28.8c-6.4 6.4-9.6 13.868-9.6 22.401s3.2 16 9.6 22.4l117.333 117.333c12.159 12.16 25.174 20.267 39.468 24.533 14.291 4.267 29.866 6.4 46.931 6.4 17.069 0 32.64-2.987 46.934-9.173 14.294-5.973 27.306-15.147 39.466-27.307l-114.131-114.133 28.8-28.8c6.4-6.4 9.6-13.866 9.6-22.4s-3.2-16-9.6-22.4l-3.2-3.2 110.931-110.934 130.134 130.134c-5.76 9.174-10.24 19.84-13.226 32-3.2 12.16-4.909 24.96-4.909 38.4 0 37.76 13.654 70.187 40.96 97.493 27.309 27.307 59.949 40.96 97.494 40.96 10.666 0 19.84-1.067 27.306-3.2 7.469-2.133 13.654-4.907 18.774-8.533l-90.666-90.667 80-80 90.666 90.667c3.626-5.76 6.614-12.587 8.96-20.907 2.56-8.107 3.626-17.493 3.626-28.16 0-37.76-13.651-70.188-40.96-97.493-27.306-27.306-59.946-40.96-97.706-40.96-12.8 0-23.894 0.854-33.066 2.56-9.174 1.706-17.709 4.48-25.6 8.106l-470.188-469.971c-8.533-8.534-18.56-12.589-29.867-12.374-11.307 0.426-21.333 4.906-29.867 13.226v0.214z" />
<glyph unicode="&#xe922;" glyph-name="contact-mail-solid" d="M64 64.64c-17.067 0-32.213 6.614-45.013 19.414s-18.987 27.52-18.987 44.586v640.001c0 17.067 6.4 32 19.2 44.8s27.733 19.2 44.8 19.2l896-0.64c17.066 0 32-6.4 44.8-19.2s19.2-27.733 19.2-44.8v-640.001c0-17.066-6.4-32-19.2-44.8s-27.734-19.2-44.8-19.2l-896 0.64zM350.934 373.334c35.626 0 65.491 12.16 89.6 36.266 24.106 24.109 36.266 53.974 36.266 89.6 0 35.629-12.16 65.494-36.266 89.6-24.109 24.109-53.974 36.269-89.6 36.269-35.628 0-65.494-12.16-89.601-36.269-24.107-24.106-36.267-53.971-36.267-89.6 0-35.626 12.16-65.491 36.267-89.6 24.107-24.106 53.973-36.266 89.601-36.266zM631.466 494.934h221.869c9.171 0 16.851 2.986 23.040 8.96 6.186 5.974 8.96 13.654 8.96 23.040v134.4c0 9.173-2.989 16.853-8.96 22.827-5.974 5.973-13.654 9.173-23.040 9.173h-221.869c-9.171 0-16.851-2.987-23.040-9.173-5.971-5.973-8.96-13.653-8.96-22.827v-134.4c0-9.174 2.989-16.854 8.96-23.040 5.974-5.974 13.654-8.96 23.040-8.96zM73.6 128h554.666c-32 52.694-71.891 92.374-119.891 119.469-48 27.091-100.48 40.531-157.44 40.531s-109.441-13.44-157.868-40.531c-48.427-27.094-88.107-66.774-119.467-119.469zM743.466 534.4l-112 84.269v42.665l110.934-84.265 110.934 84.265v-42.665l-109.869-84.269z" />
<glyph unicode="&#xe923;" glyph-name="contact-phone-solid" d="M960 832h-896c-35.413 0-64-28.587-64-64v-640c0-35.414 28.587-64 64-64h896c35.414 0 64 28.586 64 64v640c0 35.413-28.586 64-64 64zM260.907 581.334c24.96 24.96 55.040 37.331 90.668 37.331 35.626 0 65.706-12.371 90.666-37.331s37.334-55.040 37.334-90.669c0-35.626-12.374-65.706-37.334-90.666s-55.040-37.334-90.666-37.334c-35.628 0-65.708 12.374-90.668 37.334s-37.333 55.040-37.333 90.666c0 35.629 12.373 65.709 37.333 90.669zM71.040 128c31.36 49.066 71.68 87.894 120.96 116.266 49.493 28.374 102.613 42.669 159.574 42.669s110.506-14.294 158.931-42.669c48.429-28.371 88.534-67.2 120.534-116.266h-560zM740.48 396.16c2.56-15.36 7.040-31.786 13.226-49.494h57.6c5.76 0 10.88-1.066 15.36-3.2 4.694-2.131 8.32-5.76 11.309-10.666l35.2-50.134c4.906-6.4 7.040-13.44 6.4-21.331-0.64-7.894-3.84-14.509-9.6-20.269l-42.669-42.666c-5.76-5.76-12.586-8.746-20.906-9.174-8.106-0.426-15.146 2.349-20.694 8.109-32.64 32-58.026 69.76-75.731 113.066-17.709 43.306-26.669 88.96-26.669 136.534 0 47.571 8.96 93.226 26.669 136.531 17.706 43.309 43.091 81.068 75.731 113.068 5.76 5.76 12.589 8.32 20.694 8.107 8.106-0.427 15.146-3.413 20.906-9.173l42.669-42.667c5.76-5.76 8.96-12.373 9.6-20.266s-1.494-14.934-6.4-21.334l-35.2-50.134c-2.774-4.906-6.614-8.531-11.309-10.666-4.691-2.134-9.811-3.2-15.36-3.2h-57.6c-6.4-18.56-10.88-35.2-13.226-50.134-2.56-14.931-3.626-31.571-3.626-50.131s1.28-35.414 3.626-50.774z" />
<glyph unicode="&#xe924;" glyph-name="contact-support-solid" d="M570.669 21.331l-10.669 117.334h-42.666c-101.76 0-188.374 35.84-260.267 107.734-71.893 71.891-107.733 158.506-107.733 260.266s36.053 188.374 108.16 260.267c72.106 71.893 159.575 107.733 261.975 107.733 50.56 0 97.28-8.96 140.16-27.307 43.091-18.133 80.64-43.52 112.64-76.373 32-32.64 56.96-71.253 75.306-115.84 18.134-44.375 27.306-93.015 27.094-145.495 0-95.36-26.88-187.091-80.64-275.84-53.76-88.531-128.214-159.36-223.36-212.691v0.211zM519.469 259.2c11.306 0 20.906 3.84 28.8 11.731 7.891 7.894 11.731 17.494 11.731 28.8 0 11.309-3.84 20.909-11.731 28.8-7.894 7.894-17.494 11.734-28.8 11.734-11.309 0-20.909-3.84-28.8-11.734-7.894-7.891-11.734-17.491-11.734-28.8 0-11.306 3.84-20.906 11.734-28.8 7.891-7.891 17.491-11.731 28.8-11.731zM517.334 404.266c7.040 0 13.226 2.56 18.774 7.466 5.546 4.909 8.746 11.309 10.24 19.2 2.131 10.029 6.611 19.629 13.226 28.8 6.826 9.174 17.28 20.909 31.574 35.2 19.2 19.2 32.64 36.909 40.531 52.909 7.894 16 11.734 33.28 11.734 51.626 0 32-10.88 58.24-32.426 78.934-21.76 20.693-50.774 30.933-87.040 30.933-24.96 0-47.789-5.547-68.909-16.427-20.906-11.093-37.76-26.453-50.56-46.507-4.266-6.399-4.906-13.014-2.131-19.839 2.771-6.829 8.106-11.949 16-15.574 5.76-2.134 11.731-2.134 18.131 0s11.734 5.974 16 11.734c7.894 11.306 17.494 19.839 29.44 25.173 11.734 5.333 24.749 8.107 39.040 8.107 21.334 0 37.974-5.12 50.134-15.573 12.16-10.24 18.134-23.895 18.134-40.96 0-13.44-3.84-27.306-11.734-40.96-7.894-13.866-21.76-31.146-41.6-51.626-14.934-15.574-25.6-28.589-32-39.040-6.4-10.24-10.24-22.614-11.734-36.909-0.64-7.040 1.494-13.226 6.4-18.771 4.909-5.334 11.309-7.894 19.2-8.109l-0.426 0.214z" />
<glyph unicode="&#xe925;" glyph-name="corporate-solid" d="M864 874.666h-704c-17.707 0-32-14.293-32-32s14.293-32 32-32h32v-789.335h192v112c0 17.709 14.294 32 32 32h192c17.706 0 32-14.291 32-32v-112h192v789.335h32c17.706 0 32 14.293 32 32s-14.294 32-32 32zM384 266.026c0-17.706-14.294-32-32-32h-64c-17.707 0-32 14.294-32 32v64c0 17.706 14.293 32 32 32h64c17.706 0 32-14.294 32-32v-64zM384 458.24c0-17.709-14.294-32-32-32h-64c-17.707 0-32 14.291-32 32v64c0 17.706 14.293 32 32 32h64c17.706 0 32-14.294 32-32v-64zM384 650.453c0-17.707-14.294-32.002-32-32.002h-64c-17.707 0-32 14.294-32 32.002v64c0 17.707 14.293 32 32 32h64c17.706 0 32-14.293 32-32v-64zM576 266.026c0-17.706-14.294-32-32-32h-64c-17.706 0-32 14.294-32 32v64c0 17.706 14.294 32 32 32h64c17.706 0 32-14.294 32-32v-64zM576 458.24c0-17.709-14.294-32-32-32h-64c-17.706 0-32 14.291-32 32v64c0 17.706 14.294 32 32 32h64c17.706 0 32-14.294 32-32v-64zM576 650.453c0-17.707-14.294-32.002-32-32.002h-64c-17.706 0-32 14.294-32 32.002v64c0 17.707 14.294 32 32 32h64c17.706 0 32-14.293 32-32v-64zM768 266.451c0-17.706-14.294-32-32-32h-64c-17.706 0-32 14.294-32 32v64c0 17.709 14.294 32 32 32h64c17.706 0 32-14.291 32-32v-64zM768 458.24c0-17.709-14.294-32-32-32h-64c-17.706 0-32 14.291-32 32v64c0 17.706 14.294 32 32 32h64c17.706 0 32-14.294 32-32v-64zM768 650.879c0-17.708-14.294-31.999-32-31.999h-64c-17.706 0-32 14.291-32 31.999v64c0 17.707 14.294 32 32 32h64c17.706 0 32-14.293 32-32v-64z" />
<glyph unicode="&#xe926;" glyph-name="credit-card-solid" d="M149.334 106.669c-17.067 0-32 6.4-44.8 19.2s-19.2 27.734-19.2 44.8v554.667c0 17.067 6.4 32 19.2 44.8s27.733 19.2 44.8 19.2h725.335c17.066 0 32-6.4 44.8-19.2s19.2-27.733 19.2-44.8v-554.667c0-17.066-6.4-32-19.2-44.8s-27.734-19.2-44.8-19.2h-725.335zM149.334 471.469h725.335v137.6h-725.335v-137.6z" />
<glyph unicode="&#xe927;" glyph-name="cube-solid" d="M161.279 635.571l340.267-196.691c6.614-3.84 14.72-3.84 21.334 0l341.546 196.691c14.080 8.109 14.294 28.589 0 36.909l-307.414 179.84c-26.451 15.573-59.306 15.573-85.971 0l-309.974-179.84c-14.080-8.32-14.080-28.8 0-36.909h0.213zM160.853 569.008l308.267-173.011c6.826-3.84 10.88-10.88 10.88-18.56v-330.029c0-16.426-17.706-26.666-32-18.56l-309.333 178.349c-6.613 3.84-10.667 10.88-10.667 18.56l0.853 324.48c0 16.211 17.493 26.451 31.787 18.56l0.213 0.211zM864.426 565.392l-309.12-165.76c-6.826-3.626-11.306-10.88-11.306-18.774v-333.226c0-16.426 17.706-26.666 32-18.56l307.84 178.346c6.614 3.84 10.666 10.88 10.666 18.349l1.28 320.64c0 16.211-17.066 26.451-31.36 18.986z" />
<glyph unicode="&#xe928;" glyph-name="description-solid" d="M372.266 202.666h279.466c9.174 0 16.854 2.986 23.040 8.96 5.974 5.974 9.174 13.654 9.174 23.040s-2.986 16.854-8.96 23.040c-5.974 5.974-13.654 8.96-23.040 8.96h-279.466c-9.174 0-16.854-2.986-23.040-8.96-6.189-5.974-9.174-13.654-9.174-23.040s2.986-16.854 9.174-23.040c6.186-6.186 13.651-8.96 22.826-8.96zM372.266 384h279.466c9.174 0 16.854 2.986 23.040 8.96 5.974 5.971 9.174 13.651 9.174 23.040 0 9.386-2.986 16.851-8.96 23.040-5.974 5.971-13.654 8.96-23.040 8.96h-279.466c-9.174 0-16.854-2.989-23.040-8.96-5.974-5.974-9.174-13.654-9.174-23.040 0-9.389 2.986-16.854 9.174-23.040 5.971-5.974 13.651-8.96 23.040-8.96h-0.214zM234.666 21.331c-17.067 0-32 6.4-44.8 19.2s-19.2 27.734-19.2 44.8v725.335c0 17.067 6.4 32 19.2 44.8s27.733 19.2 44.8 19.2h358.4c8.534 0 16.854-1.707 24.96-5.333s15.146-8.107 20.906-13.867l195.2-195.2c5.76-5.76 10.24-12.587 13.869-20.906 3.626-8.109 5.331-16.64 5.331-25.174v-529.066c0-17.069-6.4-32-19.2-44.8s-27.731-19.2-44.8-19.2l-554.665 0.211zM587.731 644.266c0-9.175 2.989-16.855 8.96-22.826 5.974-5.974 13.654-9.174 23.040-9.174h169.6l-201.6 198.4v-166.4z" />
<glyph unicode="&#xe929;" glyph-name="directions-car-solid" d="M213.333 196.269v-57.6c0-9.174-2.987-16.854-9.173-23.040-5.973-5.974-13.653-8.96-22.827-8.96h-21.333c-9.173 0-16.853 2.986-22.827 8.96s-9.173 13.654-9.173 23.040v345.6l90.667 273.067c3.627 10.027 9.387 17.707 17.493 23.467s17.493 8.533 28.16 8.533h494.934c10.666 0 20.051-2.773 28.371-8.533 8.109-5.76 14.080-13.44 17.709-23.467l90.666-273.067v-345.6c0-9.174-2.986-16.854-8.96-23.040s-13.654-8.96-23.040-8.96h-22.4c-9.174 0-16.854 2.986-23.040 8.96s-8.96 13.654-8.96 23.040v57.6h-596.267zM216.533 548.269h590.932l-58.666 177.067h-473.6l-58.667-177.067zM305.067 313.603c16.428 0 30.079 5.76 40.959 17.066 11.094 11.306 16.429 24.96 16.429 40.534 0 15.571-5.549 30.291-16.429 42.24-11.091 11.731-24.746 17.706-41.172 17.706s-30.507-5.76-42.24-17.706c-11.733-11.734-17.707-25.814-17.493-42.24 0-16.429 5.76-30.080 17.493-40.96 11.733-11.094 25.813-16.429 42.24-16.429l0.213-0.211zM720 313.603c16.426 0 30.294 5.76 42.026 17.066 11.734 11.306 17.709 24.96 17.709 40.534 0 15.571-5.974 30.291-17.709 42.24-11.731 11.731-25.811 17.706-42.026 17.706-16.426 0-30.080-5.76-40.96-17.706-11.094-11.734-16.426-25.814-16.426-42.24 0-16.429 5.76-30.080 17.066-40.96 11.306-11.094 24.96-16.429 40.534-16.429l-0.214-0.211z" />
<glyph unicode="&#xe92a;" glyph-name="door-open-solid" d="M864 133.331h-54.186v541.866c0 39.467-32 71.467-71.469 71.467h-99.2v19.413c0 41.173-38.4 71.68-78.72 62.293l-298.666-70.187c-29.013-6.827-49.28-32.64-49.28-62.293v-562.559h-52.48c-17.707 0-32-14.294-32-32s14.293-32 32-32h704c17.706 0 32 14.294 32 32s-14.294 32-32 32zM511.574 378.666c-17.709 0-32 14.291-32 32 0 17.706 14.291 32 32 32 17.706 0 32-14.294 32-32 0-17.709-14.294-32-32-32zM738.346 675.197v-534.186h-99.2v534.186h99.2z" />
<glyph unicode="&#xe92b;" glyph-name="draft-solid" d="M234.666 21.331c-17.067 0-32 6.4-44.8 19.2s-19.2 27.734-19.2 44.8v725.335c0 17.067 6.4 32 19.2 44.8s27.733 19.2 44.8 19.2h358.4c8.534 0 16.854-1.707 24.96-5.333s15.146-8.107 20.906-13.867l195.2-195.2c5.76-5.76 10.24-12.587 13.869-20.906 3.626-8.109 5.331-16.64 5.331-25.174v-529.066c0-17.069-6.4-32-19.2-44.8s-27.731-19.2-44.8-19.2l-554.665 0.211zM587.731 644.266c0-9.175 2.989-16.855 8.96-22.826 5.974-5.974 13.654-9.174 23.040-9.174h169.6l-201.6 198.4v-166.4z" />
<glyph unicode="&#xe92c;" glyph-name="drafts-solid" d="M910.509 609.92l-6.189 3.626-360.32 207.787c-19.84 11.52-44.16 11.52-64 0l-366.506-211.413c-17.067-11.52-28.16-30.934-28.16-53.12v-426.669c0-26.451 16-49.28 39.040-58.88 7.68-3.411 16-5.12 24.96-5.12h725.335c6.611 0 12.8 1.069 18.771 2.989h0.214c26.24 7.891 45.014 32.211 45.014 61.011v426.669c0 22.186-11.094 41.6-28.16 53.12zM480 363.731l-330.666 190.934 346.666 200.107c9.814 5.76 22.189 5.76 32 0l346.669-200.107-330.669-190.934c-19.84-11.52-44.16-11.52-64 0z" />
<glyph unicode="&#xe92d;" glyph-name="eco-solid" d="M496.426 84.266c-29.866 0-57.811 2.774-83.626 8.534-26.026 5.76-49.92 14.294-72.106 25.6 22.826 84.694 53.76 166.614 93.44 245.76s92.586 145.706 159.571 198.826c-79.571-38.4-148.906-91.731-207.571-160-58.669-68.266-98.561-145.706-120.108-232.531-2.773 2.771-5.547 5.331-8.107 7.466s-5.12 4.694-8.107 7.466c-32 32-56.533 68.694-73.6 109.869-17.067 41.171-25.6 84.691-25.6 130.131 0 49.069 9.173 96.429 27.733 141.869s45.227 85.758 80 120.532c54.827 56.107 125.868 92.587 213.333 109.227s218.24 18.987 392.534 6.827c13.44-169.174 11.52-299.094-5.974-389.334s-54.614-163.84-111.36-220.8c-34.134-35.626-72.96-62.72-116.266-81.706-43.309-18.774-88.109-28.374-134.4-28.374l0.211 0.64z" />
<glyph unicode="&#xe92e;" glyph-name="email-content-solid" d="M910.509 609.706l-6.189 3.626-50.986 29.441v35.413c0 37.76-30.72 68.48-68.48 68.48h-111.574l-129.28 74.667c-19.84 11.307-44.16 11.307-64 0l-129.28-74.667h-111.573c-37.76 0-68.48-30.72-68.48-68.48v-35.413l-57.173-33.067c-17.067-11.52-28.16-30.934-28.16-53.12v-426.666c0-26.454 16-49.28 39.040-58.88 7.68-3.414 16-5.12 24.96-5.12h725.335c6.611 0 12.8 1.066 18.771 2.986h0.214c26.24 7.894 45.014 32.214 45.014 61.014v426.666c0 22.186-11.094 41.6-28.16 53.12zM874.454 554.451l-330.454-190.72c-19.84-11.52-44.16-11.52-64 0l-4.906 2.774-325.76 187.946 21.333 12.374 10.453 6.186h0.213l53.333-30.931v136.106c0 0 0.213 1.067 0.427 1.707 0.64 1.493 2.347 2.773 4.053 2.773h545.707c1.706 0 3.414-1.28 4.054-2.773 0-0.64 0.426-1.067 0.426-1.707v-135.895l53.334 30.72 10.666-6.186 21.334-12.16h-0.214v-0.214zM694.4 617.597h-364.8c-9.171 0-16.852-2.986-23.038-9.171-5.973-5.974-8.96-13.654-8.96-22.829 0-9.171 2.987-16.851 8.96-22.826s13.653-9.174 23.038-9.174h364.8c9.174 0 16.854 2.989 23.040 9.174 6.189 6.186 8.96 13.654 8.96 22.826 0 9.174-2.986 16.854-8.96 22.829-5.971 5.971-13.651 9.171-23.040 9.171z" />
<glyph unicode="&#xe92f;" glyph-name="emergency-home-solid" d="M556.8 30.506c-5.76-5.76-12.371-10.24-20.266-13.229-7.894-3.2-16-4.691-24.534-4.691-8.531 0-16.64 1.491-24.531 4.691-7.894 3.2-14.509 7.68-20.269 13.229l-373.332 373.12c-5.76 5.76-10.027 12.371-12.8 20.266s-4.267 16-4.267 24.534c0 8.531 1.493 16.64 4.267 24.531 2.773 7.894 7.040 14.509 12.8 20.269l373.332 373.333c5.76 5.76 12.374 10.027 20.269 12.8 7.891 2.773 16 4.267 24.531 4.267 8.534 0 16.64-1.493 24.534-4.267s14.506-7.040 20.266-12.8l373.334-373.333c5.76-5.76 10.026-12.374 12.8-20.269 2.774-7.891 4.266-16 4.266-24.531 0-8.534-1.491-16.64-4.266-24.534s-7.040-14.506-12.8-20.266l-373.334-373.12zM512 405.971c9.174 0 16.854 2.986 23.040 8.96 5.974 5.974 8.96 13.654 8.96 23.040v192c0 9.174-2.986 16.854-8.96 22.827-5.971 5.973-13.651 9.173-23.040 9.173-9.386 0-16.851-2.987-23.040-9.173-5.971-5.973-8.96-13.653-8.96-22.827v-192c0-9.174 2.989-16.854 8.96-23.040 5.974-5.974 13.654-8.96 23.040-8.96zM512 288.637c8.534 0 16 3.2 22.4 9.6s9.6 13.869 9.6 22.4c0 8.534-3.2 16-9.6 22.4s-13.866 9.6-22.4 9.6c-8.531 0-16-3.2-22.4-9.6s-9.6-13.866-9.6-22.4c0-8.531 3.2-16 9.6-22.4s13.869-9.6 22.4-9.6z" />
<glyph unicode="&#xe930;" glyph-name="event-solid" d="M636.8 167.68c-29.226 0-53.76 10.026-73.6 29.866s-29.866 44.374-29.866 73.6c0 29.229 10.026 53.76 29.866 73.6s44.374 29.869 73.6 29.869c29.226 0 53.76-10.029 73.6-29.869s29.866-44.371 29.866-73.6c0-29.226-10.026-53.76-29.866-73.6s-44.374-29.866-73.6-29.866zM192 18.346c-17.067 0-32 6.4-44.8 19.2s-19.2 27.734-19.2 44.8v661.334c0 17.067 6.4 32 19.2 44.8s27.733 19.2 44.8 19.2h69.333v29.44c0 19.2 15.573 34.56 34.56 34.56 19.2 0 34.561-15.573 34.561-34.56v-29.44h362.666v29.44c0 19.2 15.574 34.56 34.56 34.56 19.2 0 34.56-15.573 34.56-34.56v-29.44h69.334c17.066 0 32-6.4 44.8-19.2s19.2-27.733 19.2-44.8v-661.334c0-17.066-6.4-32-19.2-44.8s-27.734-19.2-44.8-19.2h-639.574zM192 82.346h640v458.669h-640v-458.669z" />
<glyph unicode="&#xe931;" glyph-name="facebook-solid" d="M938.669 448c0 235.735-190.934 426.668-426.669 426.668-235.733 0-426.666-190.933-426.666-426.668 0-212.906 155.947-389.546 360.106-421.546v298.24h-108.371v123.306h108.371v94.080c0 106.881 63.789 165.975 161.069 165.975 46.72 0 95.571-8.32 95.571-8.32v-104.96h-53.76c-52.906 0-69.546-32.854-69.546-66.56v-80h118.4l-18.986-123.306h-99.414v-298.24c203.946 32 360.106 208.426 360.106 421.546l-0.211-0.214z" />
<glyph unicode="&#xe932;" glyph-name="face-retouching-natural-solid" d="M476.374-12.157c-59.734 0-115.629 11.091-167.467 33.066-51.84 21.974-97.067 52.266-135.467 90.666s-68.693 83.629-90.667 135.469c-21.973 51.84-33.067 107.731-33.067 167.466s11.093 115.626 33.067 167.466c21.973 51.84 52.267 97.067 90.667 135.467s83.627 68.693 135.467 90.667c51.838 21.973 107.733 33.067 167.467 33.067 29.866 0 57.386-2.56 82.771-7.467 25.174-4.907 55.68-14.293 91.309-27.733l-118.4-51.2 201.6-85.333 67.2-155.733c-94.509-12.16-176.854-3.2-247.040 26.666-69.974 29.869-130.349 74.029-180.909 132.267-24.106-57.598-58.879-107.947-104.105-150.827-45.227-43.091-96.853-76.371-155.093-99.84 0-103.040 35.2-190.506 105.6-262.4 70.4-71.891 156.159-107.731 257.068-107.731 100.906 0 187.52 35.411 257.706 106.026 69.974 70.826 104.96 156.374 104.96 256.64 0 15.574-0.854 29.654-2.56 42.24l-4.694 33.706 38.4 90.669c11.309-30.509 19.629-58.029 24.96-82.134 5.334-24.106 8.109-52.266 8.109-84.266 0-59.094-11.094-114.56-33.069-166.4-21.971-51.84-52.266-97.069-90.666-135.469s-83.626-68.906-135.466-91.306c-51.84-22.4-107.734-33.706-167.469-33.706h-0.211zM341.974 311.043c-16.429 0-30.081 5.546-41.174 16.426-11.093 11.094-16.64 24.746-16.64 41.174 0 16.426 5.547 30.080 16.427 40.96 11.093 11.091 24.748 16.426 40.959 16.426 16.429 0 30.080-5.546 40.96-16.426s16.429-24.749 16.429-40.96c0-16.214-5.549-30.080-16.429-40.96s-24.746-16.429-40.96-16.64h0.429zM611.84 311.043c-16.426 0-30.080 5.546-40.96 16.426s-16.426 24.746-16.426 40.96c0 16.214 5.546 30.080 16.426 40.96s24.746 16.426 40.96 16.426c16.214 0 30.080-5.546 41.174-16.426 11.091-11.094 16.64-24.746 16.64-40.96s-5.549-30.080-16.64-40.96c-11.094-11.094-24.749-16.426-41.174-16.426zM821.974 602.243l-48 108.798-105.6 44.8 105.6 43.733 48 108.8 46.931-108.8 105.6-43.733-105.6-44.8-46.931-108.798z" />
<glyph unicode="&#xe933;" glyph-name="fact-check-solid" d="M256.001 586.666h127.999c9.174 0 16.854 2.989 23.040 8.96 5.974 5.974 8.96 13.654 8.96 23.040 0 9.389-2.986 16.854-8.96 22.828-5.971 5.973-13.651 9.173-23.040 9.173h-127.999c-9.173 0-16.853-2.987-22.827-9.173-5.973-5.973-9.173-13.653-9.173-22.828 0-9.171 2.987-16.851 9.173-23.040 5.973-5.971 13.653-8.96 22.827-8.96zM256.001 416h127.999c9.174 0 16.854 2.986 23.040 8.96 5.974 5.974 8.96 13.654 8.96 23.040s-2.986 16.854-8.96 23.040c-5.971 5.974-13.651 8.96-23.040 8.96h-127.999c-9.173 0-16.853-2.986-22.827-8.96s-9.173-13.654-9.173-23.040c0-9.386 2.987-16.854 9.173-23.040 5.973-5.974 13.653-8.96 22.827-8.96zM256.001 245.334h127.999c9.174 0 16.854 2.986 23.040 8.96 5.974 5.971 8.96 13.651 8.96 23.040 0 9.386-2.986 16.851-8.96 23.040-5.971 5.971-13.651 8.96-23.040 8.96h-127.999c-9.173 0-16.853-2.989-22.827-8.96-5.973-5.974-9.173-13.654-9.173-23.040 0-9.389 2.987-16.854 9.173-23.040 5.973-5.974 13.653-8.96 22.827-8.96zM620.8 343.466c2.774 0 5.549 0.429 8.109 1.709 2.56 1.066 4.691 2.771 7.040 4.906l157.866 158.934c7.040 7.040 10.88 14.506 11.306 22.4 0.429 7.891-2.986 15.36-10.026 22.4-6.4 6.4-14.080 9.6-23.040 9.6s-16.426-3.2-23.040-9.6l-128-128-38.4 37.331c-6.4 6.4-13.866 9.6-22.4 9.6s-16-3.2-22.4-9.6c-6.4-6.4-9.6-13.866-9.6-22.4 0-8.531 3.2-16 9.6-22.4l68.266-68.266c2.134-2.134 4.48-3.84 7.040-4.906 2.56-1.069 5.12-1.709 7.894-1.709h-0.214zM140.801 64c-17.067 0-32 6.4-44.8 19.2s-19.2 27.734-19.2 44.8v640c0 17.067 6.4 32 19.2 44.8s27.733 19.2 44.8 19.2h742.399c17.069 0 32-6.4 44.8-19.2s19.2-27.733 19.2-44.8v-640c0-17.066-6.4-32-19.2-44.8s-27.731-19.2-44.8-19.2h-742.399z" />
<glyph unicode="&#xe934;" glyph-name="falabevi-solid" d="M512 875.091c-212.053 0-384.213-171.947-384.213-384s171.947-384.214 384.213-384.214v-85.971c206.294 41.811 364.374 216.106 382.080 430.291 1.28 13.229 2.134 26.454 2.134 39.894 0 212.053-171.949 384.213-384.214 384.213v-0.213zM512 277.117c-117.76 0-213.333 95.574-213.333 213.334h426.667c0-117.76-95.574-213.334-213.334-213.334z" />
<glyph unicode="&#xe935;" glyph-name="feed-solid" d="M192 64c-17.067 0-32 6.4-44.8 19.2s-19.2 27.734-19.2 44.8v640c0 17.067 6.4 32 19.2 44.8s27.733 19.2 44.8 19.2h492.8l211.2-211.2v-492.8c0-17.066-6.4-32-19.2-44.8s-27.734-19.2-44.8-19.2h-640zM329.6 246.4h364.8c9.174 0 16.854 2.986 23.040 8.96s8.96 13.654 8.96 23.040c0 9.386-2.986 16.854-8.96 23.040-5.974 5.974-13.654 8.96-23.040 8.96h-364.8c-9.174 0-16.853-2.986-22.827-8.96s-8.96-13.654-9.173-23.040c0-9.174 2.987-16.854 9.173-23.040 5.973-5.974 13.652-8.96 23.041-8.96h-0.214zM329.6 585.6h150.4c9.174 0 16.854 2.986 23.040 8.96 5.974 5.974 8.96 13.654 8.96 23.040s-2.986 16.854-8.96 22.827c-5.974 5.973-13.654 9.173-23.040 9.173h-150.4c-9.174 0-16.853-2.987-22.827-9.173-5.973-5.972-9.173-13.652-9.173-22.827s2.987-16.854 9.173-23.040c5.973-5.974 13.652-8.96 22.827-9.174v0.214zM329.6 416h364.8c9.174 0 16.854 2.986 23.040 8.96 5.974 5.974 8.96 13.654 8.96 23.040s-2.986 16.854-8.96 23.040c-5.974 5.974-13.654 8.96-23.040 8.96h-364.8c-9.174 0-16.853-2.986-22.827-8.96s-8.96-13.654-9.173-23.040c0-9.174 2.987-16.854 9.173-23.040 5.973-5.974 13.652-8.96 23.041-8.96h-0.214zM681.6 585.6h150.4l-182.4 182.4v-150.4c0-9.174 2.986-16.854 8.96-23.040 5.974-5.974 13.654-8.96 23.040-8.96z" />
<glyph unicode="&#xe936;" glyph-name="fgts-solid" d="M281.6 678.4h542.934c39.466 0 71.466 32 71.466 71.467v82.133h-768v-768h82.133c39.467 0 71.467 32 71.467 71.466v542.934zM588.8 603.523c-128.214 0-232.32-103.894-232.32-232.32 0-53.12 18.134-101.974 48-141.014l325.334 325.334c-39.040 30.080-87.894 48-141.014 48z" />
<glyph unicode="&#xe937;" glyph-name="groups-solid" d="M32 192c-9.173 0-16.853 2.986-23.040 8.96-5.973 5.974-8.96 13.654-8.96 23.040v24.534c0 27.731 14.72 50.131 44.373 67.2 29.44 17.066 68.053 25.6 115.627 25.6 8.533 0 16.853 0 25.173-0.429 8.32-0.426 16.213-1.28 23.893-2.56-5.76-12.16-10.027-24.531-12.8-37.331s-4.267-26.24-4.267-40.534v-68.266h-160v-0.214zM288 192c-9.173 0-16.853 2.986-22.827 8.96s-9.173 13.654-9.173 23.040v36.266c0 46.294 23.68 83.629 70.826 112.429 47.36 28.8 109.014 43.091 185.174 43.091s138.666-14.506 185.6-43.091c46.934-28.8 70.4-66.349 70.4-112.429v-36.266c0-9.174-2.986-16.854-8.96-23.040s-13.654-8.96-23.040-8.96h-448zM832 192v68.266c0 14.294-1.494 27.734-4.266 40.534-2.774 12.8-7.040 25.174-12.8 37.334 7.891 1.491 15.786 2.346 23.891 2.56 8.109 0.426 16.64 0.426 24.96 0.426 47.574 0 86.189-8.534 115.629-25.6s44.371-39.466 44.371-67.2v-24.534c0-9.171-2.986-16.851-8.96-23.040-5.971-6.186-13.651-8.96-23.040-8.96h-160l0.214 0.214zM160 373.334c-20.693 0-38.187 7.251-52.693 21.76-14.507 14.506-21.973 32.211-21.973 52.906s7.253 38.186 21.973 52.906c14.507 14.509 32.213 21.76 52.693 21.76s38.187-7.251 52.907-21.76c14.507-14.506 21.76-32.211 21.76-52.906s-7.253-38.186-21.76-52.906c-14.507-14.509-32.213-21.76-52.907-21.76zM864 373.334c-20.694 0-38.186 7.251-52.694 21.76-14.506 14.506-21.971 32.211-21.971 52.906s7.251 38.186 21.971 52.906c14.509 14.509 32.214 21.76 52.694 21.76s38.186-7.251 52.694-21.76c14.506-14.506 21.971-32.211 21.971-52.906s-7.251-38.186-21.971-52.906c-14.509-14.509-32.214-21.76-52.694-21.76zM512 448c-35.626 0-65.706 12.374-90.666 37.334s-37.334 55.040-37.334 90.666c0 35.626 12.374 65.707 37.334 90.667s55.040 37.333 90.666 37.333c35.626 0 65.706-12.373 90.666-37.333s37.334-55.041 37.334-90.667c0-35.626-12.374-65.706-37.334-90.666s-55.040-37.334-90.666-37.334z" />
<glyph unicode="&#xe938;" glyph-name="hand-archive-solid" d="M345.6 872.531h332.8c11.734 0 21.334-9.6 21.334-21.333v-84.693h-375.466v84.693c0 11.733 9.6 21.333 21.331 21.333zM352.854 723.836v-233.173c0-23.466 19.2-42.666 42.666-42.666h233.174c23.466 0 42.666 19.2 42.666 42.666v233.173h-318.506zM597.334 590.928h-170.669v64.001h170.669v-64.001zM489.814 180.902c43.52 31.574 98.346 44.16 151.466 46.934h32.214c48.64-1.28 88.531 47.786 76.8 95.36-8.32 36.051-43.309 62.080-80 62.080h-292.054c-104.32 4.48-206.080-72.96-234.24-170.24 0.427 0 290.986-102.614 291.414-102.829 11.306 27.52 30.72 50.989 54.4 68.48v0.214zM921.386 473.811c-33.92 22.826-79.574 16.64-106.029-14.72l-54.4-69.974c14.72-15.36 25.6-34.134 30.509-55.466 8.746-34.989 0.426-71.894-22.614-101.334s-58.026-46.934-93.866-46.934h-32.64c-52.909-2.986-95.574-16-126.72-38.4h148.266c0 0 124.16-1.491 205.014 109.654 47.146 64.854 57.171 81.066 57.171 81.066l17.069 25.814c24.32 36.48 14.506 85.76-21.974 110.294h0.214zM402.771 78.502c-63.571 22.4-271.359 95.574-273.065 96.214l-18.347 6.4-50.773-163.2h369.705l13.229 46.294-22.4 7.891-18.349 6.4z" />
<glyph unicode="&#xe939;" glyph-name="hand-credit-card-solid" d="M746.666 832h-469.333c-23.467 0-42.667-19.2-42.667-42.667v-255.999c0-23.469 19.2-42.669 42.667-42.669h469.333c23.466 0 42.666 19.2 42.666 42.669v255.999c0 23.467-19.2 42.667-42.666 42.667zM746.666 597.334c0-11.734-9.6-21.334-21.334-21.334h-21.331c-11.734 0-21.334 9.6-21.334 21.334v21.331c0 11.734 9.6 21.334 21.334 21.334h21.331c11.734 0 21.334-9.6 21.334-21.334v-21.331zM746.666 716.373h-469.333v64h469.333v-64zM489.814 180.902c43.52 31.574 98.346 44.16 151.466 46.934h32.214c48.64-1.28 88.531 47.786 76.8 95.36-8.32 36.051-43.309 62.080-80 62.080h-292.054c-104.32 4.48-206.080-72.96-234.24-170.24 0.427 0 290.986-102.614 291.414-102.829 11.306 27.52 30.72 50.989 54.4 68.48v0.214zM921.386 473.811c-33.92 22.826-79.574 16.64-106.029-14.72l-54.4-69.974c14.72-15.36 25.6-34.134 30.509-55.466 8.746-34.989 0.426-71.894-22.614-101.334s-58.026-46.934-93.866-46.934h-32.64c-52.909-2.986-95.574-16-126.72-38.4h148.266c0 0 124.16-1.491 205.014 109.654 47.146 64.854 57.171 81.066 57.171 81.066l17.069 25.814c24.32 36.48 14.506 85.76-21.974 110.294h0.214zM402.771 78.502c-63.571 22.4-271.359 95.574-273.065 96.214l-18.347 6.4-50.773-163.2h369.705l13.229 46.294-22.4 7.891-18.349 6.4z" />
<glyph unicode="&#xe93a;" glyph-name="hand-house-solid" d="M489.814 180.902c43.52 31.574 98.346 44.16 151.466 46.934h32.214c48.64-1.28 88.531 47.786 76.8 95.36-8.32 36.051-43.309 62.080-80 62.080h-292.054c-104.32 4.48-206.080-72.96-234.24-170.24 0.427 0 290.986-102.614 291.414-102.829 11.306 27.52 30.72 50.989 54.4 68.48v0.214zM921.386 473.811c-33.92 22.826-79.574 16.64-106.029-14.72l-54.4-69.974c14.72-15.36 25.6-34.134 30.509-55.466 8.746-34.989 0.426-71.894-22.614-101.334s-58.026-46.934-93.866-46.934h-32.64c-52.909-2.986-95.574-16-126.72-38.4h148.266c0 0 124.16-1.491 205.014 109.654 47.146 64.854 57.171 81.066 57.171 81.066l17.069 25.814c24.32 36.48 14.506 85.76-21.974 110.294h0.214zM402.771 78.502c-63.571 22.4-271.359 95.574-273.065 96.214l-18.347 6.4-50.773-163.2h369.705l13.229 46.294-22.4 7.891-18.349 6.4zM378.026 427.946h292.054c19.84 0 39.254-4.691 56.534-13.44l55.040 70.829 0.426 0.64 0.64 0.64c5.12 6.186 11.094 11.731 17.066 16.64v164.052c0 13.867-6.611 26.667-17.92 34.773l-245.12 175.147c-14.931 10.667-34.771 10.667-49.706 0l-245.12-175.36c-11.307-8.107-17.92-20.907-17.92-34.773v-282.239c6.613 4.051 13.227 8.106 20.053 11.731 39.467 20.48 85.761 31.36 133.972 31.36zM533.334 638.934h42.666v-42.669h-42.666v42.669zM533.334 553.6h42.666v-42.666h-42.666v42.666zM448 638.934h42.666v-42.669h-42.666v42.669zM448 553.6h42.666v-42.666h-42.666v42.666z" />
<glyph unicode="&#xe93b;" glyph-name="hand-money-solid" d="M655.357 605.654c-7.68-7.891-18.131-13.011-31.146-15.571v-10.24c0-4.269-1.28-7.68-4.054-10.454-2.771-2.774-6.186-4.054-10.451-4.054-4.269 0-7.894 1.28-10.454 4.054-2.774 2.56-4.054 6.186-4.054 10.454v9.386c-15.36 1.92-28.586 6.4-39.68 13.44-2.56 1.494-4.266 3.2-5.331 5.12-1.069 1.92-1.494 4.48-1.494 7.68 0 4.266 1.28 7.68 3.626 10.88 2.349 3.2 5.334 4.48 8.749 4.48 1.706 0 3.411-0.214 4.906-0.854 1.706-0.64 3.84-1.491 6.4-3.2 6.186-3.411 11.734-5.76 17.066-7.040 5.334-1.491 10.88-2.131 16.854-2.131 7.254 0 13.014 1.28 16.854 3.626s5.76 5.974 5.76 10.88c0 2.986-1.069 5.334-3.414 7.254s-5.12 3.412-8.534 4.479c-3.411 1.067-8.32 2.56-14.931 4.267-10.454 2.56-18.989 5.333-25.6 8.107-6.614 2.773-12.374 7.040-17.28 12.8-4.909 5.76-7.254 13.44-7.254 23.253 0 11.093 3.84 20.693 11.734 29.013 7.891 8.32 18.131 13.653 30.931 16.213v10.453c0 4.267 1.494 7.68 4.269 10.24 2.771 2.773 6.186 4.053 10.451 4.053 4.269 0 7.894-1.28 10.454-4.053 2.774-2.56 4.054-6.187 4.054-10.453v-9.813c11.52-1.707 22.826-6.187 33.706-13.013 2.56-1.707 4.266-3.413 5.334-5.547 1.066-1.92 1.491-4.48 1.491-7.467 0-4.267-1.28-7.68-3.84-10.88-2.56-2.987-5.331-4.48-8.746-4.48-1.706 0-3.2 0.213-4.694 0.853-1.491 0.64-3.84 1.493-6.611 3.2-1.069 0.64-3.2 1.707-6.4 3.413-3.414 1.707-6.829 3.2-10.669 4.267s-7.891 1.493-12.16 1.493c-6.186 0-11.306-1.28-15.146-4.053s-5.76-6.4-5.76-10.88c0-4.48 2.134-7.68 6.614-10.027s11.52-4.48 21.12-6.613c10.24-2.347 18.771-4.907 25.386-7.467s12.374-6.827 17.066-12.8c4.694-5.76 7.254-13.653 7.254-23.468 0-11.306-3.84-20.906-11.52-28.8h-0.854zM607.786 874.242c-116.054 0-210.134-94.080-210.134-210.133s94.080-210.134 210.134-210.134c116.054 0 210.134 94.080 210.134 210.134s-94.080 210.133-210.134 210.133zM607.786 517.763c-80.64 0-146.346 65.706-146.346 146.346s65.706 146.347 146.346 146.347c80.64 0 146.346-65.707 146.346-146.347s-65.706-146.346-146.346-146.346zM489.814 180.909c43.52 31.574 98.346 44.16 151.466 46.934h32.214c48.64-1.28 88.531 47.786 76.8 95.36-8.32 36.054-43.309 62.080-80 62.080h-292.054c-104.32 4.48-206.080-72.96-234.24-170.24 0.427 0 290.986-102.614 291.414-102.826 11.306 27.52 30.72 50.986 54.4 68.48v0.211zM921.386 473.818c-33.92 22.829-79.574 16.64-106.029-14.72l-54.4-69.971c14.72-15.36 25.6-34.134 30.509-55.469 8.746-34.986 0.426-71.891-22.614-101.331s-58.026-46.934-93.866-46.934h-32.64c-52.909-2.986-95.574-16-126.72-38.4h148.266c0 0 124.16-1.494 205.014 109.654 47.146 64.851 57.171 81.066 57.171 81.066l17.069 25.814c24.32 36.48 14.506 85.76-21.974 110.291h0.214zM402.771 78.512c-63.571 22.4-271.359 95.574-273.065 96.214l-18.347 6.4-50.773-163.2h369.705l13.229 46.291-22.4 7.894-18.349 6.4z" />
<glyph unicode="&#xe93c;" glyph-name="handshake-business-solid" d="M280.746 702.299l-47.147 23.467c-10.88 5.547-24.32 0.64-29.227-10.667l-111.147-259.412c-4.48-10.454 0-22.4 10.027-27.52l47.147-23.469c10.88-5.546 24.32-0.64 29.227 10.669l111.147 259.412c4.48 10.453 0 22.4-10.027 27.52zM930.771 455.898l-111.146 259.412c-4.906 11.307-18.134 16.213-29.226 10.667l-47.149-23.467c-10.026-5.12-14.506-17.067-10.026-27.52l111.146-259.412c4.909-11.309 18.134-16.214 29.229-10.669l47.146 23.469c10.026 5.12 14.506 17.066 10.026 27.52zM796.371 371.626l1.92 2.56c9.6 12.16 11.734 28.374 5.76 42.669l-85.971 206.72c-6.614 16-22.189 26.239-39.469 26.239h-15.146l-96.64 46.507-0.426-0.427c-8.32 3.627-17.494 5.76-26.88 5.973-17.069 0-33.069-7.040-45.014-19.2l-29.44-29.867h-129.706c-11.734 0-21.335-9.6-21.335-21.332 0-11.734 9.6-21.334 21.335-21.334h87.68l-71.469-72.534c-24.746-25.171-24.32-65.706 0.854-90.454 11.946-11.731 27.946-18.346 44.8-18.346s33.494 6.826 45.654 19.2l103.251 104.746c0 0 0.429-0.211 0.64-0.426l197.549-187.734c0.851-1.28 1.491-2.771 2.771-4.051l36.054-36.054c8.32-8.32 8.32-21.76 0-30.080-8.106-8.106-22.186-8.106-30.080 0l-158.934 158.934c-8.32 8.32-21.76 8.32-30.080 0 0 0 0-0.214-0.211-0.429 0 0-0.214 0-0.429-0.211-8.32-8.32-8.32-21.76 0-30.080l137.6-137.6c8.32-8.32 8.32-21.76 0-30.080-8.106-8.106-22.186-8.106-30.080 0l-112.851 112.851c0 0-0.214 0.003-0.429 0.214l-23.040 23.040c-8.32 8.32-21.76 8.32-30.080 0s-8.32-21.76 0-30.294l106.454-107.091c8.32-8.32 8.32-21.76 0-30.080-8.106-8.109-22.186-8.109-30.080 0l-76.8 76.8c0 0-1.28 0.64-1.92 1.28l-27.52 27.734c-8.32 8.317-21.76 8.317-30.080 0-8.32-8.323-8.32-21.763 0-30.083l59.52-59.946c8.32-8.32 8.32-21.76 0-30.080-8.106-8.106-22.186-8.106-30.080 0l-193.92 193.92-18.987 32c-5.973 10.026-19.2 13.44-29.227 7.466-10.24-5.971-13.44-18.986-7.467-29.226l20.267-34.346c0.853-1.494 1.92-2.989 3.2-4.269l3.413-3.411-29.867-29.869c-24.96-24.96-24.96-65.491 0-90.451 12.16-12.16 28.16-18.774 45.227-18.774 7.68 0 14.933 1.494 21.973 4.054 2.987-9.174 7.893-17.709 15.147-24.96 12.16-12.16 28.16-18.774 45.226-18.774 11.309 0 21.974 3.2 31.36 8.32 3.2-7.68 7.68-14.72 13.654-20.691 12.16-12.163 28.16-18.774 45.226-18.774 8.109 0 15.789 1.706 23.254 4.48 8.106-3.629 17.066-5.76 26.24-5.76 17.066 0 33.28 6.611 45.226 18.771 5.549 5.549 9.6 11.734 12.589 18.349l3.84-3.84c12.16-12.16 28.16-18.774 45.226-18.774s33.28 6.614 45.226 18.774c6.189 6.186 10.669 13.226 13.869 20.691 9.386-5.331 20.051-8.317 31.146-8.317 17.066 0 33.28 6.611 45.226 18.771 7.254 7.254 12.16 15.786 15.149 24.96 7.040-2.56 14.291-4.054 21.971-4.054 17.069 0 33.28 6.614 45.229 18.774 24.96 24.96 24.96 65.494 0 90.454l-17.069 17.066v-0.214z" />
<glyph unicode="&#xe93d;" glyph-name="headset-mic-solid" d="M546.134-0.64c-9.174 0-16.854 2.989-23.040 8.96-5.974 5.974-8.96 13.654-8.96 23.040 0 9.389 2.986 16.854 8.96 23.040 5.971 5.974 13.651 8.96 23.040 8.96h285.866v57.6h-93.866c-17.709 0-32.854 6.189-45.229 18.774-12.371 12.374-18.771 27.52-18.56 45.226v187.734c0 17.706 6.189 32.854 18.56 45.226 12.374 12.374 27.52 18.774 45.229 18.774h93.866v72.534c0 88.106-30.934 164.052-92.8 227.838-61.866 63.573-136.96 95.573-225.066 95.573-88.109 0-163.84-31.787-227.201-95.36s-94.933-139.521-94.933-227.841v-72.531h93.867c17.707 0 32.853-6.189 45.228-18.774 12.371-12.374 18.771-27.52 18.771-45.226v-187.734c0-17.706-6.186-32.854-18.771-45.226-12.374-12.374-27.521-18.774-45.228-18.774h-93.867c-17.067 0-32 6.4-44.8 19.2s-19.2 27.734-19.2 44.8v324.266c0 53.334 10.027 103.469 30.507 150.401 20.267 46.933 47.787 87.893 82.773 123.307 34.773 35.2 75.733 62.933 122.666 83.2 46.934 20.267 97.069 30.293 150.4 30.293 53.334 0 103.254-10.24 149.76-30.293 46.509-20.267 87.040-48 121.174-83.2s61.226-76.16 81.066-123.093c19.84-46.934 29.869-97.065 29.869-150.4v-445.866c0-17.069-6.4-32-19.2-44.8s-27.734-19.2-44.8-19.2h-285.869l-0.211-0.429z" />
<glyph unicode="&#xe93e;" glyph-name="heart-solid" d="M870.4 757.762c-90.88 90.88-238.506 90.88-329.386 0l-29.014-29.013-29.014 29.013c-90.88 90.88-238.506 90.88-329.386 0s-90.88-238.508 0-329.388l358.401-358.4 358.4 358.4c91.091 90.88 91.091 238.508 0 329.388z" />
<glyph unicode="&#xe93f;" glyph-name="help-center-solid" d="M192 64c-17.067 0-32 6.4-44.8 19.2s-19.2 27.734-19.2 44.8v640c0 17.067 6.4 32 19.2 44.8s27.733 19.2 44.8 19.2h640c17.066 0 32-6.4 44.8-19.2s19.2-27.733 19.2-44.8v-640c0-17.066-6.4-32-19.2-44.8s-27.734-19.2-44.8-19.2h-640zM508.8 198.4c11.306 0 20.906 3.84 28.8 11.734 7.894 7.891 11.734 17.491 11.734 28.8 0 11.306-3.84 20.906-11.734 28.8-7.894 7.891-17.494 11.731-28.8 11.731s-20.906-3.84-28.8-11.731c-7.894-7.894-11.734-17.494-11.734-28.8 0-11.309 3.84-20.909 11.734-28.8 7.894-7.894 17.494-11.734 28.8-11.734zM536.534 389.334c2.131 10.666 6.826 21.546 14.291 32.426 7.469 11.094 18.349 23.68 32.429 37.76 22.826 22.826 38.826 43.094 48 61.44 9.171 18.346 13.866 38.186 13.866 60.374 0 36.906-11.52 65.919-34.56 86.826s-54.186 31.36-93.226 31.573c-32 0-61.654-6.827-88.96-20.267-27.309-13.44-45.014-30.293-52.909-50.132-3.626-7.894-4.266-15.574-2.131-23.040 2.131-7.469 7.040-13.014 14.931-16.429 7.894-3.626 15.789-3.411 23.894 0.429s15.574 8.96 21.76 15.571c10.666 10.669 22.614 18.774 35.626 24.534 13.229 5.76 27.52 8.534 43.094 8.534 21.334 0 38.614-5.549 51.626-16.429 13.014-10.88 19.84-26.24 19.629-45.226 0-14.294-3.84-28.16-11.734-41.6s-20.694-28.374-38.4-44.8c-19.84-19.2-34.986-37.546-45.226-55.040s-15.36-33.28-15.36-47.36c0-8.534 2.771-16 8.531-22.4s12.374-9.6 20.269-9.6c8.531 0 15.786 3.2 21.76 9.6 5.971 6.4 10.24 14.294 12.16 23.466l0.64-0.211z" />
<glyph unicode="&#xe940;" glyph-name="help-solid" d="M516.269 199.469c11.306 0 20.906 3.84 28.8 11.731 7.891 7.894 11.731 17.494 11.731 28.8 0 11.309-3.84 20.909-11.731 28.8-7.894 7.894-17.494 11.734-28.8 11.734-11.309 0-20.909-3.84-28.8-11.734-7.894-7.891-11.734-17.491-11.734-28.8 0-11.306 3.84-20.906 11.734-28.8 7.891-7.891 17.491-11.731 28.8-11.731zM515.2 640.001c24.109 0 43.734-6.612 58.669-19.841 14.931-13.226 22.4-30.080 22.4-50.56 0-14.291-4.269-28.371-12.8-42.24-8.534-13.866-22.4-29.011-41.6-45.226-18.56-16.426-33.28-33.494-44.374-51.626-11.094-18.134-16.426-34.56-16.426-49.709 0-7.891 2.986-14.080 8.96-18.771 5.971-4.694 13.011-7.040 20.906-7.040 8.534 0 15.574 2.771 21.334 8.531s9.171 12.8 10.666 21.334c2.134 14.294 6.826 26.88 14.294 37.76 7.466 10.88 18.986 23.040 34.56 35.626 21.331 17.709 36.906 35.629 46.291 53.334 9.6 17.706 14.509 37.76 14.294 59.734 0 37.76-12.374 67.84-36.906 90.666-24.534 22.827-56.96 34.133-97.494 34.133-27.094 0-51.84-5.333-74.666-16-22.829-10.667-41.6-26.24-56.534-46.933-5.76-7.894-8.106-15.786-7.040-24.106s4.48-14.509 10.24-18.774c7.894-5.76 16.214-7.466 24.96-5.334 8.746 2.134 16.214 7.040 21.76 14.934 9.174 12.8 20.48 22.614 33.706 29.44 13.229 6.826 27.949 10.24 44.374 10.24l0.426 0.427zM512 21.334c-59.731 0-115.626 10.88-167.466 32.64s-97.067 51.626-135.467 90.026c-38.4 38.4-68.693 83.629-90.667 135.469s-33.067 108.16-33.067 168.531c0 60.374 11.093 115.629 33.067 167.469s52.267 97.066 90.667 135.466c38.4 38.4 83.627 68.693 135.467 90.667s107.734 33.067 167.466 33.067c59.734 0 114.56-11.093 166.4-33.067s97.069-52.267 135.469-90.667c38.4-38.4 68.906-83.627 91.306-135.466s33.706-107.734 33.706-167.469c0-59.731-11.091-116.691-33.706-168.531-22.4-51.84-52.906-97.069-91.306-135.469s-83.629-68.48-135.469-90.026c-51.84-21.76-107.306-32.64-166.4-32.64z" />
<glyph unicode="&#xe941;" glyph-name="home-solid" d="M234.668 64c-17.707 0-32.853 6.186-45.227 18.774-12.373 12.586-18.773 27.52-18.773 45.226v416c0 10.026 2.347 19.626 6.827 28.8 4.693 9.174 10.88 16.64 18.773 22.4l277.332 208c5.76 4.267 11.734 7.467 18.134 9.6s13.226 3.2 20.266 3.2c7.040 0 13.869-1.067 20.269-3.2s12.371-5.333 18.131-9.6l277.334-208c7.894-5.76 14.080-13.226 18.774-22.4 4.691-9.174 7.040-18.774 7.040-28.8v-416c0-17.706-6.189-32.854-18.774-45.226-12.374-12.374-27.52-18.774-45.44-18.774h-192v298.666h-170.666v-298.666h-192.001z" />
<glyph unicode="&#xe942;" glyph-name="house-car-solid" d="M891.094 252.8l-39.254 112.214c-5.974 17.066-22.186 28.586-40.32 28.586h-217.174c-18.346 0-34.771-11.731-40.531-29.226l-37.549-112.426c-2.986-8.749-4.48-17.709-4.48-26.88v-140.589c0-11.731 9.6-21.331 21.334-21.331h21.334c11.731 0 21.331 9.6 21.331 21.331v19.84h256v-19.84c0-11.731 9.6-21.331 21.334-21.331h21.334c11.731 0 21.331 9.6 21.331 21.331v140.16c0 9.6-1.706 19.2-4.691 28.16zM609.706 329.6h186.669l21.12-60.16h-227.84l20.051 60.16zM619.734 154.88c-17.709 0-32 14.294-32 32 0 17.709 14.291 32 32 32 17.706 0 32-14.291 32-32 0-17.706-14.294-32-32-32zM789.334 154.88c-17.709 0-32 14.294-32 32 0 17.709 14.291 32 32 32 17.706 0 32-14.291 32-32 0-17.706-14.294-32-32-32zM475.946 265.389l37.549 112.426c11.52 34.774 44.16 58.454 81.066 58.454h217.174c14.931 0 41.811 0 41.811 0v118.611c0 13.869-6.826 26.88-18.131 34.774l-320.214 225.92c-14.72 10.453-34.56 10.453-49.28 0l-319.787-225.705c-11.307-7.894-18.133-20.909-18.133-34.774v-406.614h85.333v298.669h170.667v-298.669h85.334v76.589c0 13.651 2.131 27.52 6.611 40.531v-0.211z" />
<glyph unicode="&#xe943;" glyph-name="import-contacts-solid" d="M546.131 202.666c35.629 17.709 70.4 31.149 104.534 40.109s70.4 13.226 108.8 13.226c27.094 0 55.040-2.134 83.626-6.4 28.8-4.266 53.549-10.026 74.029-17.066v457.599c-24.109 12.16-49.709 20.907-76.8 26.667-27.094 5.76-53.974 8.533-81.069 8.533-38.4 0-75.52-5.973-111.571-17.493-35.84-11.733-69.76-28.16-101.76-49.493v-455.467l0.211-0.214zM514.131 118.4c-5.76 0-10.88 0.64-15.571 1.706-4.694 1.069-8.749 2.989-12.374 5.974-33.494 20.694-68.906 36.694-106.666 48s-76.161 17.066-115.201 17.066c-26.24 0-51.84-3.2-76.8-9.6s-49.707-14.291-74.667-23.466c-16.427-7.894-32.213-6.826-47.36 3.2-15.36 10.026-22.827 24.106-22.827 42.666v493.655c0 10.667 2.56 20.48 7.467 29.44s12.373 15.787 22.4 20.907c29.867 14.293 61.013 24.747 93.44 31.573s65.28 10.027 98.56 10.027c44.8 0 88.318-5.973 130.558-18.133s81.92-30.507 118.829-55.467c36.266 24.96 75.091 43.307 116.906 55.467s84.48 18.133 128.426 18.133c33.494 0 66.134-3.413 98.134-10.24s62.934-17.28 92.8-31.573c10.026-4.907 17.706-11.947 23.040-20.907s8.106-18.56 8.106-29.227v-493.866c0-19.84-8.106-34.989-23.891-45.229-16-10.24-31.789-10.451-47.36-0.64-24.109 10.029-48.64 17.92-73.6 23.894s-50.56 8.96-76.8 8.96c-38.4 0-76.16-5.76-113.069-17.066-36.906-11.309-71.891-27.309-104.531-48-3.629-2.774-7.68-4.694-12.374-5.974-4.694-1.066-9.814-1.706-15.574-1.494v0.214z" />
<glyph unicode="&#xe944;" glyph-name="instagram-solid" d="M728.746 556.16c-1.28 26.026-5.546 40.106-9.171 49.494-4.909 12.371-10.669 21.331-20.054 30.72-9.386 9.385-18.134 15.145-30.72 19.838-9.386 3.627-23.466 7.893-49.494 9.173-28.16 1.28-36.48 1.493-107.731 1.28-71.254 0-79.574-0.427-107.734-1.707-26.026-1.28-40.106-5.547-49.494-9.173-12.371-4.907-21.331-10.667-30.72-20.052-9.385-9.389-15.145-18.134-19.838-30.72-3.627-9.389-7.893-23.469-9.173-49.494-1.28-28.16-1.493-36.48-1.28-107.734 0-71.251 0.427-79.571 1.707-107.731 1.28-26.029 5.547-40.109 9.173-49.494 4.907-12.374 10.667-21.334 20.052-30.72 9.389-9.386 18.349-15.146 30.72-19.84 9.389-3.626 23.469-7.894 49.494-9.174 28.16-1.28 36.48-1.491 107.734-1.28 71.251 0 79.571 0.429 107.731 1.709 26.029 1.28 40.109 5.546 49.494 9.171 12.374 4.909 21.334 10.669 30.72 20.054s15.146 18.346 19.84 30.72c3.626 9.386 7.894 23.466 9.174 49.494 1.28 28.16 1.491 36.48 1.28 107.731 0 71.254-0.429 79.574-1.709 107.734zM512.214 311.040c-75.52 0-136.96 61.014-137.174 136.746 0 75.52 61.014 136.96 136.746 137.174 75.52 0 136.96-61.014 137.174-136.746 0-75.52-61.014-136.96-136.746-137.174zM654.080 558.506c-17.706 0-32 14.294-32 32 0 17.709 14.294 32 32 32s32-14.291 32-32c0-17.706-14.294-32-32-32zM511.789 536.96c-49.069 0-88.749-39.891-88.749-88.96 0-49.066 39.894-88.746 88.96-88.746 49.069 0 88.749 39.894 88.749 88.96s-39.894 88.746-88.96 88.746zM512 874.668c-235.733 0-426.666-190.933-426.666-426.668 0-235.731 190.933-426.666 426.666-426.666 235.734 0 426.669 190.934 426.669 426.666 0 235.735-190.934 426.668-426.669 426.668zM777.174 338.56c-1.28-28.371-5.76-47.786-12.374-64.64-6.826-17.491-15.786-32.426-30.72-47.36-14.72-14.931-29.651-23.891-47.146-30.931-16.854-6.614-36.266-11.094-64.64-12.589-28.374-1.28-37.546-1.706-109.866-1.706s-81.494 0-109.869 1.494c-28.371 1.28-47.786 5.76-64.64 12.371-17.491 6.829-32.426 15.789-47.359 30.72-14.933 14.72-24.107 29.654-30.933 47.149-6.613 16.851-11.093 36.266-12.587 64.64-1.28 28.371-1.707 37.546-1.92 109.866 0 72.32 0 81.494 1.493 109.866 1.28 28.374 5.76 47.789 12.373 64.854 6.827 17.494 15.787 32.427 30.72 47.36 14.72 14.933 29.653 23.893 47.147 30.933 16.854 6.613 36.266 11.093 64.64 12.587 28.374 1.28 37.546 1.707 109.866 1.92 72.32 0 81.494 0 109.869-1.493 28.371-1.28 47.786-5.76 64.64-12.373 17.491-6.827 32.426-15.787 47.36-30.72 14.931-14.72 23.891-29.653 30.931-47.148 6.614-16.851 11.094-36.266 12.589-64.64 1.28-28.371 1.706-37.546 1.92-109.866 0-72.32 0-81.494-1.494-109.866v-0.429z" />
<glyph unicode="&#xe945;" glyph-name="key-solid" d="M305.067 310.4c38.399 0 71.039 13.226 97.708 40.106 26.666 26.669 40.106 59.094 40.106 97.709 0 38.611-13.226 71.040-40.106 97.706s-59.309 40.106-97.708 40.106c-38.4 0-70.827-13.226-97.493-40.106s-39.893-59.094-40.107-97.706c0-38.4 13.227-71.040 40.107-97.709 26.667-26.666 59.093-40.106 97.493-40.106zM305.067 192c-71.040 0-131.627 24.96-181.333 74.666-49.707 49.709-74.667 110.294-74.667 181.334s24.96 131.626 74.667 181.334c49.707 49.706 110.293 74.666 181.333 74.666 60.373 0 111.148-16.64 151.893-49.493 40.96-33.067 69.546-75.307 85.76-126.507h354.134c4.266 0 8.106-0.64 11.731-2.134 3.629-1.491 7.040-3.84 10.669-7.466l45.866-45.866c3.626-3.629 5.974-7.040 7.466-10.669 1.494-3.626 2.134-7.466 2.134-11.731 0-4.269-0.64-8.109-2.134-11.734-1.491-3.626-3.84-7.040-7.466-10.666l-110.934-110.934c-3.626-3.626-7.040-5.974-10.666-7.466-3.626-1.494-7.466-2.134-11.734-2.134-4.266 0-8.106 0.64-11.731 2.134-3.629 1.491-7.040 3.84-10.669 7.466l-67.2 67.2-67.2-67.2c-3.626-3.626-7.040-5.974-10.666-7.466-3.626-1.494-7.466-2.134-11.734-2.134-4.266 0-8.106 0.64-11.731 2.134-3.629 1.491-7.040 3.84-10.669 7.466l-53.331 53.334h-34.134c-13.44-53.334-42.24-96.429-85.76-129.069s-94.294-49.066-152.107-49.066h0.213z" />
<glyph unicode="&#xe946;" glyph-name="label-solid" d="M192 149.334c-17.707 0-32.853 6.186-45.227 18.774-12.373 12.586-18.773 27.52-18.773 45.226v469.333c0 17.707 6.187 32.853 18.773 45.227s27.52 18.773 45.227 18.773h448c15.574 0 29.866-4.053 42.666-12.16s23.894-18.773 33.069-31.573l154.666-217.6c7.894-11.306 11.734-23.894 11.734-37.334s-3.84-26.026-11.734-37.331l-154.666-217.6c-9.174-12.8-20.269-23.254-33.069-31.36-12.8-8.109-27.091-12.374-42.666-12.374h-448z" />
<glyph unicode="&#xe947;" glyph-name="launch-solid" d="M629.331 789.332c-17.706 0-32-14.293-32-32s14.294-32 32-32h114.774l-382.72-382.721c-12.586-12.586-12.586-32.851 0-45.226 6.186-6.186 14.506-9.386 22.614-9.386 8.106 0 16.426 3.2 22.611 9.386l382.72 382.72v-114.774c0-17.706 14.294-32 32-32 17.709 0 32 14.294 32 32v224.001h-224zM821.331 469.331c-17.706 0-32-14.291-32-32v-266.666h-554.665v554.667h266.665c17.709 0 32 14.293 32 32s-14.291 32-32 32h-266.665c-35.413 0-64-28.587-64-64v-554.667c0-35.414 28.587-64 64-64h554.665c35.414 0 64 28.586 64 64v266.666c0 17.709-14.291 32-32 32z" />
<glyph unicode="&#xe948;" glyph-name="lightbulb-solid" d="M512 12.374c-24.106 0-44.586 8.32-61.44 24.96s-24.96 37.12-24.96 61.226h172.8c0-24.106-8.32-44.586-24.96-61.226s-37.12-24.96-61.44-24.96zM339.2 196.906c0 17.709 14.294 32 32 32h281.6c17.706 0 32-14.291 32-32 0-17.706-14.294-32-32-32h-281.6c-17.706 0-32 14.294-32 32zM344.534 293.974c-46.934 30.506-84.054 68.906-111.574 114.771-27.307 45.869-40.96 97.494-40.96 155.094 0 86.827 31.573 161.707 94.933 225.067s138.241 94.933 225.067 94.933c86.826 0 161.706-31.573 225.066-94.933s94.934-138.24 94.934-225.067c0-57.6-13.44-109.226-40.534-155.094-27.091-45.866-64.426-84.051-112-114.771h-334.931z" />
<glyph unicode="&#xe949;" glyph-name="linkedin-solid" d="M512 874.668c-235.733 0-426.666-190.933-426.666-426.668 0-235.731 190.933-426.666 426.666-426.666 235.734 0 426.669 190.934 426.669 426.666 0 235.735-190.934 426.668-426.669 426.668zM379.52 229.76h-99.626v320h99.626v-320zM329.814 593.494c-32 0-57.814 25.814-57.814 57.6s25.813 57.6 57.814 57.6c32 0 57.6-25.813 57.6-57.6s-25.814-57.6-57.6-57.6zM652.589 229.76v155.52c0 37.12-0.64 84.909-51.629 84.909-50.986 0-59.731-40.534-59.731-82.134v-158.294h-99.414v320h95.36v-43.731h1.28c13.226 25.171 45.654 51.626 94.080 51.626 100.694 0 119.254-66.134 119.254-152.534v-175.571h-99.414l0.214 0.211z" />
<glyph unicode="&#xe94a;" glyph-name="list-alt-solid" d="M192 64c-17.067 0-32 6.4-44.8 19.2s-19.2 27.734-19.2 44.8v640c0 17.067 6.4 32 19.2 44.8s27.733 19.2 44.8 19.2h640c17.066 0 32-6.4 44.8-19.2s19.2-27.733 19.2-44.8v-640c0-17.066-6.4-32-19.2-44.8s-27.734-19.2-44.8-19.2h-640zM320 241.066c8.534 0 16 3.2 22.4 9.6s9.6 13.869 9.6 22.4c0 8.534-3.2 16-9.6 22.4s-13.866 9.6-22.4 9.6c-8.533 0-16-3.2-22.4-9.6s-9.6-13.866-9.6-22.4c0-8.531 3.2-16 9.6-22.4s13.867-9.6 22.4-9.6zM320 416c8.534 0 16 3.2 22.4 9.6s9.6 13.866 9.6 22.4c0 8.534-3.2 16-9.6 22.4s-13.866 9.6-22.4 9.6c-8.533 0-16-3.2-22.4-9.6s-9.6-13.866-9.6-22.4c0-8.534 3.2-16 9.6-22.4s13.867-9.6 22.4-9.6zM320 590.934c8.534 0 16 3.2 22.4 9.6s9.6 13.866 9.6 22.4c0 8.531-3.2 16-9.6 22.399s-13.866 9.6-22.4 9.6c-8.533 0-16-3.2-22.4-9.6s-9.6-13.868-9.6-22.399c0-8.534 3.2-16 9.6-22.4s13.867-9.6 22.4-9.6zM492.8 241.066h196.266c9.174 0 16.854 2.989 23.040 8.96 6.189 5.974 8.96 13.654 8.96 23.040 0 9.389-2.986 16.854-8.96 23.040-5.971 5.974-13.651 8.96-23.040 8.96h-196.266c-9.174 0-16.854-2.986-23.040-8.96-5.974-5.971-8.96-13.651-8.96-23.040 0-9.386 2.986-16.851 8.96-23.040 5.974-5.971 13.654-8.96 23.040-8.96zM492.8 416h196.266c9.174 0 16.854 2.986 23.040 8.96 6.189 5.974 8.96 13.654 8.96 23.040s-2.986 16.854-8.96 23.040c-5.971 6.186-13.651 9.174-23.040 8.96h-196.266c-9.174 0-16.854-2.986-23.040-8.96-5.974-5.974-8.96-13.654-8.96-23.040s2.986-16.854 8.96-23.040c5.974-5.974 13.654-8.96 23.040-8.96zM492.8 590.934h196.266c9.174 0 16.854 2.986 23.040 8.96 6.189 5.971 8.96 13.651 8.96 22.826s-2.986 16.854-8.96 22.827c-5.971 5.973-13.651 9.173-23.040 9.173h-196.266c-9.174 0-16.854-2.987-23.040-9.173s-8.96-13.652-8.96-22.827c0-9.174 2.986-16.854 8.96-22.826 5.974-5.974 13.654-8.96 23.040-8.96z" />
<glyph unicode="&#xe94b;" glyph-name="local-shipping-solid" d="M238.935 107.731c-34.773 0-64.427 12.16-89.173 36.269-24.533 24.106-36.693 53.971-36.693 89.6h-6.4c-17.707 0-32.853 6.186-45.227 18.771-12.373 12.374-18.773 27.52-18.773 45.229v427.732c0 17.067 6.4 32 19.2 44.8s27.733 19.2 44.8 19.2h553.601c17.706 0 32.851-6.187 45.226-18.773 12.374-12.373 18.774-27.52 18.774-45.227v-114.132h96c5.76 0 10.666-1.069 14.931-3.2 4.269-2.134 7.894-5.334 10.669-9.6l129.066-171.734c2.134-2.774 3.626-5.76 4.694-8.96 1.066-3.2 1.706-6.614 1.706-10.24v-141.866c0-9.174-2.986-16.854-8.96-23.040-5.974-6.189-13.654-8.96-23.040-8.96h-43.734c0-35.629-12.371-65.494-36.691-89.6-24.534-24.109-54.189-36.269-88.96-36.269-34.774 0-64.429 12.16-88.96 36.269-24.534 24.106-36.909 53.971-36.909 89.6h-289.066c0-35.629-12.374-65.494-36.906-89.6-24.534-24.109-54.188-36.269-89.174-36.269zM238.935 171.731c17.067 0 31.573 5.974 43.733 18.134s18.133 26.666 18.133 43.734c0 17.066-5.973 31.571-18.133 43.731s-26.667 18.134-43.733 18.134c-17.067 0-31.573-5.974-43.733-18.134s-18.133-26.666-18.133-43.731c0-17.069 5.973-31.574 18.133-43.734s26.667-18.134 43.733-18.134zM779.734 171.731c17.066 0 31.574 5.974 43.734 18.134s18.131 26.666 18.131 43.734c0 17.066-5.971 31.571-18.131 43.731s-26.669 18.134-43.734 18.134c-17.066 0-31.574-5.974-43.734-18.134s-18.131-26.666-18.131-43.731c0-17.069 5.971-31.574 18.131-43.734s26.669-18.134 43.734-18.134zM724.269 389.331h198.4l-118.4 157.869h-80v-157.869z" />
<glyph unicode="&#xe94c;" glyph-name="lock-person-solid" d="M373.331 612.269h277.334v99.199c0 39.040-13.44 72.533-40.534 100.267-27.091 27.733-59.731 41.6-98.131 41.6s-71.040-13.867-98.134-41.6c-27.094-27.733-40.534-61.227-40.534-100.267v-99.199zM803.2-14.931c-57.6 0-106.24 19.84-146.134 59.731-39.894 39.894-59.734 88.534-59.734 146.134s19.84 106.24 59.734 146.134c39.894 39.891 88.534 59.731 146.134 59.731s106.24-19.84 146.131-59.731c39.894-39.894 59.734-88.534 59.734-146.134s-19.84-106.24-59.734-146.134c-39.891-39.891-88.531-59.731-146.131-59.731zM594.131 21.334h-359.465c-17.707 0-32.853 6.186-45.227 18.774-12.373 12.371-18.773 27.52-18.773 45.226v462.934c0 17.706 6.187 32.851 18.773 45.226s27.52 18.774 45.227 18.774h74.667v99.199c0 56.96 19.838 105.387 59.093 145.493 39.466 40.107 87.254 60.16 143.574 60.16s104.106-20.053 143.571-60.16c39.469-40.107 59.094-88.747 59.094-145.493v-99.199h74.666c17.709 0 32.854-6.189 45.229-18.774 12.371-12.586 18.771-27.52 18.771-45.226v-92.8c-10.666 2.771-21.331 4.691-32 5.331-10.666 0.64-21.331 0.64-32 0-72.531-2.771-133.331-30.291-182.4-82.771-49.066-52.269-73.6-114.56-73.6-187.094 0-31.36 5.334-61.44 16-90.026 10.669-28.8 25.6-55.254 44.8-79.36v-0.214zM803.2 201.6c19.84 0 36.906 7.040 50.771 20.694 13.869 13.654 20.694 30.72 20.694 50.56s-7.040 36.694-20.694 50.134c-13.866 13.44-30.72 20.266-50.771 20.266-20.054 0-35.629-7.040-49.709-20.906-13.866-13.869-20.691-30.509-20.691-49.709s7.040-36.906 20.691-50.771c13.654-13.869 30.294-20.694 49.709-20.694v0.426zM803.2 59.734c23.466 0 45.44 5.546 66.131 16.64 20.694 11.094 37.334 26.24 50.134 45.226-18.56 10.029-37.334 17.92-56.534 23.894s-39.040 8.96-59.731 8.96c-20.694 0-40.534-2.986-59.734-8.96s-37.974-14.080-56.534-23.894c12.8-19.2 29.44-34.346 50.134-45.226 20.694-11.094 42.666-16.64 66.134-16.64z" />
<glyph unicode="&#xe94d;" glyph-name="lock-solid" d="M234.666 21.334c-17.707 0-32.853 6.186-45.227 18.774-12.373 12.586-18.773 27.52-18.773 45.226v462.934c0 17.706 6.187 32.851 18.773 45.226s27.52 18.774 45.227 18.774h74.667v102.399c0 56.107 19.838 103.893 59.093 143.36 39.466 39.467 87.254 59.093 143.574 59.093s104.106-19.627 143.571-59.307c39.469-39.467 59.094-87.253 59.094-143.36v-102.4h74.666c17.709 0 32.854-6.186 45.229-18.774 12.371-12.586 18.771-27.52 18.771-45.226v-462.934c0-17.706-6.186-32.851-18.771-45.226-12.589-12.374-27.52-18.774-45.229-18.774l-554.665 0.214zM512 234.669c22.826 0 42.24 7.891 58.24 23.466s23.891 34.56 23.891 56.534c0 21.971-8.106 40.746-23.891 58.24-15.789 17.491-35.414 26.24-58.24 26.24-22.829 0-42.24-8.749-58.24-26.24-16-17.494-23.894-36.909-23.894-58.24 0-21.334 8.106-40.96 23.894-56.534 15.786-15.574 35.411-23.466 58.24-23.466zM373.331 612.269h277.334v102.399c0 38.4-13.44 71.040-40.534 98.133-27.091 27.093-59.731 40.533-98.131 40.533s-71.040-13.44-98.134-40.533c-27.094-27.093-40.534-59.733-40.534-98.133v-102.399z" />
<glyph unicode="&#xe94e;" glyph-name="luggage-solid" d="M277.332 64c-17.707 0-32.853 6.189-45.227 18.774s-18.773 27.52-18.773 45.226v501.334c0 20.693 7.253 38.187 21.76 52.907 14.507 14.507 32.213 21.76 52.907 21.76h96.001v138.667c0 10.027 4.48 17.707 13.226 23.467 8.96 5.76 18.774 8.533 29.44 8.533h170.666c10.669 0 20.48-2.773 29.44-8.533s13.229-13.44 13.229-23.467v-138.667h106.666c17.706 0 32.854-6.187 45.226-18.773 12.374-12.587 18.774-27.52 18.774-45.227v-512.001c0-17.706-6.186-32.851-18.774-45.226-12.586-12.374-27.52-18.774-45.226-18.774 0-12.16-4.054-22.186-12.374-30.291-8.106-8.109-18.346-12.374-30.291-12.374-11.949 0-22.189 4.054-30.294 12.374-8.106 8.106-12.374 18.346-12.374 30.291h-298.666c0-12.16-4.054-22.186-12.374-30.291-8.106-8.109-18.346-12.374-30.292-12.374s-22.187 4.054-30.507 12.374c-8.107 8.106-12.16 18.346-12.16 30.291zM426.666 704.001h170.666v128h-170.666v-128zM373.331 192c11.734 0 21.334 9.6 21.334 21.334v341.334c0 11.731-9.6 21.331-21.334 21.331-11.731 0-21.331-9.6-21.331-21.331v-341.334c0-11.734 9.6-21.334 21.331-21.334zM512 192c11.731 0 21.331 9.6 21.331 21.334v341.334c0 11.731-9.6 21.331-21.331 21.331-11.734 0-21.334-9.6-21.334-21.331v-341.334c0-11.734 9.6-21.334 21.334-21.334zM650.666 192c11.734 0 21.334 9.6 21.334 21.334v341.334c0 11.731-9.6 21.331-21.334 21.331s-21.334-9.6-21.334-21.331v-341.334c0-11.734 9.6-21.334 21.334-21.334z" />
<glyph unicode="&#xe94f;" glyph-name="mail-solid" d="M919.469 770.132c-12.8 12.8-27.734 19.2-44.8 19.2h-725.335c-17.067 0-32-6.4-44.8-19.2s-19.2-27.733-19.2-44.8v-554.667c0-17.066 6.4-32 19.2-44.8s27.733-19.2 44.8-19.2h725.335c17.066 0 32 6.4 44.8 19.2s19.2 27.734 19.2 44.8v554.667c0 17.067-6.4 32-19.2 44.8zM865.494 613.971l-285.44-285.651c-18.134-18.134-42.24-28.16-67.84-28.16s-49.706 10.026-67.84 28.16l-285.227 285.651c-12.587 12.589-12.373 32.854 0 45.228 12.587 12.373 32.853 12.373 45.227 0l285.226-285.653c5.974-5.974 14.080-9.386 22.614-9.386s16.64 3.411 22.614 9.386l285.651 285.653c12.374 12.587 32.854 12.587 45.229 0 12.371-12.587 12.586-32.853 0-45.228h-0.214z" />
<glyph unicode="&#xe950;" glyph-name="mark-as-unread-solid" d="M448 808.535l250.029-125.867h107.731c-5.76 13.867-16.211 25.6-30.291 32.64l-298.669 150.4c-8.96 4.48-18.986 6.827-28.8 6.827-9.811 0-19.84-2.347-28.8-6.827l-298.666-150.4c-21.547-10.88-35.2-33.067-35.2-57.173v-365.866c0-35.414 28.587-64 64-64v429.866l298.666 150.4zM874.669 661.336h-640.001c-35.413 0-64-28.587-64-64.002v-469.331c0-35.414 28.587-64 64-64h640.001c35.411 0 64 28.586 64 64v469.331c0 35.414-28.589 64.002-64 64.002zM864 512.643l-241.491-241.494c-18.134-18.134-42.24-28.16-67.84-28.16s-49.709 10.026-67.84 28.16l-241.281 241.494c-12.587 12.586-12.373 32.851 0 45.226 12.587 12.374 32.853 12.374 45.227 0l241.28-241.494c5.974-5.971 14.080-9.386 22.614-9.386 8.531 0 16.64 3.414 22.611 9.386l241.494 241.494c12.586 12.586 32.854 12.586 45.226 0 12.589-12.374 12.589-32.854 0-45.226z" />
<glyph unicode="&#xe951;" glyph-name="medal-honor-solid" d="M512 490.666c-52.906 0-101.12-21.549-135.68-56.32-34.774-34.774-56.32-82.56-56.32-135.68s21.546-100.909 56.32-135.68c34.56-34.774 82.774-56.32 135.68-56.32s101.12 21.546 135.68 56.32c34.774 34.771 56.32 82.56 56.32 135.68s-21.546 100.906-56.32 135.68c-34.56 34.771-82.774 56.32-135.68 56.32zM512 181.757c-64.64 0-116.906 52.269-116.906 116.909s52.266 116.906 116.906 116.906c64.64 0 116.906-52.266 116.906-116.906s-52.266-116.909-116.906-116.909zM548.266 650.665l138.669 138.667h-349.014l138.666-138.667h71.68zM843.094 720.212l-50.346 50.347c-11.949 11.947-28.374 18.773-45.229 18.773-9.811 0-19.2-3.84-26.026-10.88l-186.24-186.241c0 0 134.826-134.826 135.254-135.251l172.797 172.8c24.96 24.959 24.96 65.492 0 90.452h-0.211zM512 522.666c18.56 0 36.694-2.56 54.186-6.826l-261.972 261.972c-7.253 7.253-17.28 11.52-27.52 11.52-17.067 0-33.28-6.827-45.227-18.773l-50.347-50.347c-24.96-24.96-24.96-65.493 0-90.452l172.8-172.8c42.24 42.451 98.346 65.706 158.294 65.706h-0.214z" />
<glyph unicode="&#xe952;" glyph-name="medal-solid" d="M258.132 328.96l-71.893-124.586 141.867 17.706 55.891-132.691 80 138.666-1.491-0.64c-9.814-3.626-20.054-5.546-30.294-5.546-29.014 0-55.68 14.506-71.466 38.611l-29.014 44.374-50.986 13.866c-8.107 2.134-15.573 5.76-22.613 10.029v0.211zM765.866 328.96c-7.040-4.266-14.509-7.891-22.614-10.24l-50.986-13.866-29.014-44.374c-15.786-24.32-42.454-38.611-71.466-38.611-10.454 0-20.694 1.92-30.294 5.546l-1.28 0.426 80-138.666 55.894 132.694 141.866-17.709-71.894 124.589-0.211 0.211zM591.782 841.387c-5.12 0-10.24-0.853-15.146-2.773l-49.494-18.773c-4.906-1.92-10.026-2.773-15.146-2.773s-10.24 0.853-15.146 2.773l-49.494 18.773c-4.906 1.92-10.026 2.773-15.146 2.773-14.080 0-27.734-7.040-35.84-19.413l-29.014-44.373c-5.76-8.747-14.506-15.147-24.534-17.92l-50.986-13.867c-19.413-5.333-32.427-23.253-31.36-43.307l2.56-52.907c0.427-10.454-2.773-20.694-9.387-28.8l-33.28-41.174c-12.587-15.571-12.587-37.971 0-53.546l33.28-41.174c6.613-8.106 9.813-18.346 9.387-28.8l-2.56-52.906c-1.067-20.054 12.16-37.974 31.36-43.306l50.986-13.869c10.029-2.771 18.774-9.171 24.534-17.92l29.014-44.371c8.106-12.374 21.76-19.414 35.84-19.414 5.12 0 10.24 0.854 15.146 2.774l49.494 18.771c4.906 1.92 10.026 2.774 15.146 2.774s10.24-0.854 15.146-2.774l49.494-18.771c4.906-1.92 10.026-2.774 15.146-2.774 14.080 0 27.734 7.040 35.84 19.414l29.014 44.371c5.76 8.749 14.506 15.149 24.534 17.92l50.986 13.869c19.414 5.331 32.426 23.251 31.36 43.306l-2.56 52.906c-0.426 10.454 2.774 20.694 9.386 28.8l33.28 41.174c12.589 15.574 12.589 37.974 0 53.546l-33.28 41.174c-6.611 8.106-9.811 18.346-9.386 28.8l2.56 52.907c1.066 20.053-12.16 37.973-31.36 43.307l-50.986 13.867c-10.029 2.773-18.774 9.173-24.534 17.92l-29.014 44.373c-8.106 12.373-21.76 19.413-35.84 19.413zM511.997 360.96c-106.88 0-193.28 85.974-193.28 192s86.615 192 193.28 192c106.666 0 193.28-85.973 193.28-192s-86.614-192-193.28-192zM512 415.786c-17.709 0-32 14.294-32 32v133.334l-0.854-0.854c-12.374-12.586-32.854-12.586-45.226 0-12.374 12.589-12.589 32.854 0 45.229l55.466 55.466c9.174 9.173 22.826 11.947 34.774 7.040 11.946-4.907 19.84-16.64 19.84-29.653v-210.561c0-17.706-14.294-32-32-32z" />
<glyph unicode="&#xe953;" glyph-name="money-solid" d="M576 384c35.626 0 65.706 12.371 90.666 37.331s37.334 55.040 37.334 90.669c0 35.626-12.374 65.706-37.334 90.666s-55.040 37.334-90.666 37.334c-35.629 0-65.709-12.374-90.669-37.334s-37.331-55.040-37.331-90.666c0-35.629 12.371-65.709 37.331-90.669s55.040-37.331 90.669-37.331zM234.666 234.666c-17.707 0-32.853 6.186-45.227 18.774-12.373 12.586-18.773 27.52-18.773 45.226v426.667c0 17.707 6.187 32.853 18.773 45.227s27.52 18.773 45.227 18.773h682.665c17.709 0 32.854-6.187 45.229-18.773 12.371-12.587 18.771-27.52 18.771-45.227v-426.667c0-17.706-6.186-32.854-18.771-45.226-12.589-12.374-27.52-18.774-45.229-18.774h-682.665zM106.666 106.666c-17.707 0-32.853 6.186-45.227 18.774-12.373 12.586-18.773 27.52-18.773 45.226v458.666c0 9.174 2.987 16.854 8.96 22.828s13.653 9.173 23.040 9.173c9.387 0 16.853-2.987 22.827-9.173 5.973-5.973 9.173-13.653 9.173-22.828v-458.666h714.665c9.174 0 16.854-2.986 23.040-8.96 6.189-5.974 8.96-13.654 8.96-23.040s-2.986-16.854-8.96-23.040c-5.971-6.186-13.651-8.96-23.040-8.96h-714.665zM234.666 618.666c29.867 0 55.040 10.24 75.733 30.933s30.932 45.867 30.932 75.733h-106.665v-106.667zM917.331 618.666v106.667h-106.666c0-29.867 10.24-55.040 30.934-75.733 20.691-20.693 45.866-30.933 75.731-30.933zM234.666 298.666h106.665c0 29.866-10.24 55.040-30.932 75.734-20.693 20.691-45.867 30.931-75.733 30.931v-106.666zM810.666 298.666h106.666v106.666c-29.866 0-55.040-10.24-75.731-30.931-20.694-20.694-30.934-45.869-30.934-75.734z" />
<glyph unicode="&#xe954;" glyph-name="mood-solid" d="M667.734 504.534c16.426 0 30.080 5.546 40.96 16.426 11.094 11.094 16.64 24.746 16.64 41.174 0 16.426-5.546 30.080-16.64 40.96s-24.746 16.426-40.96 16.426c-16.214 0-30.080-5.546-40.96-16.426s-16.426-24.749-16.426-40.96c0-16.214 5.546-30.080 16.426-40.96s24.746-16.429 40.96-16.64zM356.269 504.534c16.426 0 30.080 5.546 40.96 16.426s16.426 24.746 16.426 40.96c0 16.214-5.546 30.080-16.426 40.96s-24.749 16.64-40.96 16.426c-16.429 0-30.080-5.546-41.175-16.426-11.093-11.094-16.427-24.746-16.427-40.96s5.547-30.080 16.427-40.96c11.095-11.094 24.746-16.426 40.96-16.64l0.214 0.214zM512 214.4c40.534 0 78.72 9.6 114.774 28.8 35.84 19.2 64.214 45.866 84.694 80 5.76 8.534 6.186 16 1.706 22.4-4.694 6.4-11.946 9.6-21.974 9.6h-358.4c-10.026 0-17.066-3.2-21.333-9.6s-3.627-13.866 2.133-22.4c20.694-34.134 48.639-60.8 84.268-80 35.626-19.2 73.6-28.8 114.131-28.8zM512 21.334c-58.24 0-113.491 11.091-165.331 33.706-51.842 22.4-97.282 52.906-136.108 91.734-38.827 38.826-69.333 84.051-91.733 136.106-22.4 51.84-33.493 107.306-33.493 166.4s11.307 113.494 33.493 165.334c22.4 51.839 52.907 97.066 91.733 135.466s84.053 68.693 136.108 91.307c51.84 22.4 107.306 33.707 166.4 33.707 59.091 0 113.491-11.307 165.331-33.493 51.84-22.4 97.069-52.907 135.469-91.307s68.906-83.627 91.306-135.468c22.4-51.84 33.706-107.306 33.706-166.4 0-59.091-11.091-113.491-33.706-165.331-22.4-51.84-52.906-97.28-91.306-136.109-38.4-38.826-83.629-69.331-135.469-91.731s-107.306-33.709-166.4-33.709v-0.211z" />
<glyph unicode="&#xe955;" glyph-name="perm-phone-msg-solid" d="M555.734 482.134c-5.76-4.909-11.52-5.974-17.709-3.2-5.971 2.771-9.171 7.891-8.96 14.931v300.801c0 10.667 4.269 19.413 12.8 26.027 8.534 6.827 18.56 10.027 29.869 10.027h282.666c11.306 0 21.12-3.413 29.44-10.027 8.106-6.827 12.374-15.36 12.374-26.027v-189.867c0-12.16-3.84-22.186-11.734-30.294-7.894-8.106-17.706-12.371-29.866-12.371h-214.4l-84.269-80h-0.211zM848 64c-86.826 0-173.014 21.334-258.56 64s-162.774 98.134-231.040 166.4c-68.267 68.266-123.733 145.28-166.4 231.040s-64 171.947-64 258.56c0 13.44 4.693 24.96 13.867 34.133s20.693 13.867 34.133 13.867h149.334c10.026 0 18.771-3.413 26.24-10.027 7.466-6.827 12.371-15.787 14.291-27.307l28.8-134.4c1.494-10.027 1.28-18.987-0.426-27.092-1.706-8.109-5.546-15.149-11.094-20.694l-106.666-107.734c39.893-66.131 84.48-123.731 133.76-172.8 49.494-49.066 105.386-90.666 168.106-124.8l101.334 104.534c7.040 7.894 15.36 13.226 24.534 16.426 9.171 3.2 18.56 3.84 27.731 1.709l126.934-27.734c10.666-2.134 19.626-7.466 26.666-16s10.669-18.56 10.669-29.866v-144c0-13.44-4.694-24.96-13.869-34.134-9.171-9.174-20.691-13.866-34.131-13.866l-0.214-0.214z" />
<glyph unicode="&#xe956;" glyph-name="person-remove-solid" d="M744.534 524.374c-9.174 0-16.854 2.989-23.040 8.96-6.189 5.974-8.96 13.654-8.96 23.040 0 9.389 2.986 16.854 8.96 23.040 5.971 6.189 13.651 8.96 23.040 8.96h183.466c9.174 0 16.854-2.986 23.040-8.96 6.186-5.971 8.96-13.651 8.96-23.040 0-9.386-2.986-16.851-8.96-23.040-5.974-5.971-13.654-8.96-23.040-8.96h-183.466zM405.334 459.309c-46.934 0-85.334 14.934-115.201 44.8s-44.8 68.266-44.8 115.2c0 46.933 14.933 85.333 44.8 115.2s68.267 44.8 115.201 44.8c46.931 0 85.331-14.933 115.2-44.8 29.866-29.867 44.8-68.267 44.8-115.2s-14.934-85.334-44.8-115.2c-29.869-29.866-68.269-44.8-115.2-44.8zM96 116.909c-9.173 0-16.853 2.986-23.040 8.96s-8.96 13.654-8.96 23.040v68.266c0 24.96 6.187 47.36 18.773 67.629 12.373 20.266 30.293 35.411 53.973 45.226 53.333 23.466 100.693 40.106 142.507 49.706 41.601 9.6 83.627 14.294 126.292 14.294 42.669 0 84.694-4.906 125.869-14.294 41.171-9.6 88.531-26.24 141.866-49.706 23.466-10.666 41.6-26.026 54.4-45.866s19.2-42.24 19.2-67.2v-68.269c0-9.171-2.986-16.851-8.96-23.040-5.974-5.971-13.654-8.96-23.040-8.96l-618.88 0.214z" />
<glyph unicode="&#xe957;" glyph-name="person-solid" d="M512 459.094c-46.934 0-85.334 14.931-115.2 44.8-29.869 29.866-44.8 68.266-44.8 115.2s14.931 85.333 44.8 115.199c29.866 29.867 68.266 44.8 115.2 44.8 46.931 0 85.331-14.933 115.2-44.8 29.866-29.867 44.8-68.267 44.8-115.199 0-46.934-14.934-85.334-44.8-115.2-29.869-29.869-68.269-44.8-115.2-44.8zM234.666 116.694c-17.707 0-32.853 6.186-45.227 18.771-12.373 12.589-18.773 27.52-18.773 45.229v36.266c0 27.094 6.827 50.134 20.267 69.334s30.933 33.706 52.267 43.731c47.573 21.334 93.441 37.334 137.172 48 43.734 10.669 87.68 16 131.629 16 43.946 0 87.891-5.546 131.2-16.426 43.306-11.094 88.96-26.88 136.531-47.574 21.974-10.026 39.894-24.531 53.334-43.731s20.266-42.24 20.266-69.334v-36.266c0-17.709-6.186-32.854-18.771-45.229-12.589-12.371-27.52-18.771-45.229-18.771h-554.665z" />
<glyph unicode="&#xe958;" glyph-name="phone-in-talk-solid" d="M857.6 455.466c-7.894 0-14.72 2.774-20.694 8.534-5.971 5.76-9.811 12.8-11.306 21.334-10.026 73.171-41.174 136.106-93.44 188.159-52.266 52.267-114.986 83.413-188.374 93.44-8.531 1.493-15.571 5.12-21.331 11.093s-8.534 13.44-8.534 21.973c0 9.173 3.2 17.067 9.6 23.467s14.294 8.96 23.466 7.467c90.24-10.027 167.469-46.933 231.469-110.933s100.906-141.226 110.931-231.466c1.494-9.174-1.066-17.069-7.466-23.469s-14.506-9.6-24.534-9.6h0.214zM674.134 455.466c-7.040 0-13.654 2.349-19.629 7.040-5.971 4.694-10.026 10.88-12.371 18.774-7.040 24.96-19.629 46.294-37.76 64.426-18.134 18.134-39.68 30.72-64.64 37.76-7.894 2.134-14.080 5.76-18.774 11.094s-7.040 11.946-7.040 19.626c0 10.669 3.626 19.2 10.666 25.6s15.574 8.534 25.6 6.401c38.4-9.172 71.469-27.732 99.2-55.467 27.734-27.734 46.509-60.8 56.534-99.2 2.134-10.026 0-18.56-6.4-25.6s-14.934-10.666-25.6-10.666l0.214 0.211zM848 64c-86.826 0-173.014 21.334-258.56 64s-162.774 98.134-231.040 166.4c-68.267 68.266-123.733 145.28-166.4 231.040s-64 171.947-64 258.56c0 13.44 4.693 24.96 13.867 34.133s20.693 13.867 34.133 13.867h149.334c10.026 0 18.771-3.413 26.24-10.027 7.466-6.827 12.371-15.787 14.291-27.307l28.8-134.4c1.494-10.027 1.28-18.987-0.426-27.092-1.706-8.109-5.546-15.149-11.094-20.694l-106.666-107.734c39.893-66.131 84.48-123.731 133.76-172.8 49.494-49.066 105.386-90.666 168.106-124.8l101.334 104.534c7.040 7.894 15.36 13.226 24.534 16.426 9.171 3.2 18.56 3.84 27.731 1.709l126.934-27.734c10.666-2.134 19.626-7.466 26.666-16s10.669-18.56 10.669-29.866v-144c0-13.44-4.694-24.96-13.869-34.134-9.171-9.174-20.691-13.866-34.131-13.866l-0.214-0.214z" />
<glyph unicode="&#xe959;" glyph-name="pie-chart-solid" d="M923.731 560.214c-39.466 145.281-153.811 259.414-299.091 299.094-40.534 11.093-80.214-20.053-80.214-62.080v-253.225c0-35.414 28.586-64 64-64h253.226c42.029 0 72.96 39.891 62.080 80.211zM624.854 36.694c145.28 39.466 259.414 153.811 299.094 299.091 11.091 40.534-20.054 80.214-62.080 80.214h-253.229c-35.411 0-64-28.586-64-64v-253.226c0-42.029 39.894-72.96 80.214-62.080zM85.76 447.997c0-196.48 132.907-361.811 313.815-411.091 40.746-11.094 80.851 19.626 80.851 61.866v698.453c0 42.24-40.106 72.96-80.851 61.867-180.695-49.28-313.815-214.613-313.815-411.094z" />
<glyph unicode="&#xe95a;" glyph-name="place-solid" d="M750.294 779.735c-68.694 63.36-148.054 94.933-238.294 94.933s-169.811-31.573-238.292-94.933c-68.693-63.36-103.040-148.266-103.040-254.935 0-71.040 28.373-148.48 84.907-232.106 53.12-78.294 131.414-162.774 235.52-253.44 11.946-10.454 30.080-10.454 42.026 0 103.894 90.454 182.4 174.934 235.52 253.44 56.534 83.626 84.694 160.854 84.694 232.106 0 106.669-34.346 191.575-103.040 254.935zM511.789 405.334c-70.614 0-128 57.386-128 128s57.386 128 128 128c70.611 0 128-57.386 128-128s-57.389-128-128-128z" />
<glyph unicode="&#xe95b;" glyph-name="query-stats-solid" d="M913.066 2.138l-120.534 119.466c-14.931-10.666-31.146-18.774-48.64-24.534-17.491-5.76-35.411-8.531-53.971-8.531-50.56 0-93.229 17.706-128.429 52.691-35.2 35.2-52.691 78.080-52.691 128.64s17.706 93.44 52.906 128.429c35.2 35.2 78.080 52.691 128.426 52.691 50.349 0 93.44-17.706 128.64-52.906s52.694-78.080 52.694-128.426c0-18.56-2.986-36.48-8.96-53.974s-14.080-33.92-23.894-49.706l119.469-119.469c6.4-6.397 9.811-13.866 10.026-22.397 0.426-8.534-2.56-16-8.96-22.4s-14.080-9.6-23.040-9.6c-8.96 0-16.64 3.2-22.826 9.6l-0.214 0.426zM690.131 152.538c32.64 0 60.374 11.306 83.2 34.131 22.829 22.829 34.134 50.563 34.134 83.2 0 32.64-11.306 60.374-34.134 83.2-22.826 22.829-50.56 34.134-83.2 34.134s-60.371-11.306-83.2-34.134c-22.826-22.826-34.131-50.56-34.131-83.2 0-32.637 11.306-60.371 34.131-83.2 22.829-22.826 50.56-34.131 83.2-34.131zM67.199 221.869c-7.040 4.909-11.307 11.734-12.8 20.269-1.493 8.531 0 16.426 4.267 23.466l161.067 257.066c5.76 9.174 14.080 14.294 25.173 14.934s20.053-2.774 27.093-10.666l99.201-116.269 144 232.535c5.76 10.027 14.291 15.147 26.24 15.573 11.731 0.427 20.906-4.48 27.091-14.507l88.534-131.202c-11.306-1.491-22.4-3.84-33.066-7.040-10.669-3.2-21.334-6.826-32-11.091l-48 73.6-139.734-228.269c-5.76-9.171-14.080-14.291-24.96-14.931-11.094-0.64-20.054 2.771-27.094 10.666l-100.265 117.334-138.667-221.869c-4.907-7.891-11.947-12.797-20.693-14.931-8.96-2.134-17.28-0.426-25.173 5.331h-0.213zM769.066 502.403c-10.666 4.266-21.76 7.040-33.066 8.534-11.309 1.491-23.040 2.771-35.2 4.266l210.131 330.667c4.909 7.893 11.949 12.587 20.694 14.507s17.28 0 24.96-5.973c7.040-4.907 11.52-11.733 13.226-20.267 1.709-8.533 0-16.427-4.906-23.467l-196.266-308.267h0.426z" />
<glyph unicode="&#xe95c;" glyph-name="question-answer-solid" d="M139.945 266.237c-20.053-20.051-54.613-5.971-54.613 22.614v517.974c0 10.027 4.693 19.84 13.867 29.867s18.773 14.933 28.8 14.933h553.601c10.666 0 20.691-4.693 29.866-14.507 9.174-9.6 13.866-19.627 13.866-30.293v-379.734c0-10.026-4.691-19.84-13.866-29.866-9.174-10.029-19.2-14.934-29.866-14.934h-425.601l-116.053-116.054zM299.732 168.957c-10.027 0-19.84 4.909-29.44 14.934s-14.507 19.84-14.507 29.866v104.534h448c47.146 0 85.334 38.186 85.334 85.334v277.333h106.666c10.026 0 19.626-4.907 28.8-14.933s13.866-20.267 13.866-30.934v-558.506c0-28.589-34.56-42.88-54.611-22.614l-114.989 114.986h-469.119z" />
</font>
</defs>
</svg>
