<?xml version="1.0" standalone="no"?>
<!DOCTYPE svg PUBLIC "-//W3C//DTD SVG 1.1//EN" "http://www.w3.org/Graphics/SVG/1.1/DTD/svg11.dtd" >
<svg xmlns="http://www.w3.org/2000/svg">
<metadata>Generated by IcoMoon</metadata>
<defs>
<font id="bevi-icon" horiz-adv-x="1024">
<font-face units-per-em="1024" ascent="960" descent="-64" />
<missing-glyph horiz-adv-x="1024" />
<glyph unicode="&#x20;" horiz-adv-x="512" d="" />
<glyph unicode="&#xe900;" glyph-name="account-box-solid" d="M514.134 363.734c41.171 0 76.16 14.291 104.531 42.666 28.374 28.374 42.669 63.36 42.669 104.534 0 41.171-14.294 76.16-42.669 104.531-28.371 28.374-63.36 42.668-104.531 42.668-41.174 0-76.16-14.293-104.534-42.668-28.374-28.371-42.666-63.36-42.666-104.531 0-41.174 14.291-76.16 42.666-104.534s63.36-42.666 104.534-42.666zM192 64c-17.067 0-32 6.4-44.8 19.2s-19.2 27.734-19.2 44.8v640c0 17.067 6.4 32 19.2 44.8s27.733 19.2 44.8 19.2h640c17.066 0 32-6.4 44.8-19.2s19.2-27.733 19.2-44.8v-640c0-17.066-6.4-32-19.2-44.8s-27.734-19.2-44.8-19.2h-640zM192 128h640v39.466c-42.666 39.894-91.094 72.109-145.066 96.64-53.974 24.534-112.429 36.909-174.934 36.909s-120.96-12.374-174.934-36.909c-53.972-24.531-102.399-56.746-145.066-96.64v-39.466z" />
<glyph unicode="&#xe901;" glyph-name="agriculture-solid" d="M154.667 549.331c-7.893 0-14.507 3.2-20.267 9.6s-8.533 13.866-8.533 22.4c0 8.531 2.773 16 8.533 22.4s12.373 9.6 20.267 9.6h158.933c20.694 0 36.694-6.4 48-19.2s18.774-27.734 22.4-44.8h-229.333zM245.333 145.062c38.4 0 71.040 13.44 98.132 40.534 27.094 27.094 40.534 59.734 40.534 98.134s-13.44 71.040-40.534 98.131c-27.092 27.094-59.732 40.534-98.132 40.534s-71.040-13.44-98.133-40.534c-27.093-27.091-40.533-59.731-40.533-98.131s13.44-71.040 40.533-98.134c27.093-27.094 59.733-40.534 98.133-40.534zM837.334 145.062c21.971 0 40.96 7.894 56.531 23.469 15.574 15.571 23.469 34.56 23.469 56.531 0 21.974-7.894 40.96-23.469 56.534-15.571 15.574-34.56 23.466-56.531 23.466-21.974 0-40.96-7.891-56.534-23.466s-23.466-34.56-23.466-56.534c0-21.971 7.891-40.96 23.466-56.531 15.574-15.574 34.56-23.469 56.534-23.469zM245.333 209.062c-20.693 0-38.187 7.254-52.907 21.974-14.507 14.506-21.76 32.214-21.76 52.694s7.253 38.186 21.76 52.906c14.507 14.506 32.213 21.76 52.907 21.76s38.187-7.254 52.907-21.76c14.507-14.506 21.76-32.214 21.76-52.906 0-20.694-7.253-38.189-21.76-52.694s-32.213-21.974-52.907-21.974zM837.334 81.062c-39.894 0-73.814 13.44-101.974 40.534s-42.026 60.374-42.026 100.266c0 39.894 14.506 74.24 43.731 103.469 29.229 29.226 63.574 43.731 103.469 43.731 39.891 0 73.171-14.080 100.266-42.24s40.534-62.080 40.534-101.971c0-39.894-14.080-73.814-42.029-101.974-28.16-28.16-62.080-42.026-101.971-42.026v0.211zM243.2 81.062c-56.107 0-103.68 19.629-142.507 59.309-38.827 39.466-58.027 87.251-58.027 143.36 0 56.106 19.627 104.106 59.307 143.571 39.467 39.469 87.253 59.094 143.36 59.094s104.107-19.84 143.572-59.094c39.469-39.466 59.094-87.251 59.094-143.571s-19.84-104.109-59.094-143.36c-39.466-39.469-88.106-59.309-145.706-59.309zM477.866 251.731c0.64 5.76 1.28 11.091 1.709 16 0.426 4.906 0.426 10.24 0.426 16 0 28.371-4.694 55.891-13.866 82.131-9.174 26.24-24.109 50.774-44.8 73.6h27.731c29.869 0 55.040 10.454 75.094 31.574 20.266 20.906 30.506 46.294 30.506 76.16v110.933l-52.266 51.2-65.066-65.067-20.269 19.2 151.469 151.467 19.2-19.2-66.134-66.133 52.266-52.267h290.134c18.56 0 33.706-5.973 45.866-18.133s18.134-27.305 18.134-45.865v-237.869c-13.44 7.894-27.52 14.080-42.026 18.774-14.509 4.694-29.654 7.040-45.229 7.040-41.171 0-78.291-13.654-111.36-40.96-33.066-27.306-55.040-63.574-65.706-108.374h-185.6l-0.214-0.211z" />
<glyph unicode="&#xe902;" glyph-name="arrow-circle-right-solid" d="M534.4 314.666l110.931 110.934c12.374 12.374 12.374 32.426 0 44.8l-110.931 110.934c-12.374 12.371-32.429 12.371-44.8 0-12.374-12.374-12.374-32.429 0-44.8l56.531-56.534h-162.56c-17.491 0-31.571-14.080-31.571-31.574v-0.64c0-17.491 14.080-31.571 31.571-31.571h162.56l-56.531-56.534c-12.374-12.374-12.374-32.426 0-44.8 12.371-12.374 32.426-12.374 44.8 0v-0.214zM512 21.334c-58.24 0-113.494 11.091-165.334 33.706-51.84 22.4-97.28 52.906-136.107 91.734-38.827 38.826-69.333 84.051-91.733 136.106-22.4 51.84-33.493 107.094-33.493 165.334s11.307 114.56 33.493 166.4c22.4 51.839 52.907 97.066 91.733 135.466s84.053 68.693 136.107 91.307c51.84 22.4 107.094 33.707 165.334 33.707s114.56-11.307 166.4-33.493c51.84-22.4 97.066-52.907 135.466-91.307s68.906-83.627 91.306-135.468c22.4-51.84 33.709-107.306 33.709-166.4 0-59.091-11.094-113.491-33.709-165.331-22.4-51.84-52.906-97.28-91.306-136.109-38.4-38.826-83.626-69.331-135.466-91.731s-107.309-33.709-166.4-33.709v-0.211z" />
<glyph unicode="&#xe903;" glyph-name="arrow-selector-tool-solid" d="M632.746 54.186c-13.44-6.4-27.091-7.040-40.531-2.134-13.44 4.909-23.469 14.294-29.869 27.734l-135.466 290.134-125.867-176c-9.173-12.8-21.12-16.64-35.84-11.734-14.507 4.906-21.973 15.36-21.973 30.934v601.599c0 13.44 5.973 23.040 18.133 28.8s23.467 4.693 34.133-3.2l472.533-371.199c12.16-10.029 15.36-21.974 10.026-36.269-5.331-14.291-15.571-21.331-30.291-21.331h-221.869l132.269-286.934c6.4-13.44 7.040-27.094 2.131-40.534-4.906-13.44-14.291-23.466-27.731-29.866h0.211z" />
<glyph unicode="&#xe904;" glyph-name="autorenew-solid" d="M189.867 332.797c-7.040 18.56-12.16 37.334-14.933 56.534s-4.267 38.4-4.267 57.6c0 93.226 33.493 173.44 100.907 240.426 67.201 67.2 147.412 100.907 240.427 100.907h45.866l-65.066 65.067c-5.76 5.76-8.32 12.587-8.106 20.693 0.426 8.107 3.411 15.147 8.96 20.693 5.76 5.76 12.586 8.533 20.906 8.533 8.106 0 15.146-2.773 20.906-8.533l115.2-116.267c3.629-3.627 5.974-7.040 7.469-10.667 1.491-3.627 2.131-7.467 2.131-11.733s-0.64-8.107-2.131-11.733c-1.494-3.627-3.84-7.040-7.469-10.667l-115.2-115.199c-5.76-5.76-12.8-8.534-21.331-8.534-8.534 0-15.574 2.774-21.334 8.534s-8.534 12.8-8.534 21.331c0 8.534 2.774 15.574 8.534 21.334l62.934 62.933h-43.734c-76.16 0-141.226-27.093-195.84-81.493-54.613-54.4-81.493-119.68-81.493-195.626 0-17.069 1.493-33.494 4.267-49.069 2.773-15.571 6.4-30.506 10.667-44.8 1.493-4.906 1.493-10.24 0-16s-3.84-10.24-7.467-13.866c-9.173-9.174-19.2-13.014-29.867-11.094-10.667 1.709-18.133 8.749-22.4 20.694zM487.466 1.062l-116.266 115.2c-3.626 3.629-5.974 7.040-7.466 10.669-1.494 3.626-2.134 7.466-2.134 11.731 0 4.269 0.64 8.109 2.134 11.734 1.491 3.626 3.84 7.040 7.466 10.666l116.266 116.269c5.76 5.76 12.589 8.531 20.909 8.531s15.146-2.771 20.906-8.531c5.76-5.76 8.534-12.589 8.534-20.694s-2.774-15.146-8.534-20.694l-65.066-65.066h48c76.16 0 141.226 27.306 195.626 81.706s81.706 119.68 81.706 195.629c0 17.066-1.28 33.706-3.626 49.706-2.56 16-6.186 31.146-11.306 45.226-1.494 4.909-1.494 10.24-0.64 15.574 1.066 5.334 3.411 9.814 7.040 13.226 9.171 9.174 19.2 13.014 29.866 11.094 10.666-1.706 18.134-8.746 22.4-20.906 7.040-18.56 12.374-37.334 15.36-56.534 3.2-19.2 4.694-38.4 4.694-57.6 0-93.226-33.494-173.44-100.694-240.426-67.2-67.2-147.414-100.694-240.426-100.694h-48l65.066-65.066c5.76-5.76 8.534-12.374 8.534-20.269 0-7.891-2.774-14.506-8.534-20.266s-12.586-8.534-20.906-8.534c-8.109 0-15.149 2.774-20.694 8.534l-0.214-0.214z" />
<glyph unicode="&#xe905;" glyph-name="bevipentagono-solid" d="M361.882 377.818c0-6.611 1.706-20.906 5.334-32.426 10.88-34.774 49.066-62.294 84.691-65.28h1.069c-17.069 11.306-28.589 26.24-34.56 42.666-15.574 42.454 13.011 97.28 59.52 116.48 37.76 15.574 81.92 5.12 109.866-21.76 32.214-30.931 31.146-71.891 30.72-78.291-0.214-5.76-2.346-39.254-28.374-66.349-40.32-42.026-103.251-32.64-122.88-29.651-5.12 0.851-29.651 4.691-58.24 19.2-17.28 8.96-33.28 20.266-47.36 33.706 2.134-4.906 42.454-91.946 133.974-103.040 10.88-1.28 71.254-7.466 121.814 35.2 40.746 34.346 49.706 78.934 51.626 90.454 4.694 27.731 1.494 56.32-8.96 82.56-7.68 19.2-19.2 36.48-33.92 51.2-42.666 42.026-96.64 44.371-104.746 44.586-38.829 1.066-78.080-11.946-107.309-38.614 0 50.349-0.211 100.909-0.426 151.254-4.48 23.68-34.774 38.827-52.906 34.774 0-223.359 0.64-140.374 0-232.748l0.426-33.92h0.64zM511.856 794.242c3.2 0 7.891-0.64 12.586-4.053l341.76-248.32c7.466-5.546 10.666-14.934 7.68-23.894l-130.56-401.706c-2.774-8.746-11.094-14.72-20.266-14.72h-422.402c-9.173 0-17.493 5.974-20.267 14.72l-130.56 401.92c-2.773 8.746 0.213 18.346 7.68 23.894l341.759 248.106c4.694 3.413 9.389 4.053 12.589 4.053zM511.856 858.242c-17.709 0-35.2-5.333-50.134-16.213l-341.761-248.32c-29.867-21.76-42.453-60.16-30.933-95.36l130.56-401.706c11.52-35.2 44.16-58.88 81.067-58.88h422.402c36.906 0 69.76 23.891 81.066 58.88l130.56 401.706c11.52 35.2-1.066 73.6-30.934 95.36l-341.76 248.32c-14.931 10.88-32.64 16.213-50.131 16.213z" />
<glyph unicode="&#xe906;" glyph-name="beviprotege-solid" d="M841.6 739.842c-7.894 11.093-17.706 18.987-29.866 23.893l-277.334 103.467c-7.894 2.773-15.36 4.267-22.4 4.267s-14.506-1.493-22.4-4.267l-277.333-103.467c-12.16-4.907-21.973-13.013-29.867-23.893-7.893-11.093-11.733-23.253-11.733-36.693v-209.066c0-106.029 30.507-203.094 91.733-291.84 61.226-88.534 139.306-146.989 234.666-175.36 2.134-0.64 4.48-1.28 7.040-1.709 2.56-0.426 5.12-0.64 8.109-0.64l14.931 2.134c95.36 28.374 173.44 86.826 234.669 175.36 61.226 88.534 91.731 185.814 91.731 291.84v209.067c0 13.44-3.84 25.813-11.731 36.693l-0.214 0.213zM652.16 462.083c-8.32-15.36-19.414-31.36-33.28-48-13.866-16.429-30.080-33.494-48.64-50.774s-37.974-35.2-58.24-53.334c-20.48 18.349-39.894 36.054-58.24 53.334-18.56 17.28-34.56 34.346-48.64 50.774-13.866 16.426-24.96 32.426-33.28 48-8.32 15.571-12.374 30.291-12.374 44.586 0 22.614 7.68 41.386 22.829 56.746 15.146 15.36 34.131 22.829 56.746 22.829 13.014 0 26.026-3.629 38.826-10.669 12.8-7.251 24.32-16.851 34.134-29.011 10.026 12.16 21.334 21.76 34.134 29.011 12.8 7.254 25.811 10.669 38.826 10.669 22.614 0 41.386-7.68 56.746-22.829 15.36-15.146 22.829-34.131 22.829-56.746 0-14.294-4.054-29.226-12.374-44.586z" />
<glyph unicode="&#xe907;" glyph-name="blocks-solid" d="M128 522.666v266.668c0 23.467 19.2 42.667 42.667 42.667h266.668c23.466 0 42.666-19.2 42.666-42.667v-266.668c0-23.466-19.2-42.666-42.666-42.666h-266.668c-23.467 0-42.667 19.2-42.667 42.666zM128 106.666v266.669c0 23.466 19.2 42.666 42.667 42.666h266.668c23.466 0 42.666-19.2 42.666-42.666v-266.669c0-23.466-19.2-42.666-42.666-42.666h-266.668c-23.467 0-42.667 19.2-42.667 42.666zM544 522.666v266.668c0 23.467 19.2 42.667 42.666 42.667h266.669c23.466 0 42.666-19.2 42.666-42.667v-266.668c0-23.466-19.2-42.666-42.666-42.666h-266.669c-23.466 0-42.666 19.2-42.666 42.666zM544 106.666v266.669c0 23.466 19.2 42.666 42.666 42.666h266.669c23.466 0 42.666-19.2 42.666-42.666v-266.669c0-23.466-19.2-42.666-42.666-42.666h-266.669c-23.466 0-42.666 19.2-42.666 42.666zM608 544h224v224h-224v-224z" />
<glyph unicode="&#xe908;" glyph-name="bolt-solid" d="M709.12 522.026h-152.96l42.454 291.2c3.411 23.040-27.52 34.133-39.469 14.080l-262.612-438.615c-8.533-14.291 1.707-32.211 18.347-32.211h152.96l-42.454-291.2c-3.411-23.040 27.309-34.134 39.469-14.080l262.826 438.4c8.534 14.291-1.706 32.211-18.346 32.211l-0.214 0.214z" />
<glyph unicode="&#xe909;" glyph-name="book-solid" d="M800 234.666c29.44 0 53.334 23.891 53.334 53.331v533.334c0 29.44-23.894 53.333-53.334 53.333h-501.333c-70.613 0-128-57.387-128-128v-597.333c0-70.614 57.387-128 128-128h501.333c29.44 0 53.334 23.891 53.334 53.334 0 29.44-23.894 53.331-53.334 53.331h-10.666v106.669h10.666zM341.334 618.666h341.331v-42.669h-341.331v42.669zM341.334 533.331h341.331v-42.666h-341.331v42.666zM725.334 127.997h-391.254c-27.947 0-53.333 20.054-56.107 47.789-3.2 32 21.76 58.88 53.121 58.88h394.24v-106.669z" />
<glyph unicode="&#xe90a;" glyph-name="campaign-solid" d="M786.666 448.003c0 17.709 14.294 32 32 32h96c17.706 0 32-14.291 32-32 0-17.706-14.294-32-32-32h-96c-17.706 0-32 14.294-32 32zM814.4 125.658l-77.654 57.814c-14.294 10.666-17.066 30.72-6.4 44.8s30.506 17.066 44.8 6.4l77.654-57.814c14.291-10.666 17.066-30.72 6.4-44.8-10.669-14.080-30.509-17.066-44.8-6.4zM733.331 668.804c-10.666 14.080-7.68 34.133 6.4 44.8l74.669 56.32c14.080 10.667 34.346 7.893 44.8-6.4 10.666-14.080 7.68-34.133-6.4-44.8l-74.669-56.32c-14.080-10.667-34.346-7.893-44.8 6.4zM231.999 149.338v170.666h-74.667c-17.707 0-32.853 6.189-45.227 18.774s-18.773 27.52-18.773 45.226v128c0 17.709 6.187 32.854 18.773 45.229 12.587 12.371 27.52 18.771 45.227 18.771h191.999l213.334 128.001v-512.001l-213.334 128h-53.332v-170.666h-64zM605.331 305.072v285.866c19.2-17.066 34.56-37.76 46.294-62.294 11.734-24.531 17.706-51.411 17.706-80.64 0-29.226-5.76-55.891-17.706-80.426-11.734-24.534-27.094-45.226-46.294-62.506z" />
<glyph unicode="&#xe90b;" glyph-name="chalkboard-user-solid" d="M853.334 789.336h-512c-47.148 0-85.334-38.187-85.334-85.333v-48c13.653 3.627 27.947 5.547 42.667 5.547 7.253 0 14.293-0.64 21.333-1.493 84.054-10.453 149.334-82.347 149.334-169.173 0-56.96-28.16-107.094-71.040-138.24 10.026-3.2 19.84-7.040 29.226-11.52 31.574-14.934 59.094-36.909 80.214-64h345.386c47.146 0 85.334 38.186 85.334 85.331v341.548c0 47.147-38.189 85.333-85.334 85.333h0.214zM256.001 370.56c13.44-4.694 27.733-7.466 42.667-7.466 7.253 0 14.293 0.851 21.332 1.92 60.589 10.24 106.669 62.72 106.669 126.080s-46.080 115.84-106.669 126.080c-7.039 1.066-14.079 1.92-21.332 1.92-14.933 0-29.227-2.774-42.667-7.469-49.707-17.491-85.333-64.851-85.333-120.531s35.627-103.040 85.333-120.534zM449.494 277.334c-31.36 26.666-72.106 42.666-116.906 42.666h-68.055c-98.987 0-179.2-78.506-179.2-177.494 0-19.84 16-35.84 35.84-35.84h354.986c19.84 0 35.84 16.214 35.84 35.84 0 54.4-24.32 102.4-62.506 134.829z" />
<glyph unicode="&#xe90c;" glyph-name="chart-line-up-solid" d="M874.666 789.336h-725.333c-35.413 0-64-28.587-64-64v-404.267l233.387 234.026c12.587 12.589 32.852 12.589 45.227 0l147.2-147.2 189.014 189.014h-101.334c-17.706 0-32 14.294-32 32s14.294 32 32 32h179.414c17.706 0 32-14.293 32-32v-177.706c0-17.709-14.294-32-32-32-17.709 0-32 14.291-32 32v101.331l-212.48-212.48c-12.589-12.586-32.854-12.586-45.229 0l-147.2 147.2-255.999-256.851v-56.534c0-35.414 28.587-64 64-64h725.333c35.414 0 64 28.586 64 64v551.467c0 35.413-28.586 64-64 64z" />
<glyph unicode="&#xe90d;" glyph-name="cloud-solid" d="M267.733 107.302c-62.507 0-115.84 21.76-159.36 65.709-43.733 43.731-65.707 96.851-65.707 159.36 0 55.466 17.707 104.106 53.333 146.131 35.627 42.029 80.64 67.2 135.467 75.734 14.293 68.906 47.573 125.44 100.268 169.174 52.691 43.733 113.491 65.707 182.4 65.707 79.571 0 146.771-29.013 201.6-86.827 54.826-58.027 82.131-127.574 82.131-208.428v-25.6c51.2 1.494 94.509-15.146 130.134-49.706s53.334-78.080 53.334-130.56c0-49.066-17.709-91.306-53.334-126.934-35.626-35.626-77.866-53.331-126.934-53.331l-533.332-0.429z" />
<glyph unicode="&#xe90e;" glyph-name="construction-solid" d="M794.666 85.552l-237.866 236.8 60.8 60.8 237.866-237.866c8.534-8.534 12.8-18.56 12.8-29.866 0-11.309-4.266-21.334-12.8-29.869-8.531-8.531-18.56-12.8-30.291-12.8-11.734 0-21.974 4.269-30.294 12.8h-0.214zM174.933 85.552c-8.533 8.534-12.8 18.774-12.8 30.294s4.267 21.76 12.8 30.294l278.401 278.4-114.134 114.131-2.134-2.131c-6.4-6.4-13.866-9.6-22.399-9.6s-16 3.2-22.4 9.6l-24.533 24.531v-90.666l-8.533-8.534c-4.907-4.906-10.667-7.466-17.067-7.466s-12.16 2.56-17.067 7.466l-96 96c-4.907 4.909-7.467 10.669-7.467 17.069s2.56 12.16 7.467 17.066l8.533 8.534h91.733l-28.8 28.8c-6.4 6.4-9.6 13.866-9.6 22.399s3.2 16 9.6 22.4l117.333 117.333c12.159 12.16 25.173 20.267 39.468 24.533 14.291 4.267 29.866 6.4 46.931 6.4 17.069 0 32.64-2.987 46.934-9.173 14.294-5.973 27.306-15.147 39.466-27.307l-114.131-114.133 28.8-28.8c6.4-6.402 9.6-13.867 9.6-22.402 0-8.531-3.2-16-9.6-22.4l-3.2-3.2 110.931-110.931 130.134 130.131c-5.76 9.174-10.24 19.84-13.226 32.002-3.2 12.16-4.909 24.96-4.909 38.4 0 37.76 13.654 70.187 40.96 97.493 27.309 27.307 59.949 40.96 97.494 40.96 10.666 0 19.84-1.067 27.306-3.2 7.469-2.133 13.654-4.907 18.774-8.533l-90.666-90.667 80-80 90.666 90.667c3.626-5.76 6.614-12.587 8.96-20.907 2.56-8.107 3.626-17.493 3.626-28.16 0-37.76-13.651-70.186-40.96-97.495-27.306-27.306-59.946-40.96-97.706-40.96-12.8 0-23.894 0.854-33.066 2.56-9.174 1.709-17.709 4.48-25.6 8.109l-470.188-469.974c-8.533-8.534-18.56-12.586-29.867-12.374-11.307 0.429-21.333 4.909-29.867 13.229v0.211z" />
<glyph unicode="&#xe90f;" glyph-name="credit-card-solid" d="M149.333 106.662c-17.067 0-32 6.4-44.8 19.2s-19.2 27.731-19.2 44.8v554.666c0 17.067 6.4 32 19.2 44.8s27.733 19.2 44.8 19.2h725.332c17.069 0 32-6.4 44.8-19.2s19.2-27.733 19.2-44.8v-554.666c0-17.069-6.4-32-19.2-44.8s-27.731-19.2-44.8-19.2h-725.332zM149.333 471.462h725.332v137.6h-725.332v-137.6z" />
<glyph unicode="&#xe910;" glyph-name="cube-solid" d="M161.279 635.571l340.267-196.691c6.614-3.84 14.72-3.84 21.334 0l341.546 196.691c14.080 8.109 14.294 28.589 0 36.909l-307.414 179.84c-26.451 15.573-59.306 15.573-85.971 0l-309.974-179.84c-14.080-8.32-14.080-28.8 0-36.909h0.213zM160.853 569.008l308.267-173.011c6.826-3.84 10.88-10.88 10.88-18.56v-330.029c0-16.426-17.706-26.666-32-18.56l-309.333 178.349c-6.613 3.84-10.667 10.88-10.667 18.56l0.853 324.48c0 16.211 17.493 26.451 31.787 18.56l0.213 0.211zM864.426 565.392l-309.12-165.76c-6.826-3.626-11.306-10.88-11.306-18.774v-333.226c0-16.426 17.706-26.666 32-18.56l307.84 178.346c6.614 3.84 10.666 10.88 10.666 18.349l1.28 320.64c0 16.211-17.066 26.451-31.36 18.986z" />
<glyph unicode="&#xe911;" glyph-name="directions-car-solid" d="M213.333 196.262v-57.6c0-9.174-2.987-16.854-9.173-23.040-5.973-5.974-13.653-8.96-22.827-8.96h-21.333c-9.173 0-16.853 2.986-22.827 8.96-5.973 5.971-9.173 13.651-9.173 23.040v345.6l90.667 273.066c3.627 10.027 9.387 17.707 17.493 23.467s17.493 8.533 28.16 8.533h494.934c10.666 0 20.051-2.773 28.371-8.533 8.109-5.76 14.080-13.44 17.709-23.467l90.666-273.066v-345.6c0-9.174-2.986-16.854-8.96-23.040-5.974-6.189-13.654-8.96-23.040-8.96h-22.4c-9.174 0-16.854 2.986-23.040 8.96-6.186 5.971-8.96 13.651-8.96 23.040v57.6h-596.267zM216.533 548.262h590.932l-58.666 177.066h-473.6l-58.667-177.066zM305.067 313.594c16.428 0 30.079 5.76 40.959 17.069 11.094 11.306 16.429 24.96 16.429 40.531 0 15.574-5.549 30.294-16.429 42.24-11.091 11.734-24.746 17.709-41.172 17.709s-30.507-5.76-42.24-17.709c-11.733-11.731-17.707-25.811-17.493-42.24 0-16.426 5.76-30.080 17.493-40.96 11.733-11.091 25.813-16.426 42.24-16.426l0.213-0.214zM720 313.594c16.426 0 30.294 5.76 42.026 17.069 11.734 11.306 17.709 24.96 17.709 40.531 0 15.574-5.974 30.294-17.709 42.24-11.731 11.734-25.811 17.709-42.026 17.709-16.426 0-30.080-5.76-40.96-17.709-11.094-11.731-16.426-25.811-16.426-42.24 0-16.426 5.76-30.080 17.066-40.96 11.306-11.091 24.96-16.426 40.534-16.426l-0.214-0.214z" />
<glyph unicode="&#xe912;" glyph-name="door-open-solid" d="M864 133.331h-54.186v541.866c0 39.467-32 71.467-71.469 71.467h-99.2v19.413c0 41.173-38.4 71.68-78.72 62.293l-298.666-70.187c-29.013-6.827-49.28-32.64-49.28-62.293v-562.559h-52.48c-17.707 0-32-14.294-32-32s14.293-32 32-32h704c17.706 0 32 14.294 32 32s-14.294 32-32 32zM511.574 378.666c-17.709 0-32 14.291-32 32 0 17.706 14.291 32 32 32 17.706 0 32-14.294 32-32 0-17.709-14.294-32-32-32zM738.346 675.197v-534.186h-99.2v534.186h99.2z" />
<glyph unicode="&#xe913;" glyph-name="eco-solid" d="M496.426 84.266c-29.866 0-57.811 2.774-83.626 8.534-26.026 5.76-49.92 14.294-72.106 25.6 22.826 84.694 53.76 166.614 93.44 245.76s92.586 145.706 159.571 198.826c-79.571-38.4-148.906-91.731-207.571-160-58.669-68.266-98.561-145.706-120.108-232.531-2.773 2.771-5.547 5.331-8.107 7.466s-5.12 4.694-8.107 7.466c-32 32-56.533 68.694-73.6 109.869-17.067 41.171-25.6 84.691-25.6 130.131 0 49.069 9.173 96.429 27.733 141.869s45.227 85.758 80 120.532c54.827 56.107 125.868 92.587 213.333 109.227s218.24 18.987 392.534 6.827c13.44-169.174 11.52-299.094-5.974-389.334s-54.614-163.84-111.36-220.8c-34.134-35.626-72.96-62.72-116.266-81.706-43.309-18.774-88.109-28.374-134.4-28.374l0.211 0.64z" />
<glyph unicode="&#xe914;" glyph-name="emergency-home-solid" d="M556.8 30.506c-5.76-5.76-12.371-10.24-20.266-13.229-7.894-3.2-16-4.691-24.534-4.691-8.531 0-16.64 1.491-24.531 4.691-7.894 3.2-14.509 7.68-20.269 13.229l-373.332 373.12c-5.76 5.76-10.027 12.371-12.8 20.266s-4.267 16-4.267 24.534c0 8.531 1.493 16.64 4.267 24.531 2.773 7.894 7.040 14.509 12.8 20.269l373.332 373.333c5.76 5.76 12.374 10.027 20.269 12.8 7.891 2.773 16 4.267 24.531 4.267 8.534 0 16.64-1.493 24.534-4.267s14.506-7.040 20.266-12.8l373.334-373.333c5.76-5.76 10.026-12.374 12.8-20.269 2.774-7.891 4.266-16 4.266-24.531 0-8.534-1.491-16.64-4.266-24.534s-7.040-14.506-12.8-20.266l-373.334-373.12zM512 405.971c9.174 0 16.854 2.986 23.040 8.96 5.974 5.974 8.96 13.654 8.96 23.040v192c0 9.174-2.986 16.854-8.96 22.827-5.971 5.973-13.651 9.173-23.040 9.173-9.386 0-16.851-2.987-23.040-9.173-5.971-5.973-8.96-13.653-8.96-22.827v-192c0-9.174 2.989-16.854 8.96-23.040 5.974-5.974 13.654-8.96 23.040-8.96zM512 288.637c8.534 0 16 3.2 22.4 9.6s9.6 13.869 9.6 22.4c0 8.534-3.2 16-9.6 22.4s-13.866 9.6-22.4 9.6c-8.531 0-16-3.2-22.4-9.6s-9.6-13.866-9.6-22.4c0-8.531 3.2-16 9.6-22.4s13.869-9.6 22.4-9.6z" />
<glyph unicode="&#xe915;" glyph-name="event-solid" d="M636.8 167.686c-29.226 0-53.76 10.029-73.6 29.869s-29.866 44.371-29.866 73.6c0 29.226 10.026 53.76 29.866 73.6s44.374 29.866 73.6 29.866c29.226 0 53.76-10.026 73.6-29.866s29.866-44.374 29.866-73.6c0-29.229-10.026-53.76-29.866-73.6s-44.374-29.869-73.6-29.869zM192 18.355c-17.067 0-32 6.4-44.8 19.2s-19.2 27.731-19.2 44.8v661.332c0 17.067 6.4 32 19.2 44.8s27.733 19.2 44.8 19.2h69.333v29.44c0 19.2 15.573 34.56 34.56 34.56 19.2 0 34.561-15.573 34.561-34.56v-29.44h362.666v29.44c0 19.2 15.574 34.56 34.56 34.56 19.2 0 34.56-15.573 34.56-34.56v-29.44h69.334c17.066 0 32-6.4 44.8-19.2s19.2-27.733 19.2-44.8v-661.332c0-17.069-6.4-32-19.2-44.8s-27.734-19.2-44.8-19.2h-639.574zM192 82.355h640v458.666h-640v-458.666z" />
<glyph unicode="&#xe916;" glyph-name="face-retouching-natural-solid" d="M476.374-12.157c-59.734 0-115.629 11.091-167.468 33.066s-97.067 52.266-135.467 90.666c-38.4 38.4-68.693 83.629-90.667 135.469s-33.067 107.731-33.067 167.466c0 59.734 11.093 115.626 33.067 167.466s52.267 97.067 90.667 135.467c38.4 38.4 83.627 68.693 135.467 90.667s107.733 33.067 167.468 33.067c29.866 0 57.386-2.56 82.771-7.467 25.174-4.907 55.68-14.293 91.309-27.733l-118.4-51.2 201.6-85.333 67.2-155.733c-94.509-12.16-176.854-3.2-247.040 26.666-69.974 29.869-130.349 74.029-180.909 132.267-24.106-57.598-58.879-107.947-104.106-150.827-45.227-43.091-96.853-76.371-155.093-99.84 0-103.040 35.2-190.506 105.6-262.4 70.4-71.891 156.159-107.731 257.068-107.731 100.906 0 187.52 35.411 257.706 106.026 69.974 70.826 104.96 156.374 104.96 256.64 0 15.574-0.854 29.654-2.56 42.24l-4.694 33.706 38.4 90.669c11.309-30.509 19.629-58.029 24.96-82.134 5.334-24.106 8.109-52.266 8.109-84.266 0-59.094-11.094-114.56-33.069-166.4-21.971-51.84-52.266-97.069-90.666-135.469s-83.626-68.906-135.466-91.306c-51.84-22.4-107.734-33.706-167.469-33.706h-0.211zM341.974 311.043c-16.429 0-30.081 5.546-41.174 16.426-11.093 11.094-16.64 24.746-16.64 41.174 0 16.426 5.547 30.080 16.427 40.96 11.093 11.091 24.748 16.426 40.959 16.426 16.429 0 30.080-5.546 40.96-16.426s16.429-24.749 16.429-40.96c0-16.214-5.549-30.080-16.429-40.96s-24.746-16.429-40.96-16.64h0.429zM611.84 311.043c-16.426 0-30.080 5.546-40.96 16.426s-16.426 24.746-16.426 40.96c0 16.214 5.546 30.080 16.426 40.96s24.746 16.426 40.96 16.426c16.214 0 30.080-5.546 41.174-16.426 11.091-11.094 16.64-24.746 16.64-40.96s-5.549-30.080-16.64-40.96c-11.094-11.094-24.749-16.426-41.174-16.426zM821.974 602.243l-48 108.798-105.6 44.8 105.6 43.733 48 108.8 46.931-108.8 105.6-43.733-105.6-44.8-46.931-108.798z" />
<glyph unicode="&#xe917;" glyph-name="falabevi-solid" d="M512 875.099c-212.053 0-384.213-171.947-384.213-384.002 0-212.051 171.947-384.211 384.213-384.211v-85.974c206.294 41.814 364.374 216.106 382.080 430.294 1.28 13.226 2.134 26.451 2.134 39.891 0 212.055-171.949 384.215-384.214 384.215v-0.213zM512 277.126c-117.76 0-213.333 95.571-213.333 213.331h426.668c0-117.76-95.574-213.331-213.334-213.331z" />
<glyph unicode="&#xe918;" glyph-name="fgts-solid" d="M281.6 678.4h542.934c39.466 0 71.466 32 71.466 71.467v82.133h-768v-768h82.133c39.467 0 71.467 32 71.467 71.466v542.934zM588.8 603.533c-128.214 0-232.32-103.894-232.32-232.32 0-53.12 18.134-101.974 48-141.014l325.334 325.334c-39.040 30.080-87.894 48-141.014 48z" />
<glyph unicode="&#xe919;" glyph-name="groups-solid" d="M32 192c-9.173 0-16.853 2.986-23.040 8.96-5.973 5.974-8.96 13.654-8.96 23.040v24.534c0 27.731 14.72 50.131 44.373 67.2 29.44 17.066 68.053 25.6 115.627 25.6 8.533 0 16.853 0 25.173-0.429 8.32-0.426 16.213-1.28 23.893-2.56-5.76-12.16-10.027-24.531-12.8-37.331s-4.267-26.24-4.267-40.534v-68.266h-160v-0.214zM288 192c-9.173 0-16.853 2.986-22.827 8.96s-9.173 13.654-9.173 23.040v36.266c0 46.294 23.68 83.629 70.826 112.429 47.36 28.8 109.014 43.091 185.174 43.091s138.666-14.506 185.6-43.091c46.934-28.8 70.4-66.349 70.4-112.429v-36.266c0-9.174-2.986-16.854-8.96-23.040s-13.654-8.96-23.040-8.96h-448zM832 192v68.266c0 14.294-1.494 27.734-4.266 40.534-2.774 12.8-7.040 25.174-12.8 37.334 7.891 1.491 15.786 2.346 23.891 2.56 8.109 0.426 16.64 0.426 24.96 0.426 47.574 0 86.189-8.534 115.629-25.6s44.371-39.466 44.371-67.2v-24.534c0-9.171-2.986-16.851-8.96-23.040-5.971-6.186-13.651-8.96-23.040-8.96h-160l0.214 0.214zM160 373.334c-20.693 0-38.187 7.251-52.693 21.76-14.507 14.506-21.973 32.211-21.973 52.906s7.253 38.186 21.973 52.906c14.507 14.509 32.213 21.76 52.693 21.76s38.187-7.251 52.907-21.76c14.507-14.506 21.76-32.211 21.76-52.906s-7.253-38.186-21.76-52.906c-14.507-14.509-32.213-21.76-52.907-21.76zM864 373.334c-20.694 0-38.186 7.251-52.694 21.76-14.506 14.506-21.971 32.211-21.971 52.906s7.251 38.186 21.971 52.906c14.509 14.509 32.214 21.76 52.694 21.76s38.186-7.251 52.694-21.76c14.506-14.506 21.971-32.211 21.971-52.906s-7.251-38.186-21.971-52.906c-14.509-14.509-32.214-21.76-52.694-21.76zM512 448c-35.626 0-65.706 12.374-90.666 37.334s-37.334 55.040-37.334 90.666c0 35.626 12.374 65.707 37.334 90.667s55.040 37.333 90.666 37.333c35.626 0 65.706-12.373 90.666-37.333s37.334-55.041 37.334-90.667c0-35.626-12.374-65.706-37.334-90.666s-55.040-37.334-90.666-37.334z" />
<glyph unicode="&#xe91a;" glyph-name="hand-archive-solid" d="M345.6 872.531h332.8c11.734 0 21.334-9.6 21.334-21.333v-84.693h-375.466v84.693c0 11.733 9.6 21.333 21.331 21.333zM352.854 723.844v-233.172c0-23.469 19.2-42.669 42.666-42.669h233.174c23.466 0 42.666 19.2 42.666 42.669v233.172h-318.506zM597.334 590.938h-170.669v63.999h170.669v-63.999zM489.814 180.909c43.52 31.574 98.346 44.16 151.466 46.934h32.214c48.64-1.28 88.531 47.786 76.8 95.36-8.32 36.054-43.309 62.080-80 62.080h-292.054c-104.32 4.48-206.080-72.96-234.24-170.24 0.427 0 290.986-102.614 291.414-102.826 11.306 27.52 30.72 50.986 54.4 68.48v0.211zM921.386 473.818c-33.92 22.829-79.571 16.64-106.026-14.72l-54.4-69.971c14.72-15.36 25.6-34.134 30.506-55.469 8.749-34.986 0.429-71.891-22.611-101.331s-58.029-46.934-93.869-46.934h-32.64c-52.906-2.986-95.571-16-126.72-38.4h148.269c0 0 124.16-1.494 205.011 109.654 47.149 64.851 57.174 81.066 57.174 81.066l17.066 25.814c24.32 36.48 14.509 85.76-21.971 110.291h0.211zM402.774 78.512c-63.574 22.4-271.361 95.574-273.068 96.214l-18.347 6.4-50.773-163.2h369.708l13.226 46.291-22.4 7.894-18.346 6.4z" />
<glyph unicode="&#xe91b;" glyph-name="hand-credit-card-solid" d="M746.666 832h-469.332c-23.467 0-42.667-19.2-42.667-42.667v-255.999c0-23.469 19.2-42.669 42.667-42.669h469.332c23.469 0 42.669 19.2 42.669 42.669v255.999c0 23.467-19.2 42.667-42.669 42.667zM746.666 597.334c0-11.734-9.6-21.334-21.331-21.334h-21.334c-11.734 0-21.334 9.6-21.334 21.334v21.331c0 11.734 9.6 21.334 21.334 21.334h21.334c11.731 0 21.331-9.6 21.331-21.334v-21.331zM746.666 716.373h-469.332v64h469.332v-64zM489.814 180.909c43.52 31.574 98.346 44.16 151.466 46.934h32.214c48.64-1.28 88.531 47.786 76.8 95.36-8.32 36.054-43.309 62.080-80 62.080h-292.054c-104.32 4.48-206.080-72.96-234.24-170.24 0.427 0 290.986-102.614 291.414-102.826 11.306 27.52 30.72 50.986 54.4 68.48v0.211zM921.386 473.818c-33.92 22.829-79.571 16.64-106.026-14.72l-54.4-69.971c14.72-15.36 25.6-34.134 30.506-55.469 8.749-34.986 0.429-71.891-22.611-101.331s-58.029-46.934-93.869-46.934h-32.64c-52.906-2.986-95.571-16-126.72-38.4h148.269c0 0 124.16-1.494 205.011 109.654 47.149 64.851 57.174 81.066 57.174 81.066l17.066 25.814c24.32 36.48 14.509 85.76-21.971 110.291h0.211zM402.774 78.512c-63.574 22.4-271.361 95.574-273.068 96.214l-18.347 6.4-50.773-163.2h369.708l13.226 46.291-22.4 7.894-18.346 6.4z" />
<glyph unicode="&#xe91c;" glyph-name="hand-house-solid" d="M489.814 180.909c43.52 31.574 98.346 44.16 151.466 46.934h32.214c48.64-1.28 88.531 47.786 76.8 95.36-8.32 36.054-43.309 62.080-80 62.080h-292.054c-104.32 4.48-206.080-72.96-234.24-170.24 0.427 0 290.986-102.614 291.414-102.826 11.306 27.52 30.72 50.986 54.4 68.48v0.211zM921.386 473.818c-33.92 22.829-79.571 16.64-106.026-14.72l-54.4-69.971c14.72-15.36 25.6-34.134 30.506-55.469 8.749-34.986 0.429-71.891-22.611-101.331s-58.029-46.934-93.869-46.934h-32.64c-52.906-2.986-95.571-16-126.72-38.4h148.269c0 0 124.16-1.494 205.011 109.654 47.149 64.851 57.174 81.066 57.174 81.066l17.066 25.814c24.32 36.48 14.509 85.76-21.971 110.291h0.211zM402.774 78.512c-63.574 22.4-271.361 95.574-273.068 96.214l-18.347 6.4-50.773-163.2h369.708l13.226 46.291-22.4 7.894-18.346 6.4zM378.026 427.955h292.054c19.84 0 39.254-4.694 56.534-13.44l55.040 70.826 0.426 0.64 0.64 0.64c5.12 6.186 11.094 11.734 17.066 16.64v164.053c0 13.867-6.611 26.667-17.92 34.773l-245.12 175.147c-14.931 10.667-34.771 10.667-49.706 0l-245.12-175.36c-11.307-8.107-17.92-20.907-17.92-34.773v-282.24c6.613 4.054 13.227 8.106 20.053 11.734 39.467 20.48 85.761 31.36 133.972 31.36zM533.334 638.941h42.666v-42.666h-42.666v42.666zM533.334 553.606h42.666v-42.666h-42.666v42.666zM448 638.941h42.666v-42.666h-42.666v42.666zM448 553.606h42.666v-42.666h-42.666v42.666z" />
<glyph unicode="&#xe91d;" glyph-name="hand-money-solid" d="M655.36 605.648c-7.68-7.894-18.134-13.014-31.146-15.574v-10.24c0-4.266-1.28-7.68-4.054-10.451-2.774-2.774-6.186-4.054-10.454-4.054-4.266 0-7.891 1.28-10.451 4.054-2.774 2.56-4.054 6.186-4.054 10.451v9.389c-15.36 1.92-28.586 6.4-39.68 13.44-2.56 1.491-4.266 3.2-5.334 5.12-1.066 1.92-1.491 4.48-1.491 7.68 0 4.266 1.28 7.68 3.626 10.88s5.334 4.48 8.746 4.48c1.709 0 3.414-0.214 4.909-0.854 1.706-0.64 3.84-1.494 6.4-3.2 6.186-3.414 11.731-5.76 17.066-7.040 5.334-1.494 10.88-2.134 16.854-2.134 7.251 0 13.011 1.28 16.851 3.629 3.84 2.346 5.76 5.971 5.76 10.88 0 2.986-1.066 5.331-3.411 7.251-2.349 1.921-5.12 3.414-8.534 4.481s-8.32 2.56-14.934 4.267c-10.451 2.56-18.986 5.333-25.6 8.107-6.611 2.773-12.371 7.040-17.28 12.8-4.906 5.76-7.251 13.44-7.251 23.253 0 11.093 3.84 20.693 11.731 29.013 7.894 8.32 18.134 13.653 30.934 16.213v10.453c0 4.267 1.494 7.68 4.266 10.24 2.774 2.773 6.189 4.053 10.454 4.053s7.894-1.28 10.454-4.053c2.771-2.56 4.051-6.187 4.051-10.453v-9.813c11.52-1.707 22.829-6.187 33.709-13.013 2.56-1.707 4.266-3.413 5.331-5.547 1.069-1.92 1.494-4.48 1.494-7.467 0-4.267-1.28-7.68-3.84-10.88-2.56-2.987-5.334-4.48-8.746-4.48-1.709 0-3.2 0.213-4.694 0.853s-3.84 1.493-6.614 3.2c-1.066 0.64-3.2 1.707-6.4 3.413-3.411 1.707-6.826 3.2-10.666 4.267s-7.894 1.493-12.16 1.493c-6.186 0-11.306-1.28-15.146-4.053s-5.76-6.4-5.76-10.88c0-4.48 2.131-7.68 6.611-10.027s11.52-4.48 21.12-6.613c10.24-2.347 18.774-4.907 25.389-7.467 6.611-2.56 12.371-6.827 17.066-12.8 4.694-5.76 7.254-13.653 7.254-23.466 0-11.306-3.84-20.906-11.52-28.8h-0.854zM607.786 874.234c-116.051 0-210.131-94.080-210.131-210.133s94.080-210.133 210.131-210.133c116.054 0 210.134 94.080 210.134 210.133s-94.080 210.133-210.134 210.133zM607.786 517.754c-80.64 0-146.346 65.709-146.346 146.348s65.706 146.347 146.346 146.347 146.349-65.707 146.349-146.347c0-80.639-65.709-146.348-146.349-146.348zM489.814 180.896c43.52 31.571 98.346 44.16 151.466 46.931h32.214c48.64-1.28 88.531 47.789 76.8 95.36-8.32 36.054-43.309 62.080-80 62.080h-292.054c-104.32 4.48-206.080-72.96-234.24-170.24 0.427 0 290.986-102.611 291.414-102.826 11.306 27.52 30.72 50.986 54.4 68.48v0.214zM921.386 473.802c-33.92 22.829-79.571 16.64-106.026-14.72l-54.4-69.971c14.72-15.36 25.6-34.134 30.506-55.469 8.749-34.986 0.429-71.891-22.611-101.331s-58.029-46.934-93.869-46.934h-32.64c-52.906-2.986-95.571-16-126.72-38.4h148.269c0 0 124.16-1.494 205.011 109.654 47.149 64.851 57.174 81.066 57.174 81.066l17.066 25.814c24.32 36.48 14.509 85.76-21.971 110.291h0.211zM402.774 78.496c-63.574 22.4-271.361 95.574-273.068 96.214l-18.347 6.4-50.773-163.2h369.708l13.226 46.291-22.4 7.894-18.346 6.4z" />
<glyph unicode="&#xe91e;" glyph-name="handshake-business-solid" d="M280.747 702.291l-47.147 23.467c-10.88 5.547-24.32 0.64-29.227-10.667l-111.147-259.414c-4.48-10.454 0-22.4 10.027-27.52l47.147-23.466c10.88-5.549 24.32-0.64 29.227 10.666l111.147 259.414c4.48 10.453 0 22.4-10.027 27.52zM930.774 455.898l-111.149 259.412c-4.906 11.307-18.131 16.213-29.226 10.667l-47.146-23.467c-10.029-5.12-14.509-17.067-10.029-27.52l111.149-259.412c4.906-11.309 18.131-16.214 29.226-10.669l47.146 23.469c10.029 5.12 14.509 17.066 10.029 27.52zM796.374 371.635l1.92 2.56c9.6 12.16 11.731 28.374 5.76 42.666l-85.974 206.72c-6.614 16-22.186 26.241-39.466 26.241h-15.149l-96.64 46.507-0.426-0.427c-8.32 3.627-17.494 5.76-26.88 5.973-17.066 0-33.066-7.040-45.014-19.2l-29.44-29.867h-129.706c-11.734 0-21.333-9.6-21.333-21.333s9.599-21.334 21.333-21.334h87.68l-71.466-72.531c-24.749-25.174-24.32-65.709 0.851-90.454 11.949-11.734 27.949-18.346 44.8-18.346 16.854 0 33.494 6.826 45.654 19.2l103.254 104.746c0 0 0.426-0.214 0.64-0.426l197.546-187.734c0.854-1.28 1.494-2.774 2.774-4.054l36.051-36.051c8.32-8.32 8.32-21.76 0-30.080-8.106-8.109-22.186-8.109-30.080 0l-158.931 158.931c-8.32 8.32-21.76 8.32-30.080 0 0 0 0-0.211-0.214-0.426 0 0-0.214 0-0.426-0.214-8.32-8.32-8.32-21.76 0-30.080l137.6-137.6c8.32-8.32 8.32-21.76 0-30.080-8.109-8.106-22.189-8.106-30.080 0l-112.854 112.854c0 0-0.214 0-0.426 0.214l-23.040 23.040c-8.32 8.32-21.76 8.32-30.080 0s-8.32-21.76 0-30.294l106.451-107.094c8.32-8.32 8.32-21.76 0-30.080-8.106-8.106-22.186-8.106-30.080 0l-76.8 76.8c0 0-1.28 0.64-1.92 1.28l-27.52 27.734c-8.32 8.32-21.76 8.32-30.080 0s-8.32-21.76 0-30.080l59.52-59.946c8.32-8.32 8.32-21.76 0-30.080-8.106-8.109-22.186-8.109-30.080 0l-193.919 193.92-18.987 32c-5.973 10.026-19.2 13.44-29.227 7.466-10.24-5.974-13.44-18.986-7.467-29.226l20.267-34.349c0.853-1.491 1.92-2.986 3.2-4.266l3.413-3.414-29.867-29.866c-24.96-24.96-24.96-65.494 0-90.454 12.16-12.16 28.16-18.771 45.227-18.771 7.68 0 14.933 1.491 21.973 4.051 2.987-9.171 7.893-17.706 15.147-24.96 12.16-12.16 28.159-18.771 45.228-18.771 11.306 0 21.971 3.2 31.36 8.32 3.2-7.68 7.68-14.72 13.651-20.694 12.16-12.16 28.16-18.774 45.229-18.774 8.106 0 15.786 1.709 23.251 4.48 8.109-3.626 17.069-5.76 26.24-5.76 17.069 0 33.28 6.614 45.229 18.774 5.546 5.546 9.6 11.734 12.586 18.346l3.84-3.84c12.16-12.16 28.16-18.771 45.226-18.771 17.069 0 33.28 6.611 45.229 18.771 6.186 6.189 10.666 13.229 13.866 20.694 9.386-5.334 20.054-8.32 31.146-8.32 17.069 0 33.28 6.614 45.229 18.774 7.251 7.251 12.16 15.786 15.146 24.96 7.040-2.56 14.294-4.054 21.974-4.054 17.066 0 33.28 6.614 45.226 18.774 24.96 24.96 24.96 65.491 0 90.451l-17.066 17.069v-0.214z" />
<glyph unicode="&#xe91f;" glyph-name="headset-mic-solid" d="M546.134-0.64c-9.174 0-16.854 2.989-23.040 8.96-5.974 5.974-8.96 13.654-8.96 23.040 0 9.389 2.986 16.854 8.96 23.040 5.971 5.974 13.651 8.96 23.040 8.96h285.866v57.6h-93.866c-17.709 0-32.854 6.189-45.229 18.774-12.371 12.374-18.771 27.52-18.56 45.226v187.734c0 17.706 6.189 32.854 18.56 45.226 12.374 12.374 27.52 18.774 45.229 18.774h93.866v72.534c0 88.106-30.934 164.052-92.8 227.838-61.866 63.573-136.96 95.573-225.066 95.573-88.109 0-163.84-31.787-227.201-95.36s-94.933-139.521-94.933-227.841v-72.531h93.867c17.707 0 32.853-6.189 45.228-18.774 12.371-12.374 18.771-27.52 18.771-45.226v-187.734c0-17.706-6.186-32.854-18.771-45.226-12.374-12.374-27.521-18.774-45.228-18.774h-93.867c-17.067 0-32 6.4-44.8 19.2s-19.2 27.734-19.2 44.8v324.266c0 53.334 10.027 103.469 30.507 150.401 20.267 46.933 47.787 87.893 82.773 123.307 34.773 35.2 75.733 62.933 122.666 83.2 46.934 20.267 97.069 30.293 150.4 30.293 53.334 0 103.254-10.24 149.76-30.293 46.509-20.267 87.040-48 121.174-83.2s61.226-76.16 81.066-123.093c19.84-46.934 29.869-97.065 29.869-150.4v-445.866c0-17.069-6.4-32-19.2-44.8s-27.734-19.2-44.8-19.2h-285.869l-0.211-0.429z" />
<glyph unicode="&#xe920;" glyph-name="heart-solid" d="M870.4 757.762c-90.88 90.88-238.506 90.88-329.386 0l-29.014-29.013-29.014 29.013c-90.88 90.88-238.506 90.88-329.386 0s-90.88-238.508 0-329.388l358.4-358.4 358.4 358.4c91.094 90.88 91.094 238.508 0 329.388z" />
<glyph unicode="&#xe921;" glyph-name="home-solid" d="M234.668 64c-17.707 0-32.853 6.186-45.227 18.774-12.373 12.586-18.773 27.52-18.773 45.226v416c0 10.026 2.347 19.626 6.827 28.8 4.693 9.174 10.88 16.64 18.773 22.4l277.332 208c5.76 4.267 11.734 7.467 18.134 9.6s13.226 3.2 20.266 3.2c7.040 0 13.869-1.067 20.269-3.2s12.371-5.333 18.131-9.6l277.334-208c7.894-5.76 14.080-13.226 18.774-22.4 4.691-9.174 7.040-18.774 7.040-28.8v-416c0-17.706-6.189-32.854-18.774-45.226-12.374-12.374-27.52-18.774-45.44-18.774h-192v298.666h-170.666v-298.666h-192.001z" />
<glyph unicode="&#xe922;" glyph-name="house-car-solid" d="M891.094 252.794l-39.254 112.214c-5.974 17.066-22.186 28.586-40.32 28.586h-217.174c-18.346 0-34.771-11.734-40.531-29.226l-37.549-112.429c-2.986-8.746-4.48-17.706-4.48-26.88v-140.586c0-11.734 9.6-21.334 21.334-21.334h21.334c11.731 0 21.331 9.6 21.331 21.334v19.84h256v-19.84c0-11.734 9.6-21.334 21.334-21.334h21.334c11.731 0 21.331 9.6 21.331 21.334v140.16c0 9.6-1.706 19.2-4.691 28.16zM609.706 329.594h186.669l21.12-60.16h-227.84l20.051 60.16zM619.734 154.874c-17.709 0-32 14.294-32 32s14.291 32 32 32c17.706 0 32-14.294 32-32s-14.294-32-32-32zM789.334 154.874c-17.709 0-32 14.294-32 32s14.291 32 32 32c17.706 0 32-14.294 32-32s-14.294-32-32-32zM475.946 265.379l37.549 112.426c11.52 34.774 44.16 58.454 81.066 58.454h217.174c14.931 0 41.811 0 41.811 0v118.614c0 13.866-6.826 26.88-18.131 34.771l-320.214 225.922c-14.72 10.453-34.56 10.453-49.28 0l-319.787-225.707c-11.307-7.894-18.133-20.906-18.133-34.774v-406.611h85.333v298.666h170.667v-298.666h85.334v76.586c0 13.654 2.131 27.52 6.611 40.534v-0.214z" />
<glyph unicode="&#xe923;" glyph-name="key-solid" d="M305.067 310.4c38.399 0 71.039 13.226 97.708 40.106 26.666 26.669 40.106 59.094 40.106 97.709 0 38.611-13.226 71.040-40.106 97.706s-59.309 40.106-97.708 40.106c-38.4 0-70.827-13.226-97.493-40.106s-39.893-59.094-40.107-97.706c0-38.4 13.227-71.040 40.107-97.709 26.667-26.666 59.093-40.106 97.493-40.106zM305.067 192c-71.040 0-131.627 24.96-181.333 74.666-49.707 49.709-74.667 110.294-74.667 181.334s24.96 131.626 74.667 181.334c49.707 49.706 110.293 74.666 181.333 74.666 60.373 0 111.148-16.64 151.893-49.493 40.96-33.067 69.546-75.307 85.76-126.507h354.134c4.266 0 8.106-0.64 11.731-2.134 3.629-1.491 7.040-3.84 10.669-7.466l45.866-45.866c3.626-3.629 5.974-7.040 7.466-10.669 1.494-3.626 2.134-7.466 2.134-11.731 0-4.269-0.64-8.109-2.134-11.734-1.491-3.626-3.84-7.040-7.466-10.666l-110.934-110.934c-3.626-3.626-7.040-5.974-10.666-7.466-3.626-1.494-7.466-2.134-11.734-2.134-4.266 0-8.106 0.64-11.731 2.134-3.629 1.491-7.040 3.84-10.669 7.466l-67.2 67.2-67.2-67.2c-3.626-3.626-7.040-5.974-10.666-7.466-3.626-1.494-7.466-2.134-11.734-2.134-4.266 0-8.106 0.64-11.731 2.134-3.629 1.491-7.040 3.84-10.669 7.466l-53.331 53.334h-34.134c-13.44-53.334-42.24-96.429-85.76-129.069s-94.294-49.066-152.107-49.066h0.213z" />
<glyph unicode="&#xe924;" glyph-name="label-solid" d="M192 149.338c-17.707 0-32.853 6.189-45.227 18.774s-18.773 27.52-18.773 45.226v469.334c0 17.707 6.187 32.853 18.773 45.227s27.52 18.773 45.227 18.773h448c15.574 0 29.866-4.053 42.666-12.16s23.894-18.773 33.069-31.573l154.666-217.601c7.894-11.306 11.734-23.891 11.734-37.331s-3.84-26.029-11.734-37.334l-154.666-217.6c-9.174-12.8-20.269-23.254-33.069-31.36s-27.091-12.374-42.666-12.374h-448z" />
<glyph unicode="&#xe925;" glyph-name="lightbulb-solid" d="M512 12.378c-24.106 0-44.586 8.32-61.44 24.96s-24.96 37.12-24.96 61.226h172.8c0-24.106-8.32-44.586-24.96-61.226s-37.12-24.96-61.44-24.96zM339.2 196.912c0 17.706 14.294 32 32 32h281.6c17.706 0 32-14.294 32-32 0-17.709-14.294-32-32-32h-281.6c-17.706 0-32 14.291-32 32zM344.534 293.978c-46.934 30.506-84.054 68.906-111.574 114.774-27.307 45.866-40.96 97.491-40.96 155.091 0 86.827 31.573 161.707 94.933 225.067s138.241 94.933 225.067 94.933c86.826 0 161.706-31.573 225.066-94.933s94.934-138.24 94.934-225.067c0-57.6-13.44-109.226-40.534-155.091-27.091-45.869-64.426-84.054-112-114.774h-334.931z" />
<glyph unicode="&#xe926;" glyph-name="local-shipping-solid" d="M238.935 107.728c-34.773 0-64.427 12.16-89.173 36.266-24.533 24.109-36.693 53.974-36.693 89.6h-6.4c-17.707 0-32.853 6.189-45.227 18.774-12.373 12.374-18.773 27.52-18.773 45.226v427.734c0 17.067 6.4 32 19.2 44.8s27.733 19.2 44.8 19.2h553.601c17.706 0 32.851-6.187 45.226-18.773 12.374-12.373 18.774-27.52 18.774-45.227v-114.134h96c5.76 0 10.666-1.066 14.931-3.2 4.269-2.131 7.894-5.331 10.669-9.6l129.066-171.731c2.134-2.774 3.626-5.76 4.694-8.96 1.066-3.2 1.706-6.614 1.706-10.24v-141.869c0-9.171-2.986-16.851-8.96-23.040-5.974-6.186-13.654-8.96-23.040-8.96h-43.734c0-35.626-12.371-65.491-36.691-89.6-24.534-24.106-54.189-36.266-88.96-36.266-34.774 0-64.429 12.16-88.96 36.266-24.534 24.109-36.909 53.974-36.909 89.6h-289.066c0-35.626-12.374-65.491-36.906-89.6-24.534-24.106-54.188-36.266-89.174-36.266zM238.935 171.728c17.067 0 31.573 5.974 43.733 18.134s18.133 26.666 18.133 43.731c0 17.069-5.973 31.574-18.133 43.734s-26.667 18.134-43.733 18.134c-17.067 0-31.573-5.974-43.733-18.134s-18.133-26.666-18.133-43.734c0-17.066 5.973-31.571 18.133-43.731s26.667-18.134 43.733-18.134zM779.734 171.728c17.066 0 31.574 5.974 43.734 18.134s18.131 26.666 18.131 43.731c0 17.069-5.971 31.574-18.131 43.734s-26.669 18.134-43.734 18.134c-17.066 0-31.574-5.974-43.734-18.134s-18.131-26.666-18.131-43.734c0-17.066 5.971-31.571 18.131-43.731s26.669-18.134 43.734-18.134zM724.269 389.328h198.4l-118.4 157.866h-80v-157.866z" />
<glyph unicode="&#xe927;" glyph-name="luggage-solid" d="M277.332 64.006c-17.707 0-32.853 6.186-45.227 18.771-12.373 12.589-18.773 27.52-18.773 45.229v501.331c0 20.694 7.253 38.188 21.76 52.908 14.507 14.507 32.213 21.76 52.907 21.76h96.001v138.667c0 10.027 4.48 17.707 13.226 23.467 8.96 5.76 18.774 8.533 29.44 8.533h170.666c10.669 0 20.48-2.773 29.44-8.533s13.229-13.44 13.229-23.467v-138.667h106.666c17.706 0 32.854-6.187 45.226-18.773 12.374-12.587 18.774-27.52 18.774-45.227v-511.999c0-17.709-6.186-32.854-18.774-45.229-12.586-12.371-27.52-18.771-45.226-18.771 0-12.16-4.054-22.189-12.374-30.294-8.106-8.106-18.346-12.374-30.291-12.374-11.949 0-22.189 4.054-30.294 12.374-8.106 8.106-12.374 18.346-12.374 30.294h-298.666c0-12.16-4.054-22.189-12.374-30.294-8.106-8.106-18.346-12.374-30.292-12.374s-22.187 4.054-30.507 12.374c-8.107 8.106-12.16 18.346-12.16 30.294zM426.666 704.005h170.666v128h-170.666v-128zM373.331 192.006c11.734 0 21.334 9.6 21.334 21.331v341.334c0 11.734-9.6 21.334-21.334 21.334-11.731 0-21.331-9.6-21.331-21.334v-341.334c0-11.731 9.6-21.331 21.331-21.331zM512 192.006c11.731 0 21.331 9.6 21.331 21.331v341.334c0 11.734-9.6 21.334-21.331 21.334-11.734 0-21.334-9.6-21.334-21.334v-341.334c0-11.731 9.6-21.331 21.334-21.331zM650.666 192.006c11.734 0 21.334 9.6 21.334 21.331v341.334c0 11.734-9.6 21.334-21.334 21.334s-21.334-9.6-21.334-21.334v-341.334c0-11.731 9.6-21.331 21.334-21.331z" />
<glyph unicode="&#xe928;" glyph-name="medal-solid" d="M257.86 328.861l-71.94-124.589 141.958 17.709 55.933-132.694 80.051 138.666-1.494-0.64c-9.821-3.626-20.067-5.546-30.314-5.546-29.034 0-55.715 14.506-71.514 38.614l-29.034 44.371-51.019 13.869c-8.112 2.131-15.584 5.76-22.628 10.026v0.214zM765.926 328.861c-7.046-4.269-14.515-7.894-22.627-10.24l-51.021-13.869-29.034-44.371c-15.795-24.32-42.48-38.614-71.514-38.614-10.461 0-20.707 1.92-30.314 5.546l-1.28 0.429 80.051-138.669 55.933 132.694 141.958-17.706-71.939 124.586-0.214 0.214zM591.731 841.281c-5.123 0-10.246-0.853-15.158-2.773l-49.523-18.773c-4.912-1.92-10.035-2.773-15.158-2.773s-10.246 0.853-15.155 2.773l-49.526 18.773c-4.909 1.92-10.035 2.773-15.158 2.773-14.086 0-27.75-7.040-35.862-19.413l-29.034-44.373c-5.763-8.747-14.515-15.147-24.547-17.92l-51.021-13.867c-19.426-5.333-32.448-23.253-31.38-43.307l2.562-52.907c0.427-10.455-2.775-20.695-9.393-28.8l-33.302-41.174c-12.595-15.571-12.595-37.971 0-53.546l33.302-41.174c6.618-8.106 9.82-18.346 9.393-28.8l-2.562-52.906c-1.068-20.054 12.168-37.974 31.38-43.306l51.021-13.869c10.032-2.771 18.784-9.171 24.547-17.92l29.034-44.371c8.112-12.374 21.776-19.414 35.862-19.414 5.123 0 10.25 0.854 15.158 2.774l49.526 18.771c4.909 1.92 10.032 2.774 15.155 2.774s10.246-0.854 15.158-2.774l49.523-18.771c4.912-1.92 10.035-2.774 15.158-2.774 14.090 0 27.75 7.040 35.862 19.414l29.034 44.371c5.763 8.749 14.515 15.149 24.547 17.92l51.021 13.869c19.427 5.331 32.448 23.251 31.382 43.306l-2.563 52.906c-0.426 10.454 2.774 20.694 9.392 28.8l33.302 41.174c12.595 15.574 12.595 37.974 0 53.546l-33.302 41.174c-6.618 8.106-9.818 18.346-9.392 28.8l2.563 52.907c1.066 20.053-12.17 37.973-31.382 43.307l-51.021 13.867c-10.032 2.773-18.784 9.173-24.547 17.92l-29.034 44.373c-8.112 12.373-21.773 19.413-35.862 19.413zM511.891 360.854c-106.95 0-193.406 85.974-193.406 192 0 106.027 86.67 192 193.406 192s193.408-85.973 193.408-192c0-106.026-86.672-192-193.408-192zM511.894 415.674c-17.718 0-32.022 14.294-32.022 32v133.334l-0.854-0.854c-12.381-12.586-32.874-12.586-45.254 0s-12.595 32.854 0 45.226l55.504 55.468c9.178 9.173 22.842 11.947 34.794 7.040 11.955-4.907 19.853-16.64 19.853-29.653v-210.56c0-17.706-14.301-32-32.019-32z" />
<glyph unicode="&#xe929;" glyph-name="money-solid" d="M576 383.994c35.626 0 65.706 12.374 90.666 37.334s37.334 55.040 37.334 90.666c0 35.629-12.374 65.709-37.334 90.669s-55.040 37.331-90.666 37.331c-35.626 0-65.706-12.371-90.666-37.331s-37.334-55.040-37.334-90.669c0-35.626 12.374-65.706 37.334-90.666s55.040-37.334 90.666-37.334zM234.667 234.662c-17.707 0-32.853 6.186-45.227 18.771-12.373 12.589-18.773 27.52-18.773 45.229v426.666c0 17.707 6.187 32.853 18.773 45.227s27.52 18.773 45.227 18.773h682.668c17.706 0 32.851-6.187 45.226-18.773s18.774-27.52 18.774-45.227v-426.666c0-17.709-6.189-32.854-18.774-45.229-12.586-12.371-27.52-18.771-45.226-18.771h-682.668zM106.667 106.662c-17.707 0-32.853 6.186-45.227 18.771-12.373 12.589-18.773 27.52-18.773 45.229v458.666c0 9.174 2.987 16.853 8.96 22.827s13.653 9.173 23.040 9.173c9.387 0 16.853-2.987 22.827-9.173 5.973-5.973 9.173-13.652 9.173-22.827v-458.666h714.668c9.171 0 16.851-2.989 23.040-8.96 6.186-5.974 8.96-13.654 8.96-23.040 0-9.389-2.989-16.854-8.96-23.040-5.974-6.189-13.654-8.96-23.040-8.96h-714.668zM234.667 618.662c29.867 0 55.040 10.24 75.733 30.932s30.934 45.867 30.934 75.733h-106.668v-106.666zM917.334 618.662v106.666h-106.669c0-29.867 10.24-55.040 30.934-75.733s45.866-30.932 75.734-30.932zM234.667 298.662h106.668c0 29.866-10.24 55.040-30.934 75.731-20.693 20.694-45.867 30.934-75.733 30.934v-106.666zM810.666 298.662h106.669v106.666c-29.869 0-55.040-10.24-75.734-30.934-20.694-20.691-30.934-45.866-30.934-75.731z" />
<glyph unicode="&#xe92a;" glyph-name="person-remove-solid" d="M744.534 524.378c-9.174 0-16.854 2.989-23.040 8.96-6.189 5.974-8.96 13.654-8.96 23.040 0 9.389 2.986 16.854 8.96 23.040 5.971 6.189 13.651 8.96 23.040 8.96h183.466c9.174 0 16.854-2.986 23.040-8.96 6.186-5.971 8.96-13.651 8.96-23.040 0-9.386-2.986-16.851-8.96-23.040-5.974-5.971-13.654-8.96-23.040-8.96h-183.466zM405.334 459.312c-46.934 0-85.334 14.934-115.201 44.8s-44.8 68.266-44.8 115.2c0 46.934 14.933 85.334 44.8 115.201s68.267 44.8 115.201 44.8c46.931 0 85.331-14.933 115.2-44.8 29.866-29.867 44.8-68.267 44.8-115.201s-14.934-85.334-44.8-115.2c-29.869-29.866-68.269-44.8-115.2-44.8zM96 116.912c-9.173 0-16.853 2.989-23.040 8.96-6.187 5.974-8.96 13.654-8.96 23.040v68.266c0 24.96 6.187 47.36 18.773 67.629 12.373 20.266 30.293 35.411 53.973 45.226 53.333 23.466 100.693 40.106 142.507 49.706 41.601 9.6 83.627 14.294 126.292 14.294 42.669 0 84.694-4.906 125.869-14.294 41.171-9.6 88.531-26.24 141.866-49.706 23.466-10.666 41.6-26.026 54.4-45.866s19.2-42.24 19.2-67.2v-68.266c0-9.174-2.986-16.854-8.96-23.043-5.974-5.971-13.654-8.957-23.040-8.957l-618.88 0.211z" />
<glyph unicode="&#xe92b;" glyph-name="person-solid" d="M512 459.094c-46.934 0-85.334 14.931-115.2 44.8-29.866 29.866-44.8 68.266-44.8 115.2s14.934 85.333 44.8 115.199 68.266 44.8 115.2 44.8c46.934 0 85.334-14.933 115.2-44.8s44.8-68.267 44.8-115.199c0-46.934-14.934-85.334-44.8-115.2-29.866-29.869-68.266-44.8-115.2-44.8zM234.667 116.694c-17.707 0-32.853 6.186-45.227 18.771-12.373 12.589-18.773 27.52-18.773 45.229v36.266c0 27.094 6.827 50.134 20.267 69.334s30.933 33.706 52.267 43.731c47.573 21.334 93.44 37.334 137.175 48 43.731 10.669 87.68 16 131.626 16s87.894-5.546 131.2-16.426c43.306-11.094 88.96-26.88 136.534-47.574 21.971-10.026 39.891-24.531 53.331-43.731s20.269-42.24 20.269-69.334v-36.266c0-17.709-6.189-32.854-18.774-45.229-12.586-12.371-27.52-18.771-45.226-18.771h-554.668z" />
<glyph unicode="&#xe92c;" glyph-name="place-solid" d="M750.294 779.739c-68.694 63.36-148.054 94.933-238.294 94.933s-169.811-31.573-238.292-94.933c-68.693-63.36-103.040-148.267-103.040-254.932 0-71.040 28.373-148.48 84.907-232.109 53.12-78.291 131.414-162.771 235.52-253.44 11.946-10.451 30.080-10.451 42.026 0 103.894 90.454 182.4 174.934 235.52 253.44 56.534 83.629 84.694 160.854 84.694 232.109 0 106.666-34.346 191.572-103.040 254.932zM511.789 405.338c-70.614 0-128 57.389-128 128 0 70.614 57.386 128.001 128 128.001 70.611 0 128-57.387 128-128.001 0-70.611-57.389-128-128-128z" />
<glyph unicode="&#xe92d;" glyph-name="question-answer-solid" d="M139.945 266.237c-20.053-20.051-54.613-5.971-54.613 22.614v517.974c0 10.027 4.693 19.84 13.867 29.867s18.773 14.933 28.8 14.933h553.601c10.666 0 20.691-4.693 29.866-14.507 9.174-9.6 13.866-19.627 13.866-30.293v-379.734c0-10.026-4.691-19.84-13.866-29.866-9.174-10.029-19.2-14.934-29.866-14.934h-425.601l-116.053-116.054zM299.732 168.957c-10.027 0-19.84 4.909-29.44 14.934s-14.507 19.84-14.507 29.866v104.534h448c47.146 0 85.334 38.186 85.334 85.334v277.333h106.666c10.026 0 19.626-4.907 28.8-14.933s13.866-20.267 13.866-30.934v-558.506c0-28.589-34.56-42.88-54.611-22.614l-114.989 114.986h-469.119z" />
<glyph unicode="&#xe92e;" glyph-name="sack-money-solid" d="M897.92 225.494v1.066c-28.8 143.36-105.814 272.64-218.029 366.080l-26.24 21.974c-11.52 9.6-26.026 14.931-40.96 14.931h-201.171c-14.934 0-29.44-5.331-40.96-14.931l-26.029-21.76c-112.425-93.654-189.225-222.934-218.025-366.294v-1.066c-21.333-105.6 59.52-204.16 167.040-204.16h436.905c107.734 0 188.374 98.56 167.254 204.16h0.214zM608 426.666h-160v-74.666h160c9.171 0 16.851-2.986 22.826-9.174 5.974-6.186 9.174-13.651 9.174-22.826v-138.666c0-9.174-2.989-16.854-9.174-23.040-6.186-6.189-13.654-8.96-22.826-8.96h-64v-10.669c0-17.706-14.294-32-32-32-17.709 0-32 14.294-32 32v10.669h-64c-17.709 0-32 14.291-32 32 0 17.706 14.291 32 32 32h160v74.666h-160c-9.174 0-16.854 2.986-23.040 8.96-6.189 5.974-8.96 13.654-8.96 23.040v138.666c0 9.174 2.986 16.854 8.96 22.829 5.971 5.971 13.651 9.171 23.040 9.171h64v10.669c0 17.706 14.291 32 32 32 17.706 0 32-14.294 32-32v-10.669h64c17.706 0 32-14.291 32-32 0-17.706-14.294-32-32-32zM686.506 810.032c17.066 28.373-3.414 64.64-36.48 64.64h-275.84c-33.066 0-53.546-36.267-36.48-64.64l69.974-116.693h209.066l69.974 116.693h-0.214z" />
<glyph unicode="&#xe92f;" glyph-name="saving-pigs-solid" d="M682.666 469.338c12.16 0 22.189 4.054 30.294 12.374 8.106 8.106 12.374 18.346 12.374 30.294 0 11.946-4.054 22.186-12.374 30.291-8.106 8.109-18.346 12.374-30.294 12.374-11.946 0-22.186-4.054-30.291-12.374-8.109-8.106-12.374-18.346-12.374-30.291 0-11.949 4.054-22.189 12.374-30.294 8.106-8.106 18.346-12.374 30.291-12.374zM373.334 576.006h149.331c9.174 0 16.854 2.986 23.040 8.96 5.974 5.971 8.96 13.651 8.96 23.040 0 9.386-2.986 16.851-8.96 22.826-5.971 5.974-13.651 9.173-23.040 9.173h-149.331c-9.174 0-16.854-2.988-23.040-9.173-5.974-5.974-8.96-13.654-8.96-22.826 0-9.174 2.986-16.854 8.96-23.040 5.971-5.974 13.651-8.96 23.040-8.96zM245.333 42.672c-14.933 0-29.013 4.906-42.24 14.934-13.227 10.026-21.76 21.971-26.027 36.266-17.707 61.226-32.64 113.92-44.16 158.294-11.733 44.371-21.12 83.411-28.373 116.691-7.040 33.494-12.16 63.149-14.933 88.96-2.773 25.814-4.267 50.989-4.267 75.309 0 65.491 22.827 120.959 68.267 166.399s100.907 68.267 166.4 68.267h213.334c19.2 25.6 43.52 46.293 72.96 61.867s62.080 23.467 97.706 23.467c17.706 0 32.854-6.187 45.226-18.773 12.374-12.587 18.774-27.52 18.774-45.227 0-4.267-0.426-8.533-1.706-12.8-1.069-4.267-2.349-8.107-3.629-11.733-2.771-7.893-5.546-15.573-8.106-23.467s-4.48-16.427-5.974-25.6l97.069-97.068h60.8c9.171 0 16.851-2.986 23.040-9.171 5.971-5.974 8.96-13.654 8.96-22.829v-242.131c0-7.040-1.92-13.44-5.974-19.2-3.84-5.76-9.386-9.6-16.64-11.734l-98.134-32-57.6-193.066c-4.266-14.294-12.16-25.389-23.466-33.709-11.306-8.106-24.106-12.371-38.4-12.371h-122.666c-17.709 0-32.854 6.186-45.229 18.771-12.371 12.589-18.771 27.52-18.771 45.229v21.331h-85.334v-21.331c0-17.709-6.186-32.854-18.774-45.229-12.586-12.371-27.52-18.771-45.226-18.771h-117.333l0.427 0.426z" />
<glyph unicode="&#xe930;" glyph-name="search-solid" d="M825.6 87.462l-257.066 257.066c-21.334-18.56-46.294-32.851-74.669-43.091-28.371-10.24-58.666-15.36-90.666-15.574-76.8 0-141.867 26.666-195.2 80s-80.427 122.24-80 194.986c0.427 72.749 27.093 138.241 80 191.148s117.334 79.573 192.854 80c75.52 0.427 142.931-28.587 193.92-80 50.986-51.413 79.36-117.759 79.36-193.068 0-30.506-4.909-60.16-14.934-88.531-10.026-28.374-24.96-55.040-44.8-80l257.92-256c13.014-13.014 13.014-33.92 0-46.934s-33.92-13.014-46.934 0h0.214zM402.134 349.862c57.6 0 106.666 20.48 147.2 61.44 40.531 40.96 60.8 90.24 60.8 147.84s-20.269 106.88-60.8 147.84c-40.534 40.96-89.6 61.44-147.2 61.44s-107.948-20.48-148.908-61.44c-40.96-40.96-61.44-90.24-61.44-147.84s20.48-106.88 61.44-147.626c40.96-40.96 90.453-61.229 148.693-61.44l0.214-0.214z" />
<glyph unicode="&#xe931;" glyph-name="smart-display-solid" d="M467.626 302.074l186.666 121.389c19.414 12.586 19.414 40.96 0 53.76l-186.666 121.386c-21.334 13.866-49.494-1.494-49.494-26.88v-242.56c0-25.386 28.16-40.746 49.494-26.88v-0.214zM149.332 106.662c-17.067 0-32 6.4-44.8 19.2s-19.2 27.731-19.2 44.8v554.666c0 17.067 6.4 32 19.2 44.8s27.733 19.2 44.8 19.2h725.333c17.066 0 32-6.4 44.8-19.2s19.2-27.733 19.2-44.8v-554.666c0-17.069-6.4-32-19.2-44.8s-27.734-19.2-44.8-19.2h-725.333z" />
<glyph unicode="&#xe932;" glyph-name="smartphone-solid" d="M277.333-21.338c-17.067 0-32 6.4-44.8 19.2s-19.2 27.731-19.2 44.8v810.666c0 17.067 6.4 32 19.2 44.8s27.733 19.2 44.8 19.2h469.332c17.069 0 32-6.4 44.8-19.2s19.2-27.733 19.2-44.8v-810.666c0-17.069-6.4-32-19.2-44.8s-27.731-19.2-44.8-19.2h-469.332zM277.333 138.662h469.332v618.666h-469.332v-618.666z" />
<glyph unicode="&#xe933;" glyph-name="snap-solid" d="M381.44 313.389c-8.106 0-16.426 3.2-22.614 9.386-12.586 12.589-12.586 32.854 0 45.229l271.574 271.571c12.586 12.588 32.854 12.588 45.226 0 12.374-12.586 12.589-32.851 0-45.226l-271.571-271.574c-6.189-6.186-14.509-9.386-22.614-9.386zM380.157 550.186l28.589-142.506 48.64-28.8c-24.109-29.226-22.829-72.746 4.48-100.054 14.080-14.080 32.851-21.971 52.691-21.971 0.429 0 0.64 0 1.069 0-0.214-19.414 6.826-39.040 21.76-53.76 14.931-14.72 32.851-21.974 52.691-21.974 2.774 0 5.549 0.426 8.109 0.854 1.066-17.494 8.106-34.774 21.331-48.214 7.68-7.68 16.64-13.226 26.24-16.854l-58.666-57.386c-46.080-45.011-118.4-48.64-168.96-8.746l-26.88 21.76-64.854 60.16c-29.652 24.32-46.932 60.586-46.932 98.986v308.48c0.213 33.706 32.64 57.814 65.066 48.214 17.92-5.334 31.36-20.054 34.986-38.4l0.64 0.211zM514.771 299.517c-8.106 0-16.426 3.2-22.611 9.386-12.589 12.586-12.589 32.854 0 45.226l107.731 108.589c12.589 12.586 32.854 12.586 45.229 0 12.371-12.589 12.586-32.854 0-45.229l-107.734-108.586c-6.186-6.186-14.506-9.386-22.614-9.386zM590.291 223.792c-8.106 0-16.426 3.2-22.614 9.386-12.586 12.589-12.586 32.854 0 45.229l85.974 86.826c12.374 12.586 32.854 12.586 45.226 0 12.374-12.586 12.589-32.854 0-45.226l-85.971-86.829c-6.189-6.186-14.509-9.386-22.614-9.386zM672.851 154.448c-8.109 0-16.429 3.2-22.614 9.389-12.586 12.586-12.586 32.851 0 45.226l65.28 65.92c12.586 12.586 32.854 12.586 45.226 0 12.374-12.586 12.589-32.854 0-45.226l-65.28-65.92c-6.186-6.189-14.506-9.389-22.611-9.389zM479.36 877.125c17.673 0 32-14.327 32-32v-108.8c0-17.673-14.327-32-32-32s-32 14.327-32 32v108.8c0 17.673 14.327 32 32 32zM657.002 792.873c12.497-12.497 12.497-32.758 0-45.255l-89.62-89.62c-12.497-12.497-32.758-12.497-45.255 0s-12.497 32.758 0 45.255l89.62 89.62c12.497 12.497 32.758 12.497 45.255 0zM298.022 794.143c12.488 12.505 32.749 12.52 45.255 0.031l90.935-90.809c12.505-12.488 12.52-32.749 0.031-45.255s-32.749-12.52-45.255-0.031l-90.935 90.809c-12.505 12.488-12.52 32.749-0.031 45.255z" />
<glyph unicode="&#xe934;" glyph-name="solar-panel-solid" d="M857.814 763.943c-2.56 15.36-16 26.667-31.574 26.667h-628.48c-15.573 0-29.013-11.307-31.573-26.667l-74.667-448c-3.2-19.414 11.733-37.334 31.573-37.334h356.907v-109.226h-106.666c-17.709 0-32-14.294-32-32s14.291-32 32-32h277.331c17.709 0 32 14.294 32 32s-14.291 32-32 32h-106.666v109.226h356.906c19.84 0 34.774 17.709 31.574 37.334l-74.666 448zM825.814 566.608h-177.709l-13.226 160.001h164.266l26.669-160.001zM440.106 566.608l13.229 160.001h117.12l13.226-160.001h-143.574zM589.226 502.608l13.44-160h-181.12l13.229 160h154.451zM389.12 726.609l-13.226-160.001h-177.708l26.667 160.001h164.267zM187.52 502.608h183.040l-13.226-160h-196.481l26.667 160zM666.666 342.608l-13.44 160h183.040l26.669-160h-196.269z" />
<glyph unicode="&#xe935;" glyph-name="swipe-right-solid" d="M124.8 672.005c-11.307 0-19.627 4.053-24.533 12.16s-4.693 17.28 1.067 27.093c27.733 53.333 77.44 100.907 149.333 142.933s158.508 62.933 260.268 62.933c68.906 0 135.466-12.8 199.466-38.4s122.026-59.733 173.866-102.4v66.133c0 7.893 2.56 14.293 7.469 19.2 4.906 4.907 11.306 7.467 19.2 7.467 7.891 0 14.291-2.56 19.2-7.467 4.906-4.907 7.466-11.307 7.466-19.2v-144c0-9.173-2.986-16.853-8.96-22.827s-13.654-9.173-23.040-9.173h-144c-7.894 0-14.294 2.56-19.2 7.467s-7.466 11.307-7.466 19.2c0 7.893 2.56 14.293 7.466 19.2s11.306 7.467 19.2 7.467h105.6c-49.066 42.667-104.32 77.227-165.974 104.107-61.44 26.667-125.011 40.107-190.291 40.107-95.36 0-174.080-19.2-236.162-57.6-62.293-38.4-104.32-78.293-126.507-119.467-2.133-4.267-5.547-7.893-10.027-10.667-4.693-2.773-9.173-4.267-13.227-4.267h-0.213zM469.334-21.328c-12.16 0-23.469 2.346-34.134 7.040s-19.84 10.88-27.734 18.774l-161.066 170.666c-9.173 10.026-13.867 21.334-13.867 34.134s3.627 23.466 10.667 32c7.893 9.171 17.067 15.36 27.733 18.131 10.667 2.774 21.973 2.774 34.133 0l121.599-26.666v449.92c0 18.56 5.974 33.707 18.134 45.867s27.306 18.133 45.866 18.133c18.56 0 33.709-5.973 45.869-18.133s18.131-27.307 18.131-45.867v-256h38.4c7.894 0 14.509-0.426 20.269-1.706 5.76-1.069 11.731-3.414 18.131-7.040l173.869-87.469c17.066-8.531 29.866-20.906 38.4-37.331 8.531-16.429 11.306-33.709 8.531-52.269l-27.731-192c-3.629-20.691-13.44-37.546-29.869-50.771-16.426-13.229-34.771-19.629-55.466-19.629l-269.866 0.214z" />
<glyph unicode="&#xe936;" glyph-name="target-solid" d="M801.92 320.010h-116.694l-150.611 150.614c-12.589 12.586-32.854 12.586-45.229 0-12.371-12.589-12.586-32.854 0-45.229l150.614-150.611v-116.694l128-128v161.92h161.92l-128 128zM561.494 262.614c-15.789-4.269-32.429-6.614-49.494-6.614-106.026 0-192 85.974-192 192s85.974 192 192 192c106.026 0 192-85.974 192-192 0-17.066-2.56-33.706-6.614-49.494l14.509-14.506h47.786c5.334 20.48 8.32 41.814 8.32 64 0 141.226-114.774 256-256 256s-256-114.774-256-256c0-141.226 114.774-256 256-256 22.186 0 43.52 3.2 64 8.32v47.786l-14.506 14.509zM512 85.338c-199.893 0-362.667 162.774-362.667 362.669 0 199.892 162.773 362.666 362.667 362.666s362.666-162.773 362.666-362.666c0-33.494-4.906-65.92-13.44-96.64l50.774-50.774c17.066 46.080 26.666 95.574 26.666 147.414 0 235.732-190.931 426.666-426.666 426.666-235.733 0-426.667-190.933-426.667-426.666s190.933-426.669 426.667-426.669c51.84 0 101.546 9.814 147.414 26.669l-50.774 50.771c-30.934-8.531-63.146-13.44-96.64-13.44z" />
<glyph unicode="&#xe937;" glyph-name="verified-solid" d="M349.443 33.488l-51.841 88.746c-6.187 10.454-16.427 17.92-28.16 20.266l-104.107 21.334c-21.76 4.48-36.267 24.746-33.707 46.72l11.52 99.414c1.28 11.731-2.347 23.68-10.027 32.64l-66.347 77.44c-13.653 16-13.653 39.68 0 55.68l66.133 76.371c7.893 8.96 11.52 20.909 10.027 32.854l-11.52 99.413c-2.56 21.973 12.16 42.24 33.707 46.72l104.107 21.333c11.947 2.347 22.187 9.813 28.373 20.48l52.052 89.6c11.094 18.987 34.774 26.667 54.829 17.28l89.811-41.6c11.309-5.333 24.534-5.333 35.84 0l89.814 41.6c19.84 9.173 43.52 1.92 54.614-17.067l52.906-90.027c6.186-10.453 16.426-17.707 28.16-20.267l103.254-21.333c21.546-4.48 36.266-24.747 33.706-46.72l-11.52-99.413c-1.28-11.946 2.346-23.68 10.026-32.854l66.134-76.371c13.866-16 13.866-39.68 0-55.68l-66.346-77.44c-7.68-8.96-11.309-20.909-10.029-32.64l11.52-99.414c2.56-21.974-12.16-42.24-33.706-46.72l-103.254-21.334c-11.731-2.346-21.971-9.6-28.16-20.051l-52.906-89.174c-11.094-18.774-34.774-26.24-54.614-17.066l-90.026 41.6c-11.306 5.331-24.534 5.331-35.84 0l-89.814-41.6c-20.051-9.174-43.731-1.709-54.826 17.28h0.214zM466.134 306.128l217.814 215.891c13.226 13.014 12.8 34.56-1.066 46.934-12.8 11.52-32.429 11.306-44.589-0.854l-172.16-170.24-77.651 80.854c-13.014 13.654-34.774 13.866-48.214 0.854-13.44-13.229-13.654-34.989 0-48.214l126.080-125.014-0.214-0.211z" />
<glyph unicode="&#xe938;" glyph-name="warning-solid" d="M98.345 138.672l358.186 619.094c24.746 42.667 86.186 42.667 110.72 0l358.4-618.879c24.746-42.669-6.186-96-55.466-96h-716.588c-49.28 0-80 53.331-55.467 96l0.213-0.214zM516.266 167.472c9.171 0 16.851 2.986 23.040 8.96 6.186 5.974 9.171 13.654 8.96 23.040 0 9.174-2.989 16.854-8.96 23.040-5.974 6.186-13.654 8.96-23.040 8.96-9.389 0-16.854-2.986-23.040-8.96-5.974-5.974-8.96-13.654-8.96-23.040 0-9.174 2.986-16.854 8.96-23.040 5.971-6.186 13.651-8.96 23.040-8.96zM516.266 285.872c17.706 0 32 14.294 32 32v174.934c0 17.706-14.294 32-32 32-17.709 0-32-14.294-32-32v-174.934c0-17.706 14.291-32 32-32z" />
<glyph unicode="&#xe939;" glyph-name="watch-later-solid" d="M693.12 266.448c13.011 13.014 13.226 34.346 0 47.574l-145.92 146.771v182.401c0 17.707-14.294 32-32 32-17.709 0-32-14.293-32-32v-208.001l161.706-168.32c13.014-13.651 34.774-13.866 48-0.426h0.214zM512 21.328c-58.24 0-113.494 11.094-165.334 33.706-51.84 22.4-97.28 52.909-136.107 91.734s-69.333 84.054-91.733 136.106c-22.4 51.84-33.493 107.094-33.493 165.334s11.307 113.494 33.493 165.334c22.4 51.839 52.907 97.279 91.733 136.106s84.053 69.333 136.107 91.733c51.84 22.4 107.094 33.493 165.334 33.493s113.491-11.307 165.331-33.493c51.84-22.4 97.28-52.907 136.109-91.733 38.826-38.827 69.331-84.053 91.731-136.106 22.4-51.84 33.709-107.094 33.709-165.334s-11.094-113.494-33.709-165.334c-22.4-51.84-52.906-97.28-91.731-136.106-38.829-38.826-84.054-69.334-136.109-91.734-51.84-22.4-107.091-33.706-165.331-33.706z" />
<glyph unicode="&#xe93a;" glyph-name="wifi-solid" d="M214.187 367.581c-9.173 9.171-14.080 20.48-14.507 33.706s4.48 23.894 14.507 32.426c44.8 39.040 91.733 68.48 140.799 87.894 49.069 19.626 101.334 29.44 156.8 29.44 55.469 0 107.734-9.814 156.8-29.44 49.069-19.626 96-48.854 140.8-87.894 10.029-8.531 14.934-19.2 14.934-32s-4.906-24.106-14.934-34.131c-9.171-9.174-20.266-13.869-33.066-13.869s-24.106 4.269-34.134 12.8c-38.4 32-76.586 54.829-114.771 68.269-37.974 13.44-76.589 20.266-115.84 20.266-39.254 0-77.654-6.826-115.629-20.266-37.971-13.44-76.372-36.269-114.772-68.269-10.027-8.531-21.333-12.8-34.133-12.8s-23.893 4.694-33.067 13.869h0.213zM33.92 547.846c-9.173 9.174-14.080 20.694-14.507 34.134s4.48 24.531 14.507 33.066c64.64 58.24 137.813 104.96 219.093 139.734 81.492 34.773 167.681 52.267 258.561 52.267s177.28-17.493 258.56-52.267c81.491-34.773 154.451-81.493 219.306-139.734 10.026-8.534 14.934-19.414 14.934-32.426 0-13.014-4.909-24.749-14.934-34.56-9.174-9.174-20.48-13.869-33.706-13.869-13.229 0-24.749 4.269-34.56 12.8-59.094 50.56-122.669 90.454-190.934 119.895s-141.226 44.16-218.666 44.16c-77.44 0-150.4-14.72-218.668-44.16s-131.84-69.546-190.933-120.106c-10.027-8.534-21.547-12.8-34.56-12.8s-24.32 4.691-33.707 13.866h0.213zM511.786 89.181c-25.6 0-48 9.6-67.2 28.8s-28.8 41.6-28.8 67.2c0 25.6 9.6 48 28.8 67.2s41.6 28.8 67.2 28.8c25.6 0 48-9.6 67.2-28.8s28.8-41.6 28.8-67.2c0-25.6-9.6-48-28.8-67.2s-41.6-28.8-67.2-28.8z" />
<glyph unicode="&#xe93b;" glyph-name="work-solid" d="M149.332 42.662c-17.067 0-32 6.4-44.8 19.2s-19.2 27.731-19.2 44.8v512c0 17.066 6.4 31.999 19.2 44.799s27.733 19.2 44.8 19.2h191.999v106.667c0 17.067 6.4 32 19.2 44.8s27.734 19.2 44.8 19.2h213.334c17.066 0 32-6.4 44.8-19.2s19.2-27.733 19.2-44.8v-106.667h192c17.066 0 32-6.4 44.8-19.2s19.2-27.733 19.2-44.799v-512c0-17.069-6.4-32-19.2-44.8s-27.734-19.2-44.8-19.2h-725.333zM405.331 682.661h213.334v106.667h-213.334v-106.667z" />
<glyph unicode="&#xe93c;" glyph-name="add-solid" d="M512 138.662c-12.090 0-22.224 4.086-30.4 12.266-8.179 8.179-12.269 18.31-12.269 30.4v224h-223.998c-12.089 0-22.222 4.090-30.4 12.266-8.178 8.179-12.267 18.314-12.267 30.4 0 12.090 4.089 22.224 12.267 30.4 8.178 8.179 18.311 12.269 30.4 12.269h223.998v223.999c0 12.089 4.090 22.222 12.269 30.4 8.176 8.178 18.31 12.267 30.4 12.267s22.221-4.089 30.4-12.267c8.176-8.178 12.266-18.311 12.266-30.4v-223.999h224c12.090 0 22.224-4.090 30.4-12.269 8.179-8.176 12.266-18.31 12.266-30.4 0-12.086-4.086-22.221-12.266-30.4-8.176-8.176-18.31-12.266-30.4-12.266h-224v-224c0-12.090-4.090-22.221-12.266-30.4-8.179-8.179-18.31-12.266-30.4-12.266z" />
<glyph unicode="&#xe93d;" glyph-name="arrow-back-solid" d="M476.8 129.066l-296.532 296.531c-3.627 3.629-5.973 7.040-7.467 10.669-1.493 3.626-2.133 7.466-2.133 11.731 0 4.269 0.64 8.109 2.133 11.734s3.84 7.040 7.467 10.666l297.601 297.601c5.76 5.76 12.8 8.533 21.331 8.533 8.534 0 16-3.2 22.4-9.6s9.6-13.867 9.6-22.4c0-8.533-3.2-16-9.6-22.4l-242.132-242.134h529.067c9.174 0 16.854-2.986 23.040-8.96 5.974-5.971 8.96-13.651 8.96-23.040 0-9.386-2.986-16.851-8.96-23.040-5.974-5.971-13.654-8.96-23.040-8.96h-529.067l243.201-243.2c5.76-5.76 8.531-12.8 8.531-21.331 0-8.534-3.2-16-9.6-22.4s-13.866-9.6-22.4-9.6c-8.531 0-16 3.2-22.4 9.6z" />
<glyph unicode="&#xe93e;" glyph-name="arrow-forward-solid" d="M496 129.926c-5.76 5.76-8.534 13.226-8.534 22.4s2.774 16.64 8.534 22.4l241.066 241.066h-527.999c-9.173 0-16.853 2.989-22.827 8.96-5.973 5.974-9.173 13.654-9.173 23.040 0 9.389 2.987 16.854 9.173 23.040 5.973 5.974 13.653 8.96 22.827 8.96h527.999l-241.066 241.068c-5.76 5.76-8.534 13.227-8.534 22.827s2.774 17.28 8.534 22.827c5.76 5.547 13.226 8.533 22.4 8.533s16.64-2.773 22.4-8.533l296.534-296.533c3.626-3.629 5.971-7.040 7.466-10.669 1.494-3.626 2.134-7.466 2.134-11.731 0-3.629-0.64-7.254-2.134-11.094s-3.84-7.68-7.466-11.094l-296.534-296.531c-5.76-5.76-13.226-8.32-22.4-8.109-9.174 0.429-16.64 3.414-22.4 8.963v0.211z" />
<glyph unicode="&#xe93f;" glyph-name="arrow-north-east-solid" d="M193.065 129.072c-6.4 6.4-9.6 13.866-9.6 22.4s3.2 16 9.6 22.4l508.801 508.8h-281.6c-9.174 0-16.854 2.987-23.040 9.173-5.974 5.973-8.96 13.653-8.96 22.827s2.986 16.853 8.96 22.827c5.971 5.973 13.651 9.173 23.040 9.173h358.4c9.171 0 16.851-2.987 23.040-9.173 5.971-5.973 8.96-13.653 8.96-22.827v-358.4c0-9.174-2.989-16.854-8.96-23.040-5.974-5.974-13.654-8.96-23.040-8.96-9.174 0-16.854 2.986-23.040 8.96-6.189 5.974-8.96 13.654-8.96 23.040v281.6l-508.801-508.8c-6.4-6.4-13.867-9.6-22.4-9.6s-16 3.2-22.4 9.6z" />
<glyph unicode="&#xe940;" glyph-name="arrow-north-solid" d="M512 21.341c-9.174 0-16.854 2.986-23.040 8.96-5.974 5.974-8.96 13.654-8.96 23.040v699.733l-199.467-199.467c-6.4-6.4-13.867-9.6-22.4-9.6s-16 3.2-22.4 9.6c-6.4 6.4-9.6 13.869-9.6 22.4 0 8.534 3.2 16 9.6 22.4l253.867 253.867c3.626 3.627 7.040 5.973 10.666 6.827 3.629 1.067 7.466 1.493 11.734 1.493 4.266 0 8.106-0.64 11.731-1.493 3.629-1.067 7.040-3.413 10.669-6.827l253.866-253.867c6.4-6.4 9.6-13.866 9.6-22.4 0-8.531-3.2-16-9.6-22.4-6.4-5.76-13.866-8.746-22.4-8.96-8.531-0.426-16 2.56-22.4 8.96l-199.466 199.467v-699.733c0-9.174-2.989-16.854-8.96-23.040-5.974-5.974-13.654-8.96-23.040-8.96z" />
<glyph unicode="&#xe941;" glyph-name="arrow-north-weast-solid" d="M786.131 129.072l-508.799 508.8v-281.6c0-9.174-2.987-16.854-9.173-23.040-5.973-5.974-13.653-8.96-22.827-8.96s-16.853 2.986-22.827 8.96c-5.973 5.974-9.173 13.654-9.173 23.040v358.4c0 9.173 2.987 16.853 9.173 22.827 5.973 5.973 13.653 9.173 22.827 9.173h358.399c9.174 0 16.854-2.987 23.040-9.173 5.974-5.973 8.96-13.653 8.96-22.827s-2.986-16.853-8.96-22.827c-5.971-5.973-13.651-9.173-23.040-9.173h-281.6l508.8-508.8c6.4-6.4 9.6-13.866 9.6-22.4s-3.2-16-9.6-22.4c-6.4-6.4-13.866-9.6-22.4-9.6-8.531 0-16 3.2-22.4 9.6z" />
<glyph unicode="&#xe942;" glyph-name="arrow-south-solid" d="M512 34.138c-4.269 0-8.106 0.64-11.734 2.134-3.626 1.494-7.040 3.84-10.666 7.466l-253.867 253.869c-6.4 6.4-9.6 13.866-9.6 22.4 0 8.531 3.2 16 9.6 22.4s13.867 9.6 22.4 9.6c8.533 0 16-3.2 22.4-9.6l199.467-199.469v699.734c0 9.173 2.986 16.853 8.96 22.827 5.971 5.973 13.651 9.173 22.826 9.173s16.854-2.987 23.040-9.173c5.974-5.973 8.96-13.653 8.96-22.827v-699.734l199.466 199.469c5.76 5.76 13.014 8.746 21.974 8.96 8.96 0.211 16.426-2.56 23.040-8.96 6.4-6.4 9.6-13.869 9.6-22.4 0-8.534-3.2-16-9.6-22.4l-253.866-253.869c-3.629-3.626-7.040-5.971-10.669-7.466-3.626-1.494-7.466-2.134-11.731-2.134z" />
<glyph unicode="&#xe943;" glyph-name="chevron-back-solid" d="M667.734 51.197l-374.4 374.4c-3.627 3.629-5.973 7.040-7.467 10.669-1.493 3.626-2.133 7.466-2.133 11.731 0 4.269 0.64 8.109 2.133 11.734s3.84 7.040 7.467 10.666l374.4 374.401c7.894 7.893 17.706 11.733 29.866 11.733s21.974-3.84 29.869-11.733c8.531-8.533 12.8-18.773 12.8-30.293s-4.269-21.973-12.8-30.507l-336-336.001 336-336c8.531-8.531 12.586-18.771 12.371-30.291-0.426-11.734-4.48-21.549-12.371-29.44-8.534-8.534-18.774-12.8-30.294-12.8s-21.546 3.84-29.44 11.731z" />
<glyph unicode="&#xe944;" glyph-name="chevron-down-solid" d="M511.36 309.978c-4.266 0-8.106 0.64-11.734 2.134-3.626 1.491-7.040 3.84-10.666 7.466l-211.2 211.2c-5.76 5.76-8.32 13.226-8.107 23.040 0.427 9.6 3.413 17.28 9.173 23.040 7.040 7.040 14.72 10.24 22.827 8.96s15.573-4.48 21.762-10.24l187.731-187.734 187.734 187.734c5.76 5.76 13.226 8.96 23.040 9.6 9.6 0.64 17.28-2.56 23.040-9.6 7.040-5.76 10.026-13.226 8.96-22.4s-4.48-17.066-10.026-23.466l-210.134-210.134c-3.626-3.626-7.040-5.974-10.666-7.466-3.629-1.494-7.469-2.134-11.734-2.134z" />
<glyph unicode="&#xe945;" glyph-name="chevron-downward-solid" d="M106.651 673.594c10.667 9.956 23.111 15.111 37.333 15.467s26.667-4.8 37.333-15.467l328.532-328.532 328.534 328.532c9.955 9.956 22.224 15.111 36.8 15.467 14.579 0.356 27.2-4.8 37.866-15.467 10.669-9.244 16.179-21.333 16.534-36.266s-4.8-27.379-15.466-37.334l-374.4-375.466c-4.269-4.266-8.89-7.466-13.869-9.6-4.976-2.134-10.31-3.2-16-3.2-5.686 0-11.021 1.066-16 3.2-4.976 2.134-9.6 5.334-13.866 9.6l-374.4 374.4c-9.956 9.955-14.933 22.221-14.933 36.8 0 14.577 5.333 27.2 16 37.866z" />
<glyph unicode="&#xe946;" glyph-name="chevron-forward-solid" d="M296.318 54.394c-7.893 8.531-11.947 18.56-12.16 29.866-0.427 11.306 3.84 21.334 12.16 29.866l335.999 336-335.999 336.001c-7.893 7.893-11.947 17.707-12.16 29.44-0.427 11.733 3.84 21.76 12.16 30.507 7.893 8.533 17.493 13.013 29.439 13.227 11.734 0.427 21.76-3.84 30.509-12.373l374.4-374.401c3.626-3.626 5.971-7.040 7.466-10.666s2.134-7.466 2.134-11.734c0-4.266-0.64-8.106-2.134-11.731-1.494-3.629-3.84-7.040-7.466-10.669l-374.4-374.4c-7.894-7.891-17.494-11.731-29.44-11.731-11.948 0-21.974 4.266-30.508 12.8z" />
<glyph unicode="&#xe947;" glyph-name="chevron-left-solid" d="M594.134 213.757l-211.2 211.2c-3.626 3.629-5.974 7.040-7.466 10.669-1.494 3.626-2.134 7.466-2.134 11.731 0 4.269 0.64 8.109 2.134 11.734 1.491 3.626 3.84 7.040 7.466 10.666l212.266 212.268c6.4 6.4 14.080 9.6 23.040 9.6s16.429-3.2 23.040-9.6c6.4-6.4 9.389-14.293 8.96-23.467-0.426-9.173-3.626-17.067-10.24-23.467l-187.731-187.734 188.8-188.8c6.4-6.4 9.6-13.866 9.6-22.4 0-8.531-3.2-16-9.6-22.4s-14.294-9.6-23.469-9.6c-9.171 0-17.066 3.2-23.466 9.6z" />
<glyph unicode="&#xe948;" glyph-name="chevron-right-solid" d="M429.869 682.244l211.2-211.201c3.626-3.626 5.971-7.040 7.466-10.666s2.134-7.466 2.134-11.734c0-4.266-0.64-8.106-2.134-11.734-1.494-3.626-3.84-7.040-7.466-10.666l-212.269-212.266c-6.4-6.4-14.080-9.6-23.040-9.6s-16.426 3.2-23.040 9.6c-6.4 6.4-9.386 14.294-8.96 23.466 0.429 9.174 3.629 17.066 10.24 23.466l187.734 187.734-188.8 188.8c-6.4 6.401-9.6 13.867-9.6 22.401s3.2 16 9.6 22.4c6.4 6.4 14.294 9.6 23.466 9.6 9.174 0 17.069-3.2 23.469-9.6z" />
<glyph unicode="&#xe949;" glyph-name="alternate-email-solid" d="M512 373.338c41.238 0 74.666 33.43 74.666 74.669 0 41.235-33.427 74.666-74.666 74.666s-74.666-33.43-74.666-74.666c0-41.238 33.427-74.669 74.666-74.669zM512 874.672c-235.733 0-426.667-190.933-426.667-426.666s190.933-426.669 426.667-426.669c235.734 0 426.666 190.934 426.666 426.669 0 235.732-190.931 426.666-426.666 426.666zM693.334 341.338c-26.454 0-50.134 10.029-68.909 25.814-25.171-34.986-66.131-57.814-112.426-57.814-76.374 0-138.666 62.294-138.666 138.669 0 76.371 62.291 138.666 138.666 138.666s138.666-62.294 138.666-138.666c0-23.469 19.2-42.669 42.669-42.669 23.466 0 42.666 19.2 42.666 42.669 0 123.52-100.48 223.999-224 223.999s-224-100.479-224-223.999c0-123.52 100.48-224 224-224h138.24c17.706 0 32-14.294 32-32 0-17.709-14.294-32-32-32h-138.24c-158.72 0-288 129.28-288 288s129.28 287.999 288 287.999c158.72 0 288-129.279 288-287.999 0-58.88-47.786-106.669-106.666-106.669z" />
<glyph unicode="&#xe94a;" glyph-name="article-solid" d="M327.466 233.6h229.334c9.174 0 16.854 2.986 23.040 8.96s8.96 13.654 8.96 23.040c0 9.386-2.986 16.854-8.96 23.040s-13.654 9.174-23.040 8.96h-229.334c-9.172 0-16.852-2.986-22.826-8.96s-8.96-13.654-9.173-23.040c0-9.174 2.987-16.854 9.173-23.040 5.973-5.974 13.653-8.96 22.826-8.96zM327.466 416h369.069c9.171 0 16.851 2.986 23.040 8.96 5.971 5.974 8.96 13.654 8.96 23.040s-2.989 16.854-8.96 23.040c-5.974 5.974-13.654 8.96-23.040 8.96h-369.069c-9.172 0-16.852-2.986-22.826-8.96s-9.173-13.654-9.173-23.040c0-9.386 2.987-16.854 9.173-23.040 5.973-5.974 13.653-8.96 22.826-8.96zM327.466 598.4h369.069c9.171 0 16.851 2.986 23.040 8.96 6.186 5.974 8.96 13.654 8.96 22.826 0 9.174-2.989 16.854-8.96 22.828-5.974 5.973-13.654 9.173-23.040 9.173h-369.069c-9.172 0-16.852-2.987-22.826-9.173-5.973-5.973-9.173-13.653-9.173-22.828 0-9.171 2.987-16.851 9.173-22.826 5.973-5.974 13.653-8.96 22.826-8.96zM192 64c-17.067 0-32 6.4-44.8 19.2s-19.2 27.734-19.2 44.8v640c0 17.067 6.4 32 19.2 44.8s27.733 19.2 44.8 19.2h640c17.066 0 32-6.4 44.8-19.2s19.2-27.733 19.2-44.8v-640c0-17.066-6.4-32-19.2-44.8s-27.734-19.2-44.8-19.2h-640z" />
<glyph unicode="&#xe94b;" glyph-name="assignment-solid" d="M330.666 234.662h227.2c9.174 0 16.854 2.986 23.040 8.96 5.974 5.971 8.96 13.651 8.96 23.040 0 9.386-2.986 16.851-8.96 23.040-5.971 5.971-13.651 8.96-23.040 8.96h-227.2c-9.171 0-16.852-2.989-22.826-8.96-5.973-5.974-9.173-13.654-9.173-23.040 0-9.389 2.987-16.854 9.173-23.040 5.973-5.974 13.654-8.96 22.826-8.96zM330.666 415.994h362.669c9.171 0 16.851 2.989 23.040 8.96 5.971 5.974 8.96 13.654 8.96 23.040 0 9.389-2.989 16.854-8.96 23.040-5.974 5.974-13.654 8.96-23.040 8.96h-362.669c-9.171 0-16.852-2.986-22.826-8.96-5.973-5.971-9.173-13.651-9.173-23.040 0-9.386 2.987-16.851 9.173-23.040 5.973-5.971 13.654-8.96 22.826-8.96zM330.666 597.328h362.669c9.171 0 16.851 2.986 23.040 8.96 5.971 5.974 8.96 13.654 8.96 23.040s-2.989 16.853-8.96 22.827c-5.974 5.973-13.654 9.173-23.040 9.173h-362.669c-9.171 0-16.852-2.987-22.826-9.173-5.973-5.973-9.173-13.652-9.173-22.827s2.987-16.854 9.173-23.040c5.973-5.974 13.654-8.96 22.826-8.96zM192 63.994c-17.707 0-32.853 6.189-45.227 18.774s-18.773 27.52-18.773 45.226v640.001c0 17.707 6.187 32.853 18.773 45.227s27.52 18.773 45.227 18.773h218.666c3.629 24.96 14.934 45.227 34.134 61.44 19.2 16 41.6 23.893 67.2 23.893s48-8.107 67.2-23.893c19.2-16 30.506-36.48 34.134-61.44h218.666c17.706 0 32.854-6.187 45.226-18.773 12.374-12.587 18.774-27.52 18.774-45.227v-640.001c0-17.706-6.186-32.851-18.774-45.226-12.586-12.374-27.52-18.774-45.226-18.774h-640zM512 786.128c10.026 0 18.774 3.627 26.24 11.307 7.466 7.467 11.094 16.213 11.094 26.027s-3.84 18.773-11.094 26.027c-7.466 7.467-16.214 11.093-26.24 11.093s-18.774-3.84-26.24-11.307c-7.466-7.467-11.094-16.213-11.094-26.027s3.84-18.773 11.094-26.027c7.466-7.467 16.214-11.093 26.24-11.093z" />
<glyph unicode="&#xe94c;" glyph-name="bank-solid" d="M117.333 618.669h789.332c17.709 0 32 14.294 32 32v10.027c0 26.24-16 49.707-40.32 59.52l-362.666 145.067c-15.36 6.187-32.214 6.187-47.574 0l-362.452-145.28c-24.32-9.813-40.32-33.28-40.32-59.52v-10.027c0-17.707 14.293-32.001 32-32.001v0.214zM906.666 128h-789.332c-17.707 0-32-14.294-32-32s14.293-32 32-32h789.332c17.709 0 32 14.294 32 32s-14.291 32-32 32zM320 618.672h-170.667c0-27.734 17.92-51.2 42.667-60.16v-370.56c-24.747-8.746-42.667-32.214-42.667-60.16h170.667c0 27.734-17.92 51.2-42.667 60.16v370.56c24.747 8.746 42.667 32.214 42.667 60.16zM597.334 618.672h-170.669c0-27.734 17.92-51.2 42.669-60.16v-370.56c-24.749-8.746-42.669-32.214-42.669-60.16h170.669c0 27.734-17.92 51.2-42.669 60.16v370.56c24.749 8.746 42.669 32.214 42.669 60.16zM874.666 618.672h-170.666c0-27.734 17.92-51.2 42.666-60.16v-370.56c-24.746-8.746-42.666-32.214-42.666-60.16h170.666c0 27.734-17.92 51.2-42.666 60.16v370.56c24.746 8.746 42.666 32.214 42.666 60.16z" />
<glyph unicode="&#xe94d;" glyph-name="bookmark-solid" d="M258.133 83.194c-10.667-4.906-20.907-4.266-30.507 2.134s-14.507 15.36-14.507 26.666v661.334c0 17.067 6.4 32 19.2 44.8s27.733 19.2 44.8 19.2h469.334c17.066 0 32-6.4 44.8-19.2s19.2-27.733 19.2-44.8v-661.334c0-11.306-4.909-20.266-14.294-26.666-9.6-6.4-19.626-7.040-30.294-2.134l-253.866 108.8-253.867-108.8z" />
<glyph unicode="&#xe94e;" glyph-name="chat-solid" d="M288 361.606h270.934c8.531 0 15.786 2.986 21.76 8.96 5.971 5.971 8.96 13.651 8.96 23.040 0 9.386-2.989 16.851-8.96 23.040-5.974 6.186-13.654 9.171-23.040 8.96h-270.934c-8.533 0-15.787-2.989-21.76-8.96-5.973-5.974-9.173-13.654-9.173-23.040 0-9.389 2.987-16.854 9.173-23.040 5.973-5.974 13.653-8.96 22.827-8.96h0.213zM288 500.272h449.066c8.534 0 15.789 2.986 21.974 8.96s8.96 13.654 8.96 23.040c0 9.386-2.986 16.854-8.96 23.040-5.974 5.974-13.654 8.96-23.040 8.96h-449.067c-8.533 0-15.787-2.986-21.76-8.96s-9.173-13.654-9.173-23.040c0-9.386 2.987-16.854 9.173-23.040 5.973-5.974 13.653-8.96 22.827-8.96zM288 638.938h449.066c8.534 0 15.789 2.988 21.974 9.174 5.974 5.973 8.96 13.653 8.96 22.827s-2.986 16.853-8.96 22.827c-5.974 5.973-13.654 9.173-23.040 9.173h-449.067c-8.533 0-15.787-2.987-21.76-9.173-5.973-5.973-9.173-13.653-9.173-22.827s2.987-16.853 9.173-22.827c5.973-5.973 13.653-9.174 22.827-8.96v-0.214zM85.333 98.138v712.534c0 16.427 6.4 31.147 19.2 44.16 12.8 13.227 27.733 19.84 44.8 19.84h725.332c16.429 0 31.149-6.613 44.374-19.84s19.626-27.947 19.626-44.16v-554.666c0-16.429-6.611-31.149-19.626-44.374-13.226-13.226-27.946-19.626-44.374-19.626h-618.666l-116.267-116.269c-10.027-10.026-21.547-12.371-34.56-7.040-13.227 5.334-19.84 15.149-19.84 29.44z" />
<glyph unicode="&#xe94f;" glyph-name="check-circle-solid" d="M449.066 350.938l-104.531 104.534c-6.4 6.4-14.294 9.6-23.469 9.6-9.172 0-17.066-3.2-23.466-9.6-7.040-7.040-10.667-15.574-10.667-24.96 0-9.6 3.2-17.706 9.6-23.894l130.132-130.131c5.76-5.76 13.229-8.534 22.4-8.534 9.174 0 16.64 2.774 22.4 8.534l256 256c6.4 6.4 9.6 14.291 9.6 23.466s-3.626 17.494-10.666 24.534c-6.4 6.4-14.294 9.6-23.894 9.6s-17.92-3.629-24.96-10.669l-228.48-228.48zM512 21.338c-60.374 0-116.694 10.88-168.534 32.64s-97.066 51.629-135.466 90.029-68.48 83.626-90.027 135.466c-21.76 51.84-32.64 108.16-32.64 168.534 0 60.371 10.88 115.626 32.64 167.466s51.84 97.067 90.027 135.467c38.4 38.4 83.627 68.693 135.466 90.667 51.84 21.973 108.16 33.067 168.534 33.067s115.626-11.093 167.466-33.067c51.84-21.973 97.069-52.267 135.469-90.667s68.691-83.627 90.666-135.467c21.974-51.84 33.066-107.734 33.066-167.466 0-59.734-11.091-116.694-33.066-168.534s-52.266-97.066-90.666-135.466c-38.4-38.4-83.629-68.48-135.469-90.029-51.84-21.76-107.731-32.64-167.466-32.64z" />
<glyph unicode="&#xe950;" glyph-name="contact-mail-solid" d="M64 64.64c-17.067 0-32.213 6.614-45.013 19.414s-18.987 27.52-18.987 44.586v640.001c0 17.067 6.4 32 19.2 44.8s27.733 19.2 44.8 19.2l896-0.64c17.066 0 32-6.4 44.8-19.2s19.2-27.733 19.2-44.8v-640.001c0-17.066-6.4-32-19.2-44.8s-27.734-19.2-44.8-19.2l-896 0.64zM350.934 373.334c35.626 0 65.491 12.16 89.6 36.266 24.106 24.109 36.266 53.974 36.266 89.6 0 35.629-12.16 65.494-36.266 89.6-24.109 24.109-53.974 36.269-89.6 36.269-35.628 0-65.494-12.16-89.601-36.269-24.107-24.106-36.267-53.971-36.267-89.6 0-35.626 12.16-65.491 36.267-89.6 24.107-24.106 53.973-36.266 89.601-36.266zM631.466 494.934h221.869c9.171 0 16.851 2.986 23.040 8.96 6.186 5.974 8.96 13.654 8.96 23.040v134.4c0 9.173-2.989 16.853-8.96 22.827-5.974 5.973-13.654 9.173-23.040 9.173h-221.869c-9.171 0-16.851-2.987-23.040-9.173-5.971-5.973-8.96-13.653-8.96-22.827v-134.4c0-9.174 2.989-16.854 8.96-23.040 5.974-5.974 13.654-8.96 23.040-8.96zM73.6 128h554.666c-32 52.694-71.891 92.374-119.891 119.469-48 27.091-100.48 40.531-157.44 40.531s-109.441-13.44-157.868-40.531c-48.427-27.094-88.107-66.774-119.467-119.469zM743.466 534.4l-112 84.269v42.665l110.934-84.265 110.934 84.265v-42.665l-109.869-84.269z" />
<glyph unicode="&#xe951;" glyph-name="contact-phone-solid" d="M960 832h-896c-35.413 0-64-28.587-64-64v-640c0-35.414 28.587-64 64-64h896c35.414 0 64 28.586 64 64v640c0 35.413-28.586 64-64 64zM260.907 581.334c24.96 24.96 55.040 37.331 90.668 37.331 35.626 0 65.706-12.371 90.666-37.331s37.334-55.040 37.334-90.669c0-35.626-12.374-65.706-37.334-90.666s-55.040-37.334-90.666-37.334c-35.628 0-65.708 12.374-90.668 37.334s-37.333 55.040-37.333 90.666c0 35.629 12.373 65.709 37.333 90.669zM71.040 128c31.36 49.066 71.68 87.894 120.96 116.266 49.493 28.374 102.613 42.669 159.574 42.669s110.506-14.294 158.931-42.669c48.429-28.371 88.534-67.2 120.534-116.266h-560zM740.48 396.16c2.56-15.36 7.040-31.786 13.226-49.494h57.6c5.76 0 10.88-1.066 15.36-3.2 4.694-2.131 8.32-5.76 11.309-10.666l35.2-50.134c4.906-6.4 7.040-13.44 6.4-21.331-0.64-7.894-3.84-14.509-9.6-20.269l-42.669-42.666c-5.76-5.76-12.586-8.746-20.906-9.174-8.106-0.426-15.146 2.349-20.694 8.109-32.64 32-58.026 69.76-75.731 113.066-17.709 43.306-26.669 88.96-26.669 136.534 0 47.571 8.96 93.226 26.669 136.531 17.706 43.309 43.091 81.068 75.731 113.068 5.76 5.76 12.589 8.32 20.694 8.107 8.106-0.427 15.146-3.413 20.906-9.173l42.669-42.667c5.76-5.76 8.96-12.373 9.6-20.266s-1.494-14.934-6.4-21.334l-35.2-50.134c-2.774-4.906-6.614-8.531-11.309-10.666-4.691-2.134-9.811-3.2-15.36-3.2h-57.6c-6.4-18.56-10.88-35.2-13.226-50.134-2.56-14.931-3.626-31.571-3.626-50.131s1.28-35.414 3.626-50.774z" />
<glyph unicode="&#xe952;" glyph-name="contact-support-solid" d="M570.666 21.338l-10.666 117.334h-42.666c-101.76 0-188.374 35.84-260.268 107.734-71.893 71.891-107.733 158.506-107.733 260.266s36.053 188.373 108.16 260.267c72.107 71.893 159.572 107.733 261.972 107.733 50.56 0 97.28-8.96 140.16-27.307 43.094-18.133 80.64-43.52 112.64-76.373 32-32.64 56.96-71.253 75.309-115.84 18.131-44.374 27.306-93.014 27.091-145.494 0-95.36-26.88-187.091-80.64-275.84-53.76-88.531-128.211-159.36-223.36-212.691v0.211zM519.466 259.206c11.309 0 20.909 3.84 28.8 11.731 7.894 7.894 11.734 17.494 11.734 28.8 0 11.309-3.84 20.909-11.734 28.8-7.891 7.894-17.491 11.734-28.8 11.734-11.306 0-20.906-3.84-28.8-11.734-7.891-7.891-11.731-17.491-11.731-28.8 0-11.306 3.84-20.906 11.731-28.8 7.894-7.891 17.494-11.731 28.8-11.731zM517.334 404.272c7.040 0 13.226 2.56 18.771 7.466 5.549 4.909 8.749 11.309 10.24 19.2 2.134 10.029 6.614 19.629 13.229 28.8 6.826 9.174 17.28 20.909 31.571 35.2 19.2 19.2 32.64 36.909 40.534 52.909s11.734 33.28 11.734 51.626c0 32-10.88 58.24-32.429 78.933-21.76 20.693-50.771 30.933-87.040 30.933-24.96 0-47.786-5.547-68.906-16.427-20.906-11.093-37.76-26.453-50.56-46.507-4.266-6.4-4.906-13.013-2.134-19.839 2.774-6.829 8.109-11.949 16-15.574 5.76-2.134 11.734-2.134 18.134 0s11.734 5.974 16 11.734c7.894 11.306 17.494 19.839 29.44 25.172 11.734 5.333 24.746 8.107 39.040 8.107 21.334 0 37.974-5.12 50.134-15.573 12.16-10.24 18.131-23.894 18.131-40.96 0-13.44-3.84-27.306-11.731-40.96-7.894-13.866-21.76-31.146-41.6-51.626-14.934-15.574-25.6-28.589-32-39.040-6.4-10.24-10.24-22.614-11.734-36.909-0.64-7.040 1.494-13.226 6.4-18.771 4.906-5.334 11.306-7.894 19.2-8.109l-0.426 0.214z" />
<glyph unicode="&#xe953;" glyph-name="corporate-solid" d="M864 874.672h-704c-17.707 0-32-14.293-32-32s14.293-32 32-32h32v-789.334h192v112c0 17.709 14.294 32 32 32h192c17.706 0 32-14.291 32-32v-112h192v789.334h32c17.706 0 32 14.293 32 32s-14.294 32-32 32zM384 266.032c0-17.706-14.294-32-32-32h-64c-17.707 0-32 14.294-32 32v64c0 17.706 14.293 32 32 32h64c17.706 0 32-14.294 32-32v-64zM384 458.246c0-17.709-14.294-32-32-32h-64c-17.707 0-32 14.291-32 32v64c0 17.706 14.293 32 32 32h64c17.706 0 32-14.294 32-32v-64zM384 650.459c0-17.707-14.294-32.001-32-32.001h-64c-17.707 0-32 14.294-32 32.001v64c0 17.707 14.293 32 32 32h64c17.706 0 32-14.293 32-32v-64zM576 266.032c0-17.706-14.294-32-32-32h-64c-17.706 0-32 14.294-32 32v64c0 17.706 14.294 32 32 32h64c17.706 0 32-14.294 32-32v-64zM576 458.246c0-17.709-14.294-32-32-32h-64c-17.706 0-32 14.291-32 32v64c0 17.706 14.294 32 32 32h64c17.706 0 32-14.294 32-32v-64zM576 650.459c0-17.707-14.294-32.001-32-32.001h-64c-17.706 0-32 14.294-32 32.001v64c0 17.707 14.294 32 32 32h64c17.706 0 32-14.293 32-32v-64zM768 266.458c0-17.706-14.294-32-32-32h-64c-17.706 0-32 14.294-32 32v64c0 17.709 14.294 32 32 32h64c17.706 0 32-14.291 32-32v-64zM768 458.246c0-17.709-14.294-32-32-32h-64c-17.706 0-32 14.291-32 32v64c0 17.706 14.294 32 32 32h64c17.706 0 32-14.294 32-32v-64zM768 650.885c0-17.708-14.294-31.999-32-31.999h-64c-17.706 0-32 14.291-32 31.999v64c0 17.707 14.294 32 32 32h64c17.706 0 32-14.293 32-32v-64z" />
<glyph unicode="&#xe954;" glyph-name="description-solid" d="M372.266 202.672h279.469c9.171 0 16.851 2.986 23.040 8.96 5.971 5.974 9.171 13.654 9.171 23.040s-2.986 16.854-8.96 23.040c-5.971 5.974-13.651 8.96-23.040 8.96h-279.466c-9.174 0-16.854-2.986-23.040-8.96s-9.174-13.654-9.174-23.040c0-9.386 2.989-16.854 9.174-23.040s13.654-8.96 22.826-8.96zM372.266 384.006h279.469c9.171 0 16.851 2.986 23.040 8.96 5.971 5.971 9.171 13.651 9.171 23.040 0 9.386-2.986 16.851-8.96 23.040-5.971 5.971-13.651 8.96-23.040 8.96h-279.466c-9.174 0-16.854-2.989-23.040-8.96-5.974-5.974-9.174-13.654-9.174-23.040 0-9.389 2.989-16.854 9.174-23.040 5.974-5.974 13.654-8.96 23.040-8.96h-0.214zM234.667 21.338c-17.067 0-32 6.4-44.8 19.2s-19.2 27.734-19.2 44.8v725.334c0 17.067 6.4 32 19.2 44.8s27.733 19.2 44.8 19.2h358.399c8.534 0 16.854-1.707 24.96-5.333 8.109-3.627 15.149-8.107 20.909-13.867l195.2-195.2c5.76-5.76 10.24-12.587 13.866-20.906 3.626-8.109 5.334-16.64 5.334-25.174v-529.066c0-17.069-6.4-32-19.2-44.8s-27.734-19.2-44.8-19.2l-554.668 0.211zM587.734 644.272c0-9.174 2.986-16.854 8.96-22.826 5.971-5.974 13.651-9.174 23.040-9.174h169.6l-201.6 198.4v-166.4z" />
<glyph unicode="&#xe955;" glyph-name="draft-solid" d="M234.667 21.338c-17.067 0-32 6.4-44.8 19.2s-19.2 27.734-19.2 44.8v725.334c0 17.067 6.4 32 19.2 44.8s27.733 19.2 44.8 19.2h358.399c8.534 0 16.854-1.707 24.96-5.333 8.109-3.627 15.149-8.107 20.909-13.867l195.2-195.2c5.76-5.76 10.24-12.587 13.866-20.906 3.626-8.109 5.334-16.64 5.334-25.174v-529.066c0-17.069-6.4-32-19.2-44.8s-27.734-19.2-44.8-19.2l-554.668 0.211zM587.734 644.272c0-9.174 2.986-16.854 8.96-22.826 5.971-5.974 13.651-9.174 23.040-9.174h169.6l-201.6 198.4v-166.4z" />
<glyph unicode="&#xe956;" glyph-name="drafts-solid" d="M910.506 609.917l-6.186 3.626-360.32 207.786c-19.84 11.52-44.16 11.52-64 0l-366.507-211.412c-17.067-11.52-28.16-30.934-28.16-53.12v-426.669c0-26.451 16-49.28 39.040-58.88 7.68-3.411 16-5.12 24.96-5.12h725.332c6.614 0 12.8 1.069 18.774 2.989h0.214c26.24 7.891 45.011 32.211 45.011 61.011v426.669c0 22.186-11.091 41.6-28.16 53.12zM480 363.728l-330.667 190.934 346.667 200.106c9.814 5.76 22.186 5.76 32 0l346.666-200.106-330.666-190.934c-19.84-11.52-44.16-11.52-64 0z" />
<glyph unicode="&#xe957;" glyph-name="email-content-solid" d="M910.506 609.706l-6.186 3.626-50.986 29.441v35.413c0 37.76-30.72 68.48-68.48 68.48h-111.574l-129.28 74.667c-19.84 11.307-44.16 11.307-64 0l-129.28-74.667h-111.573c-37.76 0-68.48-30.72-68.48-68.48v-35.413l-57.173-33.067c-17.067-11.52-28.16-30.934-28.16-53.12v-426.666c0-26.454 16-49.28 39.040-58.88 7.68-3.414 16-5.12 24.96-5.12h725.332c6.614 0 12.8 1.066 18.774 2.986h0.214c26.24 7.894 45.011 32.214 45.011 61.014v426.666c0 22.186-11.091 41.6-28.16 53.12zM874.454 554.451l-330.454-190.72c-19.84-11.52-44.16-11.52-64 0l-4.906 2.774-325.761 187.946 21.333 12.374 10.453 6.186h0.213l53.333-30.931v136.106c0 0 0.213 1.067 0.427 1.707 0.64 1.493 2.347 2.773 4.053 2.773h545.708c1.706 0 3.411-1.28 4.051-2.773 0-0.64 0.429-1.067 0.429-1.707v-135.895l53.331 30.72 10.669-6.186 21.331-12.16h-0.211v-0.214zM694.4 617.594h-364.8c-9.174 0-16.853-2.986-23.040-9.174-5.973-5.971-8.96-13.651-8.96-22.826s2.987-16.854 8.96-22.826c5.973-5.974 13.654-9.174 23.040-9.174h364.8c9.174 0 16.854 2.986 23.040 9.174 6.186 6.186 8.96 13.651 8.96 22.826s-2.986 16.854-8.96 22.826c-5.974 5.974-13.654 9.174-23.040 9.174z" />
<glyph unicode="&#xe958;" glyph-name="facebook-solid" d="M938.666 447.99c0 235.732-190.931 426.666-426.666 426.666-235.733 0-426.667-190.933-426.667-426.666 0-212.909 155.947-389.549 360.107-421.549v298.24h-108.374v123.309h108.374v94.080c0 106.879 63.786 165.972 161.066 165.972 46.72 0 95.574-8.32 95.574-8.32v-104.961h-53.76c-52.906 0-69.546-32.851-69.546-66.56v-80h118.4l-18.989-123.306h-99.411v-298.24c203.946 32 360.106 208.426 360.106 421.546l-0.214-0.211z" />
<glyph unicode="&#xe959;" glyph-name="fact-check-solid" d="M256 586.666h128c9.174 0 16.854 2.989 23.040 8.96 5.974 5.974 8.96 13.654 8.96 23.040 0 9.389-2.986 16.854-8.96 22.828s-13.654 9.173-23.040 9.173h-128c-9.173 0-16.853-2.987-22.827-9.173-5.973-5.973-9.173-13.653-9.173-22.828 0-9.171 2.987-16.851 9.173-23.040 5.973-5.971 13.653-8.96 22.827-8.96zM256 416h128c9.174 0 16.854 2.986 23.040 8.96 5.974 5.974 8.96 13.654 8.96 23.040s-2.986 16.854-8.96 23.040c-5.974 5.974-13.654 8.96-23.040 8.96h-128c-9.173 0-16.853-2.986-22.827-8.96s-9.173-13.654-9.173-23.040c0-9.386 2.987-16.854 9.173-23.040 5.973-5.974 13.653-8.96 22.827-8.96zM256 245.334h128c9.174 0 16.854 2.986 23.040 8.96 5.974 5.971 8.96 13.651 8.96 23.040 0 9.386-2.986 16.851-8.96 23.040-5.974 5.971-13.654 8.96-23.040 8.96h-128c-9.173 0-16.853-2.989-22.827-8.96-5.973-5.974-9.173-13.654-9.173-23.040 0-9.389 2.987-16.854 9.173-23.040 5.973-5.974 13.653-8.96 22.827-8.96zM620.8 343.466c2.774 0 5.546 0.429 8.106 1.709 2.56 1.066 4.694 2.771 7.040 4.906l157.869 158.934c7.040 7.040 10.88 14.506 11.306 22.4 0.426 7.891-2.986 15.36-10.026 22.4-6.4 6.4-14.080 9.6-23.040 9.6s-16.429-3.2-23.040-9.6l-128-128-38.4 37.331c-6.4 6.4-13.869 9.6-22.4 9.6-8.534 0-16-3.2-22.4-9.6s-9.6-13.866-9.6-22.4c0-8.531 3.2-16 9.6-22.4l68.266-68.266c2.134-2.134 4.48-3.84 7.040-4.906 2.56-1.069 5.12-1.709 7.894-1.709h-0.214zM140.8 64c-17.067 0-32 6.4-44.8 19.2s-19.2 27.734-19.2 44.8v640c0 17.067 6.4 32 19.2 44.8s27.733 19.2 44.8 19.2h742.4c17.066 0 32-6.4 44.8-19.2s19.2-27.733 19.2-44.8v-640c0-17.066-6.4-32-19.2-44.8s-27.734-19.2-44.8-19.2h-742.4z" />
<glyph unicode="&#xe95a;" glyph-name="feed-solid" d="M192 64c-17.067 0-32 6.4-44.8 19.2s-19.2 27.734-19.2 44.8v640c0 17.067 6.4 32 19.2 44.8s27.733 19.2 44.8 19.2h492.8l211.2-211.2v-492.8c0-17.066-6.4-32-19.2-44.8s-27.734-19.2-44.8-19.2h-640zM329.6 246.4h364.8c9.174 0 16.854 2.986 23.040 8.96s8.96 13.654 8.96 23.040c0 9.386-2.986 16.854-8.96 23.040-5.974 5.974-13.654 8.96-23.040 8.96h-364.8c-9.174 0-16.853-2.986-22.827-8.96s-8.96-13.654-9.173-23.040c0-9.174 2.987-16.854 9.173-23.040 5.973-5.974 13.652-8.96 23.041-8.96h-0.214zM329.6 585.6h150.4c9.174 0 16.854 2.986 23.040 8.96 5.974 5.974 8.96 13.654 8.96 23.040s-2.986 16.854-8.96 22.827c-5.974 5.973-13.654 9.173-23.040 9.173h-150.4c-9.174 0-16.853-2.987-22.827-9.173-5.973-5.972-9.173-13.652-9.173-22.827s2.987-16.854 9.173-23.040c5.973-5.974 13.652-8.96 22.827-9.174v0.214zM329.6 416h364.8c9.174 0 16.854 2.986 23.040 8.96 5.974 5.974 8.96 13.654 8.96 23.040s-2.986 16.854-8.96 23.040c-5.974 5.974-13.654 8.96-23.040 8.96h-364.8c-9.174 0-16.853-2.986-22.827-8.96s-8.96-13.654-9.173-23.040c0-9.174 2.987-16.854 9.173-23.040 5.973-5.974 13.652-8.96 23.041-8.96h-0.214zM681.6 585.6h150.4l-182.4 182.4v-150.4c0-9.174 2.986-16.854 8.96-23.040 5.974-5.974 13.654-8.96 23.040-8.96z" />
<glyph unicode="&#xe95b;" glyph-name="help-center-solid" d="M192 64c-17.067 0-32 6.4-44.8 19.2s-19.2 27.734-19.2 44.8v640c0 17.067 6.4 32 19.2 44.8s27.733 19.2 44.8 19.2h640c17.066 0 32-6.4 44.8-19.2s19.2-27.733 19.2-44.8v-640c0-17.066-6.4-32-19.2-44.8s-27.734-19.2-44.8-19.2h-640zM508.8 198.4c11.306 0 20.906 3.84 28.8 11.734 7.894 7.891 11.734 17.491 11.734 28.8 0 11.306-3.84 20.906-11.734 28.8-7.894 7.891-17.494 11.731-28.8 11.731s-20.906-3.84-28.8-11.731c-7.894-7.894-11.734-17.494-11.734-28.8 0-11.309 3.84-20.909 11.734-28.8 7.894-7.894 17.494-11.734 28.8-11.734zM536.534 389.334c2.131 10.666 6.826 21.546 14.291 32.426 7.469 11.094 18.349 23.68 32.429 37.76 22.826 22.826 38.826 43.094 48 61.44 9.171 18.346 13.866 38.186 13.866 60.374 0 36.906-11.52 65.919-34.56 86.826s-54.186 31.36-93.226 31.573c-32 0-61.654-6.827-88.96-20.267-27.309-13.44-45.014-30.293-52.909-50.132-3.626-7.894-4.266-15.574-2.131-23.040 2.131-7.469 7.040-13.014 14.931-16.429 7.894-3.626 15.789-3.411 23.894 0.429s15.574 8.96 21.76 15.571c10.666 10.669 22.614 18.774 35.626 24.534 13.229 5.76 27.52 8.534 43.094 8.534 21.334 0 38.614-5.549 51.626-16.429 13.014-10.88 19.84-26.24 19.629-45.226 0-14.294-3.84-28.16-11.734-41.6s-20.694-28.374-38.4-44.8c-19.84-19.2-34.986-37.546-45.226-55.040s-15.36-33.28-15.36-47.36c0-8.534 2.771-16 8.531-22.4s12.374-9.6 20.269-9.6c8.531 0 15.786 3.2 21.76 9.6 5.971 6.4 10.24 14.294 12.16 23.466l0.64-0.211z" />
<glyph unicode="&#xe95c;" glyph-name="help-solid" d="M516.266 199.456c11.309 0 20.909 3.84 28.8 11.734 7.894 7.891 11.734 17.491 11.734 28.8 0 11.306-3.84 20.906-11.734 28.8-7.891 7.891-17.491 11.731-28.8 11.731-11.306 0-20.906-3.84-28.8-11.731-7.891-7.894-11.731-17.494-11.731-28.8 0-11.309 3.84-20.909 11.731-28.8 7.894-7.894 17.494-11.734 28.8-11.734zM515.2 639.99c24.106 0 43.734-6.614 58.666-19.84 14.934-13.229 22.4-30.080 22.4-50.56 0-14.294-4.266-28.374-12.8-42.24-8.531-13.869-22.4-29.014-41.6-45.229-18.56-16.426-33.28-33.491-44.371-51.626-11.094-18.134-16.429-34.56-16.429-49.706 0-7.894 2.989-14.080 8.96-18.774 5.974-4.694 13.014-7.040 20.909-7.040 8.531 0 15.571 2.774 21.331 8.534s9.174 12.8 10.669 21.331c2.131 14.294 6.826 26.88 14.291 37.76 7.469 10.88 18.989 23.040 34.56 35.629 21.334 17.706 36.909 35.626 46.294 53.331 9.6 17.709 14.506 37.76 14.294 59.734 0 37.76-12.374 67.84-36.909 90.667-24.531 22.827-56.96 34.133-97.491 34.133-27.094 0-51.84-5.333-74.669-16-22.826-10.667-41.6-26.24-56.531-46.935-5.76-7.891-8.109-15.786-7.040-24.106 1.066-8.32 4.48-14.506 10.24-18.774 7.891-5.76 16.211-7.466 24.96-5.331 8.746 2.131 16.211 7.040 21.76 14.931 9.171 12.8 20.48 22.614 33.706 29.44 13.226 6.829 27.946 10.24 44.374 10.24l0.426 0.429zM512 21.322c-59.734 0-115.626 10.88-167.466 32.64s-97.068 51.629-135.468 90.029c-38.4 38.4-68.693 83.626-90.667 135.466s-33.067 108.16-33.067 168.534c0 60.371 11.093 115.626 33.067 167.466s52.267 97.067 90.667 135.467c38.4 38.4 83.627 68.693 135.468 90.667s107.731 33.067 167.466 33.067c59.734 0 114.56-11.093 166.4-33.067s97.066-52.267 135.466-90.667c38.4-38.4 68.909-83.627 91.309-135.467s33.706-107.734 33.706-167.466c0-59.734-11.094-116.694-33.706-168.534-22.4-51.84-52.909-97.066-91.309-135.466s-83.626-68.48-135.466-90.029c-51.84-21.76-107.306-32.64-166.4-32.64z" />
<glyph unicode="&#xe95d;" glyph-name="import-contacts-solid" d="M546.134 202.653c35.626 17.706 70.4 31.146 104.531 40.106 34.134 8.96 70.4 13.226 108.8 13.226 27.094 0 55.040-2.131 83.629-6.4 28.8-4.266 53.546-10.026 74.026-17.066v457.599c-24.106 12.16-49.706 20.907-76.8 26.667s-53.974 8.533-81.066 8.533c-38.4 0-75.52-5.973-111.574-17.493-35.84-11.733-69.76-28.16-101.76-49.493v-455.467l0.214-0.211zM514.134 118.384c-5.76 0-10.88 0.64-15.574 1.709-4.694 1.066-8.746 2.986-12.374 5.971-33.491 20.694-68.906 36.694-106.666 48-37.76 11.309-76.16 17.069-115.2 17.069-26.24 0-51.84-3.2-76.8-9.603-24.96-6.4-49.707-14.291-74.667-23.466-16.427-7.891-32.213-6.826-47.36 3.2-15.36 10.029-22.827 24.109-22.827 42.669v493.652c0 10.667 2.56 20.48 7.467 29.44s12.373 15.787 22.4 20.907c29.867 14.293 61.013 24.747 93.44 31.573s65.28 10.027 98.56 10.027c44.8 0 88.321-5.973 130.561-18.133s81.92-30.507 118.826-55.467c36.266 24.96 75.094 43.307 116.906 55.467 41.814 12.16 84.48 18.133 128.429 18.133 33.491 0 66.131-3.413 98.131-10.24s62.934-17.28 92.8-31.573c10.029-4.907 17.709-11.947 23.040-20.907 5.334-8.96 8.109-18.56 8.109-29.227v-493.866c0-19.84-8.109-34.986-23.894-45.226-16-10.24-31.786-10.454-47.36-0.64-24.106 10.026-48.64 17.92-73.6 23.891-24.96 5.974-50.56 8.96-76.8 8.96-38.4 0-76.16-5.76-113.066-17.066-36.909-11.306-71.894-27.306-104.534-48-3.626-2.774-7.68-4.694-12.374-5.974-4.691-1.066-9.811-1.706-15.571-1.491v0.211z" />
<glyph unicode="&#xe95e;" glyph-name="instagram-solid" d="M728.746 556.141c-1.28 26.026-5.546 40.106-9.171 49.491-4.909 12.374-10.669 21.334-20.054 30.72-9.386 9.388-18.134 15.148-30.72 19.841-9.386 3.627-23.466 7.893-49.494 9.173-28.16 1.28-36.48 1.493-107.731 1.28-71.254 0-79.574-0.427-107.734-1.707-26.026-1.28-40.106-5.547-49.494-9.173-12.371-4.907-21.331-10.667-30.72-20.055-9.386-9.386-15.146-18.131-19.839-30.72-3.627-9.386-7.893-23.466-9.173-49.491-1.28-28.16-1.493-36.48-1.28-107.734 0-71.254 0.427-79.574 1.707-107.734 1.28-26.026 5.547-40.106 9.173-49.491 4.907-12.374 10.667-21.334 20.052-30.72 9.389-9.389 18.349-15.149 30.72-19.84 9.389-3.629 23.469-7.894 49.494-9.174 28.16-1.28 36.48-1.494 107.734-1.28 71.251 0 79.571 0.426 107.731 1.706 26.029 1.28 40.109 5.549 49.494 9.174 12.374 4.906 21.334 10.666 30.72 20.054 9.386 9.386 15.146 18.346 19.84 30.72 3.626 9.386 7.894 23.466 9.174 49.491 1.28 28.16 1.491 36.48 1.28 107.734 0 71.254-0.429 79.574-1.709 107.734zM512.214 311.021c-75.52 0-136.96 61.011-137.174 136.746 0 75.52 61.014 136.96 136.746 137.174 75.52 0 136.96-61.014 137.174-136.749 0-75.52-61.014-136.96-136.746-137.171zM654.080 558.486c-17.706 0-32 14.294-32 32s14.294 32 32 32c17.706 0 32-14.294 32-32s-14.294-32-32-32zM511.786 536.938c-49.066 0-88.746-39.894-88.746-88.96s39.894-88.746 88.96-88.746c49.066 0 88.746 39.891 88.746 88.96 0 49.066-39.891 88.746-88.96 88.746zM512 874.656c-235.733 0-426.667-190.933-426.667-426.666 0-235.734 190.933-426.669 426.667-426.669s426.666 190.934 426.666 426.669c0 235.732-190.931 426.666-426.666 426.666zM777.174 338.55c-1.28-28.374-5.76-47.789-12.374-64.64-6.826-17.494-15.786-32.429-30.72-47.36-14.72-14.934-29.654-23.894-47.146-30.934-16.854-6.614-36.269-11.094-64.64-12.586-28.374-1.28-37.549-1.709-109.869-1.709s-81.491 0-109.866 1.494c-28.374 1.28-47.786 5.76-64.64 12.374-17.494 6.826-32.427 15.786-47.36 30.72-14.933 14.72-24.107 29.651-30.933 47.146-6.613 16.854-11.093 36.266-12.587 64.64-1.28 28.374-1.707 37.546-1.92 109.866 0 72.32 0 81.494 1.493 109.869 1.28 28.371 5.76 47.786 12.373 64.851 6.827 17.494 15.787 32.428 30.72 47.361 14.72 14.933 29.653 23.893 47.148 30.933 16.851 6.613 36.266 11.093 64.64 12.587 28.371 1.28 37.546 1.707 109.866 1.92 72.32 0 81.494 0 109.866-1.493 28.374-1.28 47.789-5.76 64.64-12.373 17.494-6.827 32.429-15.787 47.36-30.72 14.934-14.72 23.894-29.653 30.934-47.146 6.614-16.854 11.094-36.269 12.586-64.64 1.28-28.374 1.709-37.549 1.92-109.869 0-72.32 0-81.491-1.491-109.866v-0.426z" />
</font>
</defs>
</svg>
